<svg width="360" height="435" viewBox="0 0 360 435" fill="none" xmlns="http://www.w3.org/2000/svg">
<path d="M97 434.076V403.309H108.13V405.547H99.9229V417.085H106.615V419.216H99.9229V431.9H108.207V434.069L97 434.076Z" fill="#B2B2B2"/>
<path d="M112.161 434.076V403.308H119.084C120.651 403.227 122.213 403.548 123.622 404.239C124.701 404.837 125.539 405.791 125.991 406.939C126.504 408.278 126.749 409.705 126.714 411.138C126.722 412.224 126.595 413.307 126.337 414.361C126.116 415.313 125.673 416.198 125.045 416.946C124.367 417.693 123.456 418.189 122.461 418.354L127.176 434.084H124.361L119.868 418.923H115.046V434.076H112.161ZM115.046 416.823H118.961C120.001 416.881 121.037 416.658 121.961 416.177C122.682 415.746 123.228 415.072 123.499 414.277C123.835 413.263 123.991 412.198 123.961 411.131C124.065 409.643 123.719 408.158 122.968 406.869C122.315 405.939 121.007 405.47 119.061 405.47H115.069L115.046 416.823Z" fill="#B2B2B2"/>
<path d="M131.606 434.075V403.307H138.529C140.099 403.229 141.663 403.549 143.075 404.238C144.154 404.836 144.992 405.79 145.444 406.938C145.957 408.277 146.202 409.704 146.167 411.138C146.175 412.224 146.048 413.306 145.79 414.361C145.569 415.312 145.126 416.197 144.498 416.945C143.82 417.692 142.909 418.188 141.914 418.353L146.621 434.083H143.814L139.321 418.922H134.499V434.075H131.606ZM134.499 416.822H138.414C139.454 416.879 140.49 416.656 141.414 416.176C142.135 415.745 142.681 415.072 142.952 414.276C143.288 413.262 143.444 412.198 143.414 411.13C143.518 409.642 143.172 408.157 142.421 406.869C141.76 405.938 140.46 405.469 138.506 405.469H134.522L134.499 416.822Z" fill="#B2B2B2"/>
<path d="M158.321 434.453C156.647 434.545 154.985 434.13 153.551 433.261C152.39 432.448 151.534 431.27 151.121 429.915C150.626 428.321 150.387 426.66 150.413 424.992V412.231C150.385 410.57 150.645 408.918 151.182 407.346C151.626 406.032 152.495 404.904 153.651 404.139C155.108 403.39 156.722 403 158.359 403C159.996 403 161.61 403.39 163.066 404.139C164.222 404.901 165.086 406.032 165.52 407.346C166.033 408.922 166.278 410.574 166.243 412.231V425.03C166.269 426.69 166.033 428.344 165.543 429.93C165.128 431.276 164.279 432.447 163.128 433.261C161.684 434.138 160.007 434.554 158.321 434.453ZM158.321 432.145C159.42 432.22 160.514 431.934 161.436 431.33C162.167 430.746 162.682 429.933 162.897 429.022C163.178 427.911 163.313 426.768 163.297 425.622V411.7C163.313 410.559 163.179 409.421 162.897 408.315C162.679 407.429 162.163 406.645 161.436 406.093C160.479 405.582 159.412 405.315 158.328 405.315C157.244 405.315 156.177 405.582 155.221 406.093C154.482 406.638 153.957 407.424 153.736 408.315C153.457 409.422 153.325 410.559 153.344 411.7V425.638C153.326 426.783 153.458 427.926 153.736 429.038C153.954 429.954 154.477 430.768 155.221 431.345C156.141 431.938 157.229 432.216 158.321 432.138V432.145Z" fill="#B2B2B2"/>
<path d="M171.004 434.076V403.308H177.927C179.494 403.227 181.056 403.548 182.465 404.239C183.544 404.84 184.383 405.793 184.842 406.939C185.351 408.279 185.596 409.705 185.565 411.138C185.569 412.224 185.443 413.306 185.188 414.361C184.964 415.311 184.521 416.196 183.896 416.946C183.217 417.692 182.307 418.187 181.312 418.354L186.019 434.084H183.212L178.719 418.923H173.897V434.076H171.004ZM173.897 416.823H177.804C178.844 416.881 179.88 416.658 180.804 416.177C181.525 415.745 182.07 415.072 182.342 414.277C182.674 413.262 182.828 412.198 182.796 411.131C182.902 409.644 182.559 408.159 181.812 406.869C181.15 405.939 179.85 405.47 177.896 405.47H173.912L173.897 416.823Z" fill="#B2B2B2"/>
<path d="M198.211 434.076V403.308H205.58C207.096 403.228 208.604 403.583 209.926 404.331C210.973 405.008 211.767 406.011 212.187 407.185C212.669 408.563 212.901 410.017 212.872 411.477C212.887 412.844 212.649 414.203 212.172 415.484C211.727 416.682 210.921 417.712 209.864 418.43C208.597 419.215 207.123 419.599 205.634 419.53H201.103V434.076H198.211ZM201.103 417.384H204.788C205.824 417.423 206.856 417.234 207.811 416.831C208.588 416.452 209.193 415.792 209.503 414.984C209.9 413.865 210.08 412.679 210.033 411.492C210.078 410.252 209.922 409.014 209.572 407.823C209.451 407.426 209.248 407.059 208.976 406.745C208.705 406.431 208.371 406.177 207.995 406C206.985 405.616 205.906 405.443 204.826 405.493H201.103V417.384Z" fill="#B2B2B2"/>
<path d="M213.326 434.076L219.825 403.309H222.902L229.44 434.076H226.587L225.048 425.831H217.71L216.172 434.076H213.326ZM218.118 423.738H224.648L221.341 407.139L218.118 423.738Z" fill="#B2B2B2"/>
<path d="M240.001 434.491C238.395 434.58 236.802 434.154 235.455 433.276C234.329 432.414 233.518 431.206 233.147 429.838C232.663 428.166 232.432 426.432 232.463 424.692V412.685C232.432 410.951 232.655 409.223 233.124 407.554C233.51 406.201 234.339 405.017 235.478 404.193C236.882 403.439 238.445 403.031 240.038 403.002C241.631 402.972 243.208 403.322 244.639 404.023C245.722 404.737 246.535 405.793 246.947 407.023C247.461 408.578 247.703 410.209 247.662 411.846V412.915H244.947V411.846C244.972 410.619 244.838 409.393 244.547 408.2C244.347 407.342 243.858 406.579 243.162 406.039C242.285 405.497 241.26 405.244 240.232 405.316C239.106 405.234 237.988 405.555 237.078 406.223C236.345 406.877 235.857 407.762 235.693 408.731C235.466 409.933 235.358 411.154 235.37 412.377V425.03C235.346 426.324 235.48 427.615 235.77 428.876C235.972 429.833 236.496 430.691 237.255 431.307C238.157 431.924 239.241 432.22 240.332 432.145C241.349 432.255 242.369 431.974 243.187 431.36C244.005 430.746 244.56 429.845 244.739 428.838C245.037 427.578 245.177 426.286 245.155 424.992V421.384H240.601V419.223H247.816V434.076H245.955L245.616 430.576C245.285 431.693 244.629 432.686 243.732 433.43C242.649 434.206 241.33 434.582 240.001 434.491Z" fill="#B2B2B2"/>
<path d="M252.762 434.076V403.309H263.892V405.547H255.716V417.085H262.408V419.216H255.716V431.9H264V434.069L252.762 434.076Z" fill="#B2B2B2"/>
<path d="M283.322 44.4424C285.709 44.4424 287.643 42.5079 287.643 40.1216C287.643 37.7353 285.709 35.8008 283.322 35.8008C280.936 35.8008 279.001 37.7353 279.001 40.1216C279.001 42.5079 280.936 44.4424 283.322 44.4424Z" fill="#B2B2B2"/>
<path d="M355.679 117.564C358.066 117.564 360 115.63 360 113.244C360 110.857 358.066 108.923 355.679 108.923C353.293 108.923 351.358 110.857 351.358 113.244C351.358 115.63 353.293 117.564 355.679 117.564Z" fill="#B2B2B2"/>
<path d="M56.9253 322.421C59.3116 322.421 61.2461 320.486 61.2461 318.1C61.2461 315.714 59.3116 313.779 56.9253 313.779C54.539 313.779 52.6045 315.714 52.6045 318.1C52.6045 320.486 54.539 322.421 56.9253 322.421Z" fill="#B2B2B2"/>
<path d="M320.127 318.672C322.514 318.672 324.448 316.737 324.448 314.351C324.448 311.965 322.514 310.03 320.127 310.03C317.741 310.03 315.807 311.965 315.807 314.351C315.807 316.737 317.741 318.672 320.127 318.672Z" fill="#B2B2B2"/>
<path d="M178.259 2.46904C178.259 2.95736 178.115 3.43473 177.843 3.84076C177.572 4.24679 177.186 4.56325 176.735 4.75013C176.284 4.937 175.788 4.9859 175.309 4.89063C174.83 4.79536 174.39 4.56021 174.044 4.21491C173.699 3.86961 173.464 3.42967 173.369 2.95072C173.273 2.47177 173.322 1.97533 173.509 1.52418C173.696 1.07302 174.013 0.687407 174.419 0.416106C174.825 0.144805 175.302 0 175.79 0C176.445 0 177.073 0.26013 177.536 0.723164C177.999 1.1862 178.259 1.81421 178.259 2.46904Z" fill="#B2B2B2"/>
<path d="M6.44825 155.88C8.83457 155.88 10.7691 153.945 10.7691 151.559C10.7691 149.173 8.83457 147.238 6.44825 147.238C4.06193 147.238 2.12744 149.173 2.12744 151.559C2.12744 153.945 4.06193 155.88 6.44825 155.88Z" fill="#B2B2B2"/>
<path d="M318.063 45.4934C319.248 45.4934 320.209 44.5323 320.209 43.3468C320.209 42.1613 319.248 41.2002 318.063 41.2002C316.877 41.2002 315.916 42.1613 315.916 43.3468C315.916 44.5323 316.877 45.4934 318.063 45.4934Z" fill="#B2B2B2"/>
<path d="M29.4264 291.373C30.6119 291.373 31.573 290.412 31.573 289.227C31.573 288.041 30.6119 287.08 29.4264 287.08C28.2408 287.08 27.2798 288.041 27.2798 289.227C27.2798 290.412 28.2408 291.373 29.4264 291.373Z" fill="#D65A31"/>
<path d="M346.042 273.704C347.228 273.704 348.189 272.743 348.189 271.558C348.189 270.372 347.228 269.411 346.042 269.411C344.857 269.411 343.896 270.372 343.896 271.558C343.896 272.743 344.857 273.704 346.042 273.704Z" fill="#D65A31"/>
<path d="M148.557 330.74C148.559 331.165 148.435 331.581 148.2 331.935C147.965 332.289 147.631 332.566 147.239 332.73C146.847 332.894 146.415 332.937 145.998 332.856C145.581 332.774 145.197 332.57 144.896 332.27C144.595 331.97 144.39 331.588 144.306 331.171C144.223 330.755 144.264 330.323 144.427 329.93C144.589 329.537 144.864 329.201 145.217 328.965C145.57 328.729 145.986 328.603 146.411 328.603C146.978 328.603 147.523 328.827 147.925 329.228C148.328 329.629 148.555 330.172 148.557 330.74Z" fill="#D65A31"/>
<path d="M38.6945 255.058C38.6945 255.482 38.5686 255.897 38.3328 256.25C38.0969 256.603 37.7617 256.878 37.3694 257.041C36.9772 257.203 36.5456 257.246 36.1292 257.163C35.7128 257.08 35.3303 256.876 35.0301 256.576C34.7299 256.275 34.5254 255.893 34.4426 255.477C34.3598 255.06 34.4023 254.628 34.5648 254.236C34.7272 253.844 35.0024 253.509 35.3554 253.273C35.7084 253.037 36.1234 252.911 36.5479 252.911C37.1165 252.914 37.6611 253.141 38.0631 253.543C38.4652 253.945 38.6921 254.489 38.6945 255.058Z" fill="#B2B2B2"/>
<path d="M127.469 357.882C127.469 358.306 127.344 358.722 127.108 359.075C126.872 359.428 126.537 359.703 126.144 359.865C125.752 360.028 125.32 360.07 124.904 359.987C124.488 359.904 124.105 359.7 123.805 359.4C123.505 359.1 123.3 358.717 123.218 358.301C123.135 357.884 123.177 357.453 123.34 357.06C123.502 356.668 123.777 356.333 124.13 356.097C124.483 355.861 124.898 355.735 125.323 355.735C125.605 355.734 125.885 355.789 126.146 355.896C126.407 356.004 126.644 356.162 126.843 356.361C127.043 356.561 127.201 356.798 127.309 357.059C127.416 357.32 127.471 357.6 127.469 357.882Z" fill="#B2B2B2"/>
<path d="M250.967 12.3087C250.967 12.7333 250.841 13.1483 250.605 13.5013C250.369 13.8543 250.034 14.1294 249.641 14.2919C249.249 14.4544 248.818 14.4969 248.401 14.414C247.985 14.3312 247.602 14.1268 247.302 13.8266C247.002 13.5264 246.797 13.1439 246.715 12.7275C246.632 12.3111 246.674 11.8795 246.837 11.4872C246.999 11.095 247.274 10.7597 247.627 10.5239C247.98 10.288 248.395 10.1621 248.82 10.1621C249.389 10.1621 249.935 10.3883 250.338 10.7908C250.74 11.1934 250.967 11.7394 250.967 12.3087Z" fill="#D65A31"/>
<path d="M254.67 246.81C254.67 247.234 254.544 247.649 254.308 248.002C254.072 248.355 253.737 248.63 253.345 248.793C252.953 248.955 252.521 248.998 252.105 248.915C251.688 248.832 251.306 248.628 251.006 248.328C250.705 248.027 250.501 247.645 250.418 247.228C250.335 246.812 250.378 246.38 250.54 245.988C250.703 245.596 250.978 245.261 251.331 245.025C251.684 244.789 252.099 244.663 252.524 244.663C252.806 244.662 253.085 244.717 253.346 244.824C253.607 244.931 253.845 245.09 254.044 245.289C254.244 245.489 254.402 245.726 254.509 245.987C254.617 246.248 254.671 246.527 254.67 246.81Z" fill="#B2B2B2"/>
<path d="M353.145 163.445C353.145 163.87 353.019 164.286 352.782 164.639C352.546 164.992 352.21 165.267 351.817 165.429C351.425 165.592 350.993 165.634 350.576 165.55C350.159 165.466 349.777 165.261 349.477 164.96C349.177 164.659 348.973 164.276 348.892 163.859C348.81 163.442 348.854 163.01 349.018 162.618C349.182 162.225 349.458 161.891 349.812 161.656C350.167 161.421 350.582 161.297 351.007 161.299C351.575 161.301 352.119 161.529 352.519 161.931C352.92 162.333 353.145 162.878 353.145 163.445Z" fill="#B2B2B2"/>
<path d="M2.14659 247.778C3.33211 247.778 4.29317 246.817 4.29317 245.631C4.29317 244.445 3.33211 243.484 2.14659 243.484C0.961061 243.484 0 244.445 0 245.631C0 246.817 0.961061 247.778 2.14659 247.778Z" fill="#D65A31"/>
<path d="M193.23 344.991C194.415 344.991 195.376 344.03 195.376 342.845C195.376 341.659 194.415 340.698 193.23 340.698C192.044 340.698 191.083 341.659 191.083 342.845C191.083 344.03 192.044 344.991 193.23 344.991Z" fill="#B2B2B2"/>
<path d="M115.455 261.329C116.64 261.329 117.601 260.368 117.601 259.183C117.601 257.997 116.64 257.036 115.455 257.036C114.269 257.036 113.308 257.997 113.308 259.183C113.308 260.368 114.269 261.329 115.455 261.329Z" fill="#D65A31"/>
<path d="M258.41 85.9552C258.41 86.3801 258.284 86.7955 258.048 87.1487C257.812 87.5019 257.476 87.7771 257.083 87.9393C256.69 88.1014 256.258 88.1434 255.842 88.0598C255.425 87.9763 255.042 87.7709 254.743 87.4698C254.443 87.1687 254.239 86.7853 254.157 86.3683C254.076 85.9513 254.119 85.5194 254.283 85.1273C254.447 84.7353 254.724 84.4007 255.078 84.1659C255.432 83.9311 255.848 83.8068 256.273 83.8086C256.554 83.8086 256.833 83.8642 257.093 83.9722C257.353 84.0802 257.589 84.2384 257.788 84.4379C257.986 84.6373 258.143 84.8741 258.25 85.1344C258.357 85.3948 258.412 85.6737 258.41 85.9552Z" fill="#D65A31"/>
<path d="M67.7414 328.337V284.055H14V257.804L60.8413 148.123H96.5938V259.581H115.024V284.055H96.6118V328.337H67.7414ZM39.7537 259.581H67.7414V181.269L39.7537 259.581ZM178.116 331C167.606 331 158.899 328.777 151.993 324.331C145.104 319.864 139.701 313.442 136.472 305.885C132.995 298.016 131.256 288.968 131.256 278.74V198.848C131.256 188.32 132.923 179.088 136.256 171.153C139.325 163.524 144.674 157.034 151.569 152.572C158.451 148.12 167.297 145.894 178.107 145.894C188.916 145.894 197.762 148.12 204.644 152.572C211.535 157.039 216.883 163.528 219.958 171.153C223.291 179.088 224.957 188.32 224.957 198.848V278.722C224.957 288.949 223.215 297.998 219.732 305.867C216.503 313.434 211.092 319.863 204.194 324.331C197.318 328.783 188.625 331.006 178.116 331ZM178.116 304.531C182.704 304.531 186.109 303.121 188.331 300.299C190.624 297.303 192.149 293.789 192.772 290.065C193.5 286.176 193.87 282.228 193.88 278.271V199.29C193.881 195.155 193.547 191.026 192.88 186.945C192.348 183.182 190.856 179.619 188.547 176.603C186.331 173.788 182.854 172.377 178.116 172.371C173.378 172.365 169.897 173.776 167.676 176.603C165.386 179.626 163.91 183.187 163.388 186.945C162.721 191.026 162.387 195.155 162.388 199.29V278.271C162.397 282.234 162.807 286.186 163.613 290.065C164.3 293.789 165.859 297.296 168.162 300.299C170.384 303.127 173.702 304.537 178.116 304.531ZM298.264 328.337V284.055H244.513V257.804L291.355 148.123H327.107V259.581H345.546V284.055H327.125V328.337H298.264ZM270.276 259.581H298.264V181.269L270.276 259.581Z" fill="#D65A31" stroke="#263238" stroke-width="1.01325" stroke-miterlimit="10"/>
<g opacity="0.3">
<path d="M245.535 279.831L245.652 279.939C245.811 280.069 245.98 280.187 246.156 280.291L246.3 280.364C246.459 280.457 246.625 280.539 246.796 280.607L246.976 280.679C247.213 280.776 247.457 280.855 247.705 280.914H247.832C248.066 280.968 248.309 281.013 248.579 281.049H248.831C249.147 281.049 249.48 281.122 249.84 281.131C251.111 281.165 252.375 280.935 253.552 280.454C254.179 280.21 254.782 279.908 255.353 279.551C255.745 279.303 256.124 279.035 256.488 278.748C256.677 278.604 256.858 278.45 257.038 278.288C257.403 277.969 257.749 277.628 258.074 277.268C261.064 273.983 262.821 268.867 261.362 262.829C261.001 261.331 260.614 259.924 260.209 258.57C259.578 256.466 258.823 254.402 257.948 252.388C257.731 251.901 257.515 251.423 257.281 250.962C256.771 249.92 256.203 248.908 255.578 247.93C255.182 247.308 254.768 246.712 254.344 246.125C253.389 244.854 252.254 243.729 250.975 242.786C250.678 242.57 250.372 242.371 250.075 242.191C249.997 242.142 249.916 242.099 249.831 242.064L243.147 257.704V275.202C243.787 277.006 244.219 278.586 245.354 279.714L245.535 279.831Z" fill="black"/>
<path d="M223.618 275.203V244.223C222.718 244.223 221.925 244.295 221.213 244.34C221.309 239.446 220.761 234.561 219.583 229.811C219.568 226.876 218.966 223.974 217.814 221.275C216.661 218.577 214.981 216.137 212.872 214.1C212.449 208.108 209.107 201.105 205.368 196.196C205.461 196.204 205.555 196.204 205.648 196.196C207.143 196.033 208.08 194.156 208.737 190.925C208.827 190.483 208.9 190.068 208.954 189.671C210.301 188.838 211.441 187.709 212.287 186.368C212.763 185.349 213.067 184.257 213.187 183.138C214.834 182.142 216.325 180.907 217.61 179.474C218.82 178.045 219.612 176.308 219.898 174.456C219.511 173.328 219.088 172.218 218.637 171.135C216.734 166.58 214.038 162.4 210.674 158.79C209.7 158.277 208.673 157.871 207.611 157.581C206.647 157.321 205.655 157.181 204.657 157.166C199.192 156.079 193.643 155.475 188.073 155.361C185.371 155.298 182.966 155.361 180.795 155.442C178.928 154.629 176.882 154.318 174.859 154.54C173.611 154.671 172.394 155.006 171.255 155.532C168.084 154.681 164.787 154.4 161.518 154.702C160.833 154.783 160.158 154.864 159.5 154.964C159.5 154.621 159.455 154.278 159.41 153.935C159.338 153.276 159.239 152.626 159.122 151.986C159.193 150.784 159.193 149.578 159.122 148.376C155.948 149.368 152.919 150.776 150.114 152.563C143.218 157.026 137.869 163.516 134.8 171.144C131.467 179.08 129.801 188.311 129.801 198.84V206.763C133.026 210.941 136.917 215.625 139.484 217.421L140.043 217.998C140.223 221.112 140.772 228.124 142.124 230.434C142.124 230.434 141.061 234.152 142.862 236.038C142.313 240.207 141.583 250.648 145.907 260.936C149.267 268.922 154.996 273.236 160.887 274.608V199.291C160.934 195.152 161.316 191.023 162.031 186.946C162.567 183.183 164.059 179.622 166.364 176.604C168.586 173.788 172.066 172.378 176.804 172.372C181.542 172.366 185.019 173.776 187.235 176.604C189.544 179.62 191.037 183.182 191.568 186.946C192.235 191.027 192.569 195.156 192.568 199.291V278.272C192.568 279.607 192.505 280.979 192.424 282.296C192.469 282.549 192.523 282.793 192.586 283.018C192.659 283.268 192.75 283.512 192.856 283.749C192.874 283.796 192.895 283.841 192.919 283.885C192.997 284.048 193.087 284.205 193.19 284.354L193.271 284.462C193.386 284.624 193.519 284.772 193.667 284.904C193.806 285.028 193.957 285.137 194.117 285.229L194.244 285.301L194.694 285.518H194.784C194.973 285.59 195.171 285.653 195.388 285.717H195.532C195.703 285.771 195.892 285.816 196.081 285.861L196.288 285.915L196.964 286.069C200.225 286.827 205.792 282.396 207.215 277.947C207.513 276.979 207.736 275.989 207.882 274.987L208.422 274.905C213.424 275.958 218.579 276.059 223.618 275.203ZM202.945 193.38L202.999 192.992C202.954 193.082 202.945 193.245 202.945 193.344V193.38ZM203.225 191.133C203.279 190.673 203.342 190.231 203.396 189.779C203.351 190.222 203.279 190.673 203.225 191.097V191.133Z" fill="black"/>
<path d="M95.2548 209.559C94.0928 212.473 93.0659 215.1 92.5524 216.561C90.8949 221.227 89.1564 226.488 89.1924 229.502C89.2285 232.516 91.0931 236.379 92.5524 236.505C94.0117 236.631 95.0476 235.666 95.2548 233.635V209.559Z" fill="black"/>
</g>
<path d="M199.08 218.513C199.636 223.031 199.918 227.578 199.927 232.13C199.873 238.989 201.476 239.133 204.746 239.891C208.016 240.649 213.574 236.218 214.997 231.769C216.42 227.32 216.285 218.72 216.285 218.72L199.08 218.513Z" fill="#DEDEDE"/>
<path d="M205.53 240.424C205.228 240.427 204.925 240.397 204.629 240.334L204.323 240.262C200.918 239.476 199.414 238.845 199.468 232.14C199.458 227.615 199.178 223.095 198.63 218.603L198.558 218.089L216.718 218.296V218.739C216.718 219.091 216.835 227.456 215.403 231.932C213.971 236.408 209.052 240.424 205.53 240.424ZM199.594 218.973C200.108 223.34 200.37 227.733 200.378 232.131C200.324 238.448 201.558 238.691 204.539 239.35L204.846 239.422C207.863 240.126 213.223 235.813 214.565 231.598C215.772 227.835 215.844 220.941 215.835 219.136L199.594 218.973Z" fill="#263238"/>
<path d="M213.979 226.78C213.826 229.822 212.925 234.704 208.412 237.104C207.154 237.779 205.737 238.102 204.311 238.04C202.884 237.978 201.501 237.534 200.305 236.752C200.972 239.135 202.44 239.369 204.71 239.893C207.971 240.651 213.538 236.22 214.961 231.771C216.384 227.322 216.249 218.722 216.249 218.722H214.24C214.204 220.951 214.078 224.732 213.979 226.78Z" fill="#DEDEDE"/>
<path d="M205.531 240.425C205.228 240.429 204.926 240.398 204.63 240.335L204.333 240.263C202.252 239.785 200.613 239.406 199.901 236.87L199.577 235.733L200.577 236.373C201.703 237.101 203.003 237.516 204.342 237.574C205.681 237.633 207.012 237.334 208.197 236.707C212.305 234.514 213.359 230.084 213.521 226.781C213.629 224.588 213.764 220.4 213.818 218.704V218.262H216.71V218.704C216.71 219.056 216.827 227.421 215.395 231.897C213.962 236.373 209.053 240.425 205.531 240.425ZM201.252 237.718C201.901 238.747 202.946 238.991 204.54 239.361L204.846 239.424C207.864 240.128 213.224 235.814 214.566 231.6C215.773 227.836 215.845 220.942 215.836 219.137H214.71C214.647 221.041 214.53 224.759 214.431 226.79C214.26 230.354 213.107 235.101 208.63 237.492C207.504 238.104 206.251 238.445 204.971 238.489C203.69 238.533 202.417 238.278 201.252 237.745V237.718Z" fill="#263238"/>
<path d="M183.56 224.983C187.911 224.691 192.193 223.742 196.261 222.168C203.602 219.46 211.845 213.297 210.079 207.278C208.313 201.259 198.747 199.589 194.973 199.995C192.242 200.341 189.535 200.851 186.865 201.52C186.865 201.52 187.784 218.468 183.56 224.983Z" fill="#DEDEDE"/>
<path d="M182.75 225.453L183.209 224.74C187.308 218.423 186.488 201.71 186.479 201.539V201.169L186.84 201.079C189.528 200.408 192.253 199.896 195.001 199.544C198.82 199.138 208.711 200.736 210.594 207.152C212.35 213.144 204.648 219.578 196.496 222.592C192.374 224.199 188.029 225.158 183.615 225.435L182.75 225.453ZM187.398 201.864C187.497 204.363 187.894 218.008 184.407 224.488C188.429 224.1 192.384 223.19 196.172 221.78C203.928 218.911 211.314 212.909 209.684 207.441C207.972 201.62 198.523 200.104 195.055 200.483C192.469 200.792 189.903 201.253 187.371 201.864H187.398Z" fill="#263238"/>
<path d="M180.047 227.447C183.08 226.713 185.796 225.02 187.794 222.619C190.721 218.793 191.802 212.621 190.235 208.487C188.667 204.354 180.047 227.447 180.047 227.447Z" fill="#D65A31"/>
<path d="M179.298 228.051L179.587 227.284C181.316 222.655 187.162 207.548 189.685 207.539C189.919 207.539 190.36 207.638 190.585 208.324C192.189 212.566 191.09 218.964 188.081 222.889C186.022 225.384 183.208 227.139 180.064 227.889L179.298 228.051ZM189.657 208.423C188.423 208.423 184.136 217.8 180.74 226.761C183.349 225.979 185.666 224.437 187.396 222.33C190.234 218.63 191.279 212.611 189.784 208.64C189.761 208.558 189.718 208.483 189.657 208.423Z" fill="#263238"/>
<path d="M151.068 187.884C151.068 187.884 148.24 201.42 153.771 214.677C159.302 227.934 171.462 231.083 179.975 227.446C188.487 223.809 190.523 211.798 190.613 203.812C190.703 195.825 190.469 192.197 190.469 192.197C190.469 192.197 161.86 194.995 151.068 187.884Z" fill="#DEDEDE"/>
<path d="M173.047 229.298C170.559 229.294 168.095 228.813 165.787 227.882C161.985 226.338 156.779 222.819 153.392 214.851C147.834 201.621 150.59 187.931 150.626 187.778L150.761 187.128L151.311 187.489C161.85 194.438 190.171 191.757 190.459 191.73L190.919 191.685V192.154C190.919 192.154 191.153 195.9 191.063 203.805C191 209.662 189.802 223.721 180.145 227.846C177.9 228.802 175.486 229.296 173.047 229.298ZM151.428 188.626C150.968 191.46 149.491 203.155 154.256 214.508C157.49 222.187 162.517 225.562 166.165 227.042C170.554 228.85 175.477 228.85 179.866 227.042C189.036 223.126 190.171 209.499 190.234 203.823C190.306 197.506 190.171 193.896 190.117 192.705C186.262 193.03 161.904 194.889 151.392 188.626H151.428Z" fill="#263238"/>
<path d="M150.023 184.175C150.023 184.175 148.753 188.615 151.32 190.248C153.887 191.882 167.138 199.679 182.848 196.691C191.639 195.022 189.703 192.441 189.55 191.024C189.396 189.607 150.023 184.175 150.023 184.175Z" fill="#D65A31"/>
<path d="M175.66 197.823C166.969 197.665 158.479 195.172 151.078 190.603C148.267 188.798 149.537 184.223 149.591 184.025L149.699 183.646L150.087 183.7C150.186 183.7 160.059 185.08 169.814 186.596C189.893 189.719 189.974 190.405 190.028 190.955C190.055 191.131 190.091 191.306 190.136 191.479C190.29 191.903 190.348 192.355 190.308 192.804C190.267 193.253 190.129 193.688 189.902 194.078C189.046 195.413 186.839 196.379 182.966 197.11C180.558 197.577 178.112 197.816 175.66 197.823ZM150.366 184.683C150.15 185.73 149.718 188.699 151.564 189.872C154.05 191.452 167.238 199.203 182.795 196.252C186.317 195.585 188.452 194.7 189.145 193.617C189.301 193.327 189.392 193.007 189.412 192.678C189.432 192.349 189.381 192.02 189.262 191.713C189.214 191.545 189.178 191.382 189.154 191.226C187.254 190.107 164.68 186.66 150.366 184.683Z" fill="#263238"/>
<path d="M147.879 170.226C147.879 170.226 148.266 181.181 150.023 184.177C151.779 187.173 175.038 196.279 186.847 193.716C198.657 191.153 217.88 180.613 220.222 172.87C222.564 165.127 216.474 152.944 210.745 147.079C205.016 141.213 202.503 140.058 202.503 140.058C202.503 140.058 188.469 158.792 171.038 165.001C153.608 171.209 147.879 170.226 147.879 170.226Z" fill="white"/>
<path d="M182.074 194.615C169.525 194.615 151.329 187.288 149.645 184.4C147.843 181.341 147.447 170.692 147.438 170.241V169.69L147.978 169.781C148.033 169.781 153.825 170.638 170.886 164.574C187.947 158.509 202.035 139.973 202.17 139.784L202.395 139.495L202.72 139.649C202.828 139.694 205.377 140.912 211.097 146.76C216.817 152.607 223.159 164.808 220.682 173.002C218.204 181.196 198.513 191.655 186.974 194.155C185.361 194.479 183.719 194.634 182.074 194.615ZM148.348 170.719C148.456 172.903 148.942 181.44 150.411 183.949C151.879 186.458 174.795 195.861 186.758 193.271C199.026 190.564 217.601 179.969 219.79 172.741C222.132 164.989 215.745 152.833 210.422 147.391C205.918 142.825 203.449 141.138 202.63 140.641C200.684 143.123 187.316 159.682 171.165 165.422C156.536 170.62 150.14 170.809 148.348 170.719Z" fill="#263238"/>
<path d="M240.589 197.901C240.589 197.901 252.948 193.055 257.884 196.024C262.82 198.993 266.595 205.951 269.189 216.627C271.783 227.302 264.199 235.172 257.65 234.928C251.101 234.684 252.245 230.416 249.696 226.075C247.147 221.734 244.012 219.208 243.805 218.747C243.598 218.287 246.705 204.57 240.589 197.901Z" fill="white"/>
<path d="M257.956 235.389H257.632C252.651 235.208 251.804 232.681 250.813 229.857C250.432 228.625 249.925 227.437 249.3 226.31C247.89 223.963 246.186 221.806 244.228 219.894C243.91 219.634 243.631 219.331 243.4 218.991C243.31 218.802 243.337 218.621 243.472 217.547C243.913 214.118 245.273 203.686 240.265 198.263L239.814 197.775L240.427 197.541C240.94 197.333 253.038 192.64 258.119 195.736C263.199 198.831 267 205.717 269.622 216.546C270.278 218.981 270.359 221.535 269.858 224.007C269.358 226.479 268.29 228.8 266.739 230.786C265.7 232.15 264.375 233.269 262.858 234.064C261.34 234.859 259.667 235.311 257.956 235.389ZM244.246 218.603C244.345 218.721 244.616 218.991 244.868 219.253C246.885 221.216 248.639 223.433 250.084 225.85C250.732 227.028 251.263 228.267 251.669 229.55C252.615 232.32 253.308 234.315 257.668 234.477C260.641 234.585 263.767 232.988 266.046 230.191C267.509 228.311 268.516 226.115 268.985 223.778C269.454 221.441 269.373 219.027 268.748 216.726C266.181 206.132 262.442 199.291 257.65 196.413C253.57 193.949 243.868 197.189 241.355 198.1C246.12 203.93 244.805 214.172 244.363 217.611C244.309 218.008 244.264 218.423 244.246 218.603Z" fill="#263238"/>
<path d="M257.885 196.026C256.28 195.244 254.488 194.932 252.714 195.123C255.219 196.982 260.155 201.512 263.389 210.13C267.893 222.07 265.839 228.351 263.551 230.67C261.263 232.989 256.417 233.837 254.318 233.585L253.147 233.449C254.048 234.352 255.39 234.893 257.651 234.974C264.199 235.218 271.784 227.385 269.19 216.673C266.596 205.961 262.821 198.995 257.885 196.026Z" fill="white"/>
<path d="M257.957 235.389H257.632C255.425 235.308 253.903 234.784 252.831 233.728L251.885 232.826L254.371 233.124C256.281 233.349 261.001 232.591 263.226 230.335C265.775 227.754 267.037 221.139 262.965 210.274C259.803 201.837 255.02 197.379 252.444 195.465L251.426 194.707L252.696 194.653C254.557 194.465 256.433 194.815 258.101 195.664C263.109 198.678 266.983 205.699 269.604 216.546C270.26 218.981 270.341 221.535 269.841 224.007C269.34 226.479 268.272 228.8 266.721 230.786C265.684 232.148 264.362 233.266 262.848 234.061C261.334 234.856 259.664 235.309 257.957 235.389ZM255.02 234.035C255.874 234.319 256.768 234.469 257.668 234.477C260.641 234.586 263.767 232.988 266.046 230.191C267.509 228.311 268.516 226.116 268.985 223.779C269.454 221.441 269.373 219.027 268.748 216.727C266.181 206.132 262.443 199.292 257.65 196.413C256.542 195.818 255.304 195.508 254.047 195.511C258.502 199.38 261.871 204.348 263.821 209.922C269.135 224.099 265.208 229.595 263.875 230.94C261.659 233.178 257.38 234.053 255.02 234.035Z" fill="#263238"/>
<path d="M214.467 228.276C214.467 228.276 226.123 231.633 236.987 227.266C247.85 222.898 254.183 215.678 251.796 206.853C249.409 198.027 244.914 197.72 235.068 197.828C225.222 197.937 223.241 198.794 223.241 198.794C223.241 198.794 222.871 223.764 214.467 228.276Z" fill="white"/>
<path d="M224.536 229.984C221.099 230.003 217.673 229.588 214.339 228.748L213.276 228.45L214.249 227.918C222.356 223.514 222.744 199.085 222.744 198.832V198.544L223.005 198.426C223.095 198.426 225.176 197.524 235.004 197.425C244.831 197.325 249.704 197.659 252.173 206.774C254.479 215.293 248.984 222.927 237.102 227.728C233.094 229.271 228.83 230.037 224.536 229.984ZM215.582 228.125C218.609 228.802 228.031 230.417 236.769 226.889C248.182 222.287 253.488 215.04 251.317 207.036C249.011 198.526 244.903 198.237 235.031 198.354C227.23 198.444 224.437 198.986 223.644 199.202C223.572 202.108 222.852 222.63 215.582 228.125Z" fill="#263238"/>
<path d="M227.288 186.09C228.408 174.201 220.434 163.724 209.478 162.688C198.522 161.653 188.733 170.451 187.613 182.34C186.494 194.228 194.467 204.706 205.423 205.741C216.379 206.777 226.169 197.979 227.288 186.09Z" fill="#D65A31"/>
<path d="M207.169 206.286C206.568 206.288 205.966 206.258 205.368 206.196C194.18 205.14 186.01 194.419 187.154 182.299C188.298 170.18 198.324 161.183 209.502 162.238C212.217 162.504 214.846 163.337 217.22 164.683C219.594 166.029 221.66 167.858 223.285 170.054C226.755 174.654 228.363 180.397 227.789 186.135C226.663 197.596 217.619 206.286 207.169 206.286ZM207.737 163.06C197.747 163.06 189.099 171.38 188.064 182.39C186.974 194.013 194.774 204.292 205.467 205.302C216.159 206.313 225.744 197.677 226.843 186.054C227.41 180.543 225.879 175.022 222.555 170.595C221.008 168.505 219.042 166.763 216.784 165.479C214.525 164.195 212.023 163.399 209.439 163.141C208.875 163.087 208.307 163.06 207.737 163.06Z" fill="#263238"/>
<path d="M231.502 211.073C232.518 200.286 225.287 190.78 215.351 189.84C205.416 188.901 196.538 196.885 195.522 207.672C194.506 218.459 201.737 227.965 211.672 228.905C221.608 229.844 230.486 221.86 231.502 211.073Z" fill="#D65A31"/>
<path d="M213.268 229.433C212.728 229.433 212.187 229.433 211.638 229.351C209.176 229.109 206.793 228.352 204.641 227.131C202.489 225.909 200.617 224.249 199.144 222.258C195.994 218.071 194.543 212.845 195.081 207.63C196.117 196.62 205.233 188.426 215.403 189.401C225.573 190.376 233.005 200.104 231.969 211.122C230.987 221.545 222.763 229.433 213.268 229.433ZM213.782 190.222C204.774 190.222 196.919 197.757 195.973 207.72C195.463 212.706 196.85 217.701 199.855 221.708C201.255 223.601 203.034 225.179 205.079 226.342C207.123 227.504 209.388 228.225 211.728 228.458C221.393 229.36 230.077 221.554 231.068 211.032C232.059 200.51 224.997 191.179 215.322 190.276C214.809 190.249 214.277 190.222 213.782 190.222Z" fill="#263238"/>
<path d="M229.014 198.211C229.014 198.211 229.825 180.749 221.312 171.138C212.8 161.527 193.442 169.387 190.226 183.772C187.01 198.157 193.829 219.716 202.684 225.284C211.539 230.852 219.078 225.41 224.132 217.685C229.185 209.96 229.014 198.211 229.014 198.211Z" fill="white"/>
<path d="M209.944 228.053C207.268 227.996 204.664 227.173 202.44 225.68C193.225 219.895 186.604 197.921 189.784 183.69C191.793 174.666 199.585 168.908 206.422 167.13C212.574 165.533 218.132 166.896 221.645 170.857C230.14 180.423 229.5 197.317 229.464 198.219C229.464 198.878 229.527 210.266 224.51 217.955C221.726 222.206 216.673 228.053 209.944 228.053ZM211.313 167.383C209.738 167.394 208.17 167.603 206.647 168.006C200.08 169.711 192.586 175.279 190.667 183.888C187.55 197.822 193.964 219.3 202.918 224.913C212.764 231.094 220.195 222.891 223.753 217.459C228.662 209.941 228.563 198.327 228.563 198.219C228.563 198.038 229.266 180.829 220.97 171.489C219.751 170.148 218.257 169.086 216.59 168.377C214.923 167.669 213.123 167.329 211.313 167.383Z" fill="#263238"/>
<path d="M108.749 149.309C108.749 149.309 102.011 165.643 100.353 170.299C98.696 174.956 96.9485 180.226 96.9935 183.24C97.0386 186.254 98.8942 190.116 100.344 190.243C101.795 190.369 102.849 189.394 103.047 187.346C103.245 185.297 103.164 184.449 104.191 183.321C105.631 181.996 107.193 180.812 108.857 179.784C109.271 179.594 109.587 181.146 108.614 182.843C107.641 184.539 105.506 186.074 106.812 187.797C108.118 189.521 110.812 187.508 112.217 186.055C113.908 184.237 115.108 182.016 115.703 179.603C116.289 177.085 116 171.77 116 171.77L127.909 160.508C127.909 160.508 112.208 158.613 108.749 149.309Z" fill="#DEDEDE"/>
<path d="M100.605 190.71H100.308C98.4523 190.547 96.5786 186.306 96.5426 183.265C96.5065 180.223 98.146 175.143 99.9206 170.17C101.569 165.55 108.262 149.315 108.325 149.144L108.766 148.088L109.172 149.162C112.496 158.096 127.89 160.054 128.088 160.072L129.043 160.189L116.594 171.966C116.639 172.995 116.801 177.381 116.261 179.727C115.642 182.217 114.402 184.508 112.658 186.387C111.874 187.181 109.847 189.031 108.1 188.932C107.794 188.917 107.495 188.834 107.226 188.689C106.956 188.544 106.722 188.34 106.541 188.093C105.334 186.54 106.424 185.133 107.388 183.887C107.712 183.487 108.013 183.068 108.289 182.633C108.71 181.953 108.906 181.157 108.847 180.359C107.336 181.33 105.911 182.429 104.587 183.644C103.821 184.483 103.758 185.124 103.641 186.54C103.641 186.811 103.587 187.091 103.56 187.443C103.299 189.473 102.218 190.71 100.605 190.71ZM108.757 150.461C107.271 154.071 102.173 166.515 100.776 170.45C99.1008 175.143 97.4073 180.323 97.4434 183.228C97.4434 186.36 99.3621 189.699 100.389 189.789C102.082 189.943 102.515 188.291 102.614 187.298C102.614 186.992 102.668 186.703 102.695 186.45C102.821 184.97 102.902 184.077 103.884 183.012C105.361 181.652 106.969 180.443 108.685 179.402C108.808 179.345 108.946 179.33 109.078 179.359C109.21 179.388 109.328 179.461 109.415 179.565C109.892 180.097 109.856 181.64 109.019 183.102C108.733 183.576 108.414 184.028 108.064 184.456C107.055 185.764 106.478 186.604 107.217 187.56C107.32 187.704 107.455 187.823 107.611 187.908C107.767 187.992 107.941 188.04 108.118 188.047C109.244 188.111 110.82 186.919 111.973 185.773C113.608 184.016 114.767 181.87 115.342 179.538C115.91 177.11 115.639 171.885 115.639 171.831V171.623L127.025 160.848C123.647 160.262 112.388 157.888 108.757 150.461Z" fill="#263238"/>
<path d="M113.639 184.331C111.766 184.286 110.423 183.835 109.667 182.996C109.261 182.567 109.035 181.998 109.036 181.407L109.937 181.479C109.959 181.821 110.106 182.143 110.351 182.382C110.766 182.824 111.666 183.356 113.657 183.402L113.639 184.331Z" fill="#263238"/>
<path d="M103.21 183.842C101.947 183.833 100.721 183.419 99.7107 182.66C98.7006 181.902 97.96 180.839 97.5977 179.627L98.4985 179.393C98.8459 180.578 99.6213 181.591 100.674 182.235C101.726 182.879 102.98 183.108 104.191 182.876L104.309 183.778C103.944 183.822 103.577 183.843 103.21 183.842Z" fill="#263238"/>
<path d="M100.335 187.189C99.2579 187.162 98.2171 186.792 97.3628 186.133L97.9123 185.421C98.0204 185.502 100.552 187.415 102.479 185.285L103.146 185.89C102.799 186.297 102.368 186.624 101.883 186.849C101.398 187.073 100.87 187.189 100.335 187.189Z" fill="#263238"/>
<path d="M114.991 172.245C110.874 172.245 107.785 171.207 105.713 169.159C104.18 167.608 103.31 165.52 103.29 163.338H104.19C104.231 165.273 105.008 167.119 106.361 168.5C108.397 170.53 111.658 171.46 116.063 171.279L116.108 172.182L114.991 172.245Z" fill="#263238"/>
<path d="M112.119 144.462C112.119 144.462 108.948 144.517 108.75 149.309C108.551 154.1 112.353 161.482 119.721 162.701C127.09 163.919 131.639 159.533 132.972 155.914C134.305 152.296 117.145 141.647 112.119 144.462Z" fill="#D65A31"/>
<path d="M122.179 163.364C121.33 163.36 120.484 163.288 119.647 163.147C112.018 161.874 108.09 154.123 108.297 149.277C108.487 144.683 111.342 144.088 111.982 144.015C115.81 141.985 125.322 146.723 130.241 150.91C131.997 152.408 133.97 154.52 133.393 156.072C132.49 158.289 130.932 160.175 128.927 161.479C126.922 162.782 124.567 163.44 122.179 163.364ZM112.126 144.909C112 144.909 109.423 145.053 109.198 149.322C109 153.834 112.666 161.053 119.791 162.254C127.493 163.535 131.502 158.563 132.547 155.756C132.781 155.133 132.141 153.717 129.664 151.596C124.953 147.589 115.603 142.987 112.333 144.846L112.234 144.9L112.126 144.909Z" fill="#263238"/>
<path d="M120.369 131.421C120.369 131.421 112.587 140.797 111.226 145.562C109.866 150.327 113.262 159.098 121.892 160.154C130.521 161.21 135.656 154.036 135.656 154.036L120.369 131.421Z" fill="#DEDEDE"/>
<path d="M123.63 160.715C123.028 160.714 122.426 160.678 121.828 160.606C119.988 160.387 118.219 159.767 116.644 158.789C115.069 157.812 113.727 156.501 112.712 154.948C110.748 151.961 110.01 148.234 110.784 145.446C112.154 140.636 119.693 131.521 120.009 131.133L120.396 130.673L136.196 154.037L136.016 154.298C135.971 154.362 131.35 160.715 123.63 160.715ZM120.333 132.18C118.756 134.12 112.802 141.664 111.658 145.716C110.947 148.225 111.658 151.745 113.46 154.479C114.394 155.93 115.64 157.155 117.106 158.063C118.573 158.972 120.223 159.542 121.936 159.731C129.296 160.633 134.088 155.273 135.079 154.046L120.333 132.18Z" fill="#263238"/>
<path d="M124.819 123.859C121.349 127.075 119.224 131.49 118.874 136.213C118.487 143.857 125.513 152.674 134.683 151.825C143.853 150.977 132.368 123.489 124.819 123.859Z" fill="#D65A31"/>
<path d="M133.467 152.331C129.725 152.292 126.147 150.789 123.495 148.144C121.872 146.619 120.583 144.772 119.71 142.722C118.837 140.671 118.399 138.461 118.423 136.232C118.77 131.393 120.956 126.871 124.531 123.598L124.648 123.508H124.972C130.818 123.508 137.944 137.793 138.484 145.662C138.772 149.75 137.43 152.133 134.719 152.386C134.304 152.313 133.89 152.331 133.467 152.331ZM124.999 124.302C121.696 127.436 119.673 131.688 119.324 136.232C119.299 138.34 119.711 140.43 120.537 142.369C121.362 144.308 122.581 146.053 124.116 147.494C125.484 148.869 127.135 149.929 128.954 150.599C130.773 151.269 132.715 151.534 134.647 151.375C137.394 151.122 137.772 148.108 137.592 145.617C137.016 137.405 129.944 124.338 124.999 124.302Z" fill="#263238"/>
<path d="M128.701 129.518C128.701 129.518 124.567 134.427 126.9 142.712C128.326 147.694 131.164 152.155 135.07 155.553C135.07 155.553 146.357 171.797 151.095 174.333C155.833 176.869 164.22 176.95 181.209 170.037C198.198 163.125 204.899 153.008 207.503 147.82C210.106 142.631 194.829 118.707 189.55 115.233C184.421 112.043 178.392 110.62 172.381 111.181C169.138 111.568 165.924 112.171 162.76 112.986L128.701 129.518Z" fill="#D65A31"/>
<path d="M158.428 176.362C155.811 176.445 153.212 175.884 150.861 174.728C146.168 172.238 135.548 157.068 134.71 155.867C130.753 152.417 127.881 147.89 126.441 142.836C124.063 134.435 128.098 129.435 128.243 129.228L128.396 129.11L162.572 112.542C165.781 111.717 169.044 111.114 172.336 110.737C178.451 110.177 184.582 111.624 189.803 114.861C195.099 118.345 210.719 142.448 207.918 148.025C204.558 154.703 197.234 164.025 181.389 170.469C171.661 174.412 164.148 176.362 158.428 176.362ZM128.945 129.914C128.477 130.545 125.252 135.229 127.342 142.629C128.751 147.522 131.534 151.907 135.359 155.263L135.449 155.353C135.566 155.516 146.727 171.552 151.321 173.988C156.906 176.957 166.634 175.549 181.047 169.684C196.631 163.367 203.819 154.216 207.107 147.673C209.467 142.963 194.649 119.184 189.298 115.673C184.256 112.544 178.334 111.144 172.426 111.685C169.208 112.076 166.018 112.679 162.878 113.489L128.945 129.914Z" fill="#263238"/>
<path d="M125.63 126.799C125.63 126.799 121.549 131.727 123.891 139.993C125.317 144.975 128.155 149.436 132.061 152.834C132.061 152.834 143.348 169.078 148.086 171.605C152.825 174.132 161.211 174.222 178.2 167.318C195.189 160.415 201.882 150.289 204.494 145.091C207.107 139.894 191.82 115.988 186.541 112.514C181.411 109.32 175.377 107.897 169.363 108.462C166.123 108.85 162.912 109.453 159.752 110.267L125.63 126.799Z" fill="white"/>
<path d="M155.446 173.646C152.828 173.731 150.23 173.17 147.879 172.013C143.186 169.513 132.566 154.353 131.728 153.143C127.769 149.698 124.895 145.174 123.459 140.121C121.08 131.72 125.116 126.72 125.26 126.513L125.413 126.395L159.526 109.827C162.736 109.001 165.999 108.398 169.291 108.022C175.406 107.457 181.538 108.905 186.757 112.146C192.054 115.629 207.674 139.733 204.872 145.31C201.512 151.988 194.189 161.31 178.344 167.745C168.642 171.697 161.13 173.646 155.446 173.646ZM125.927 127.208C125.458 127.839 122.233 132.523 124.323 139.923C125.724 144.82 128.508 149.208 132.34 152.557L132.43 152.656C132.548 152.818 143.708 168.855 148.302 171.291C153.887 174.26 163.616 172.843 178.029 166.987C193.621 160.67 200.81 151.519 204.089 144.976C206.458 140.266 191.64 116.487 186.289 112.976C181.246 109.847 175.324 108.447 169.417 108.988C166.198 109.379 163.009 109.982 159.869 110.792L125.927 127.208Z" fill="#263238"/>
<path d="M166.433 117.509C170.316 103.853 162.413 89.6289 148.782 85.7389C135.151 81.8488 120.952 89.7658 117.069 103.422C113.186 117.078 121.089 131.302 134.72 135.192C148.352 139.082 162.55 131.165 166.433 117.509Z" fill="#D65A31"/>
<path d="M141.7 136.627C134.896 136.614 128.366 133.943 123.498 129.181C118.63 124.419 115.809 117.943 115.634 111.129C115.459 104.315 117.945 97.7019 122.562 92.6958C127.18 87.6898 133.564 84.686 140.358 84.3232C147.152 83.9605 153.82 86.2675 158.942 90.7536C164.064 95.2396 167.237 101.551 167.786 108.344C168.335 115.138 166.217 121.879 161.882 127.132C157.547 132.385 151.337 135.737 144.573 136.474C143.619 136.578 142.66 136.629 141.7 136.627ZM141.799 85.1886C140.872 85.1903 139.946 85.2416 139.024 85.342C132.529 86.0642 126.571 89.2965 122.417 94.3515C118.263 99.4065 116.242 105.885 116.783 112.41C117.323 118.935 120.384 124.992 125.312 129.291C130.241 133.591 136.65 135.794 143.176 135.434C149.701 135.073 155.829 132.176 160.256 127.359C164.682 122.542 167.059 116.185 166.879 109.64C166.7 103.095 163.979 96.8786 159.295 92.3123C154.612 87.7459 148.334 85.1902 141.799 85.1886Z" fill="#263238"/>
<path d="M160.812 121.749C170.723 109.16 168.569 90.9052 156.002 80.9768C143.436 71.0484 125.214 73.2057 115.304 85.7953C105.393 98.3849 107.547 116.639 120.114 126.568C132.68 136.496 150.902 134.339 160.812 121.749Z" fill="#ABABAB"/>
<path d="M138.007 133.261C132.324 133.251 126.766 131.592 122.004 128.486C117.242 125.38 113.479 120.959 111.171 115.757C108.862 110.555 108.106 104.795 108.994 99.1717C109.882 93.5488 112.377 88.3037 116.175 84.07C119.974 79.8362 124.915 76.7948 130.402 75.313C135.889 73.8313 141.686 73.9726 147.095 75.72C152.503 77.4673 157.29 80.7459 160.879 85.1598C164.468 89.5737 166.704 94.9341 167.318 100.594C168.154 108.372 165.871 116.164 160.972 122.257C156.074 128.349 148.96 132.243 141.195 133.081C140.136 133.198 139.072 133.258 138.007 133.261ZM138.079 75.1902C137.043 75.1941 136.009 75.2513 134.98 75.3617C129.371 75.9729 124.069 78.2365 119.744 81.8662C115.419 85.496 112.266 90.329 110.683 95.754C109.1 101.179 109.158 106.953 110.85 112.345C112.542 117.737 115.791 122.505 120.188 126.047C124.585 129.589 129.932 131.745 135.552 132.243C141.172 132.741 146.813 131.558 151.762 128.844C156.711 126.131 160.746 122.008 163.356 116.997C165.966 111.986 167.035 106.312 166.427 100.693C165.66 93.6931 162.345 87.2221 157.115 82.5172C151.885 77.8123 145.108 75.2037 138.079 75.1902Z" fill="#263238"/>
<path d="M157.942 107.885C158.404 106.936 158.603 105.879 158.518 104.826C158.338 102.642 155.897 98.6171 154.915 97.5252C153.933 96.4332 152.33 97.7237 152.33 97.7237L150.528 94.484C149.512 92.5953 148.132 90.9276 146.468 89.5777C144.803 88.2279 142.887 87.2227 140.832 86.6206C138.776 86.0186 136.622 85.8316 134.494 86.0705C132.365 86.3094 130.306 86.9695 128.434 88.0125C126.563 89.0554 124.917 90.4604 123.592 92.1459C122.266 93.8314 121.289 95.7638 120.715 97.8309C120.142 99.8981 119.984 102.059 120.251 104.187C120.518 106.316 121.204 108.371 122.27 110.231L126 116.954L123.91 113.561C123.91 113.561 122 114.22 122.388 115.655C122.775 117.09 124.901 121.295 126.657 122.595C127.557 123.275 128.639 123.671 129.765 123.732L134.692 132.603C136.862 132.846 139.053 132.846 141.223 132.603C145.849 132.1 150.286 130.488 154.158 127.902C158.029 125.316 161.222 121.833 163.464 117.749L157.942 107.885Z" fill="#263238"/>
<path d="M138.089 133.251C136.927 133.253 135.766 133.186 134.612 133.053H134.387L129.468 124.191C128.344 124.077 127.27 123.663 126.36 122.991C124.451 121.574 122.316 117.251 121.929 115.771C121.834 115.245 121.933 114.703 122.206 114.244C122.479 113.784 122.908 113.439 123.415 113.272L121.847 110.456C119.788 106.604 119.322 102.096 120.551 97.9031C121.78 93.7105 124.605 90.1699 128.416 88.0452C132.228 85.9205 136.72 85.382 140.924 86.5459C145.129 87.7097 148.708 90.4827 150.889 94.2665L152.456 97.0731C152.854 96.7806 153.341 96.6352 153.833 96.6615C154.326 96.6878 154.794 96.8843 155.159 97.2175C156.186 98.3094 158.762 102.406 158.915 104.78C159.005 105.835 158.828 106.897 158.402 107.866L163.906 117.793L163.788 118.018C161.505 122.162 158.261 125.696 154.329 128.32C150.397 130.944 145.893 132.583 141.197 133.098C140.164 133.206 139.127 133.257 138.089 133.251ZM134.945 132.178C140.509 132.791 146.13 131.749 151.106 129.181C156.082 126.613 160.192 122.633 162.924 117.739L157.429 107.812L157.537 107.595C157.967 106.723 158.15 105.749 158.068 104.78C157.897 102.713 155.51 98.7877 154.546 97.7589C153.835 96.9919 152.637 97.9484 152.583 97.9936L152.168 98.3275L150.105 94.7177C149.1 92.9111 147.749 91.3205 146.13 90.0369C144.511 88.7532 142.655 87.8016 140.669 87.2364C138.683 86.6712 136.605 86.5034 134.554 86.7427C132.503 86.9819 130.519 87.6235 128.716 88.6309C126.913 89.6382 125.325 90.9915 124.044 92.6135C122.762 94.2355 121.812 96.0945 121.248 98.0843C120.109 102.103 120.609 106.41 122.64 110.059L126.369 116.782L125.595 117.233L123.703 114.174C123.28 114.4 122.604 114.86 122.802 115.582C123.172 116.945 125.243 121.051 126.91 122.278C127.74 122.903 128.737 123.268 129.774 123.325H130.027L134.945 132.178Z" fill="#263238"/>
<path d="M150.32 99.765C148.742 96.9299 146.105 94.8384 142.989 93.95C139.872 93.0616 136.531 93.4491 133.7 95.0273L131.493 96.2546C128.663 97.8353 126.575 100.477 125.688 103.599C124.802 106.721 125.188 110.068 126.764 112.904L137.816 132.758C138.933 132.766 140.048 132.712 141.158 132.595C145.269 132.149 149.236 130.824 152.792 128.709C156.347 126.595 159.408 123.741 161.769 120.34L150.32 99.765Z" fill="white"/>
<path d="M138.088 133.25H137.593L126.405 113.117C124.774 110.174 124.376 106.704 125.296 103.468C126.216 100.231 128.381 97.4929 131.314 95.8532L133.521 94.6259C136.457 92.9929 139.919 92.5936 143.148 93.5157C146.377 94.4378 149.109 96.606 150.744 99.5442L162.338 120.408L162.175 120.643C159.774 124.092 156.663 126.987 153.052 129.132C149.442 131.277 145.414 132.622 141.241 133.078C140.194 133.194 139.141 133.252 138.088 133.25ZM139.665 93.931C137.669 93.9296 135.706 94.4391 133.963 95.411L131.756 96.6474C129.03 98.1677 127.019 100.709 126.162 103.714C125.306 106.719 125.675 109.942 127.189 112.674L138.124 132.347C139.132 132.348 140.14 132.294 141.142 132.185C145.141 131.748 149.002 130.467 152.472 128.428C155.942 126.389 158.942 123.638 161.275 120.354L149.961 99.9863C148.939 98.1491 147.446 96.6189 145.636 95.5542C143.825 94.4896 141.764 93.9292 139.665 93.931Z" fill="#263238"/>
<path d="M136.809 111.866C137.223 112.615 137.196 113.427 136.746 113.671C136.295 113.915 135.593 113.527 135.178 112.769C134.764 112.011 134.791 111.207 135.241 110.964C135.692 110.72 136.349 111.072 136.809 111.866Z" fill="#263238"/>
<path d="M145.925 106.71C146.339 107.459 146.312 108.271 145.862 108.515C145.411 108.759 144.709 108.361 144.285 107.612C143.862 106.863 143.907 106.06 144.357 105.808C144.808 105.555 145.51 105.97 145.925 106.71Z" fill="#263238"/>
<path d="M142.042 116.179L141.664 115.357L145.42 113.625L141.078 108.21L141.781 107.642L146.843 113.968L142.042 116.179Z" fill="#263238"/>
<path d="M148.41 118.633C148.56 118.9 148.626 119.205 148.602 119.509C148.578 119.814 148.465 120.105 148.275 120.344C148.086 120.584 147.831 120.762 147.54 120.856C147.25 120.95 146.939 120.956 146.645 120.872C146.352 120.789 146.09 120.62 145.893 120.387C145.695 120.154 145.571 119.867 145.536 119.564C145.502 119.26 145.558 118.953 145.697 118.682C145.837 118.41 146.054 118.186 146.321 118.038C146.677 117.84 147.097 117.792 147.488 117.904C147.88 118.015 148.211 118.278 148.41 118.633Z" fill="#263238"/>
<path d="M130.828 110.871L129.927 110.664C129.927 110.664 130.737 107.469 134.809 107.198L134.863 108.101C131.476 108.326 130.837 110.844 130.828 110.871Z" fill="#263238"/>
<path d="M141.204 104.294L140.348 104.005C140.348 104.005 141.519 100.594 145.87 101.541L145.681 102.444C142.141 101.65 141.24 104.185 141.204 104.294Z" fill="#263238"/>
<path d="M147.546 129.391C146.123 129.355 144.711 129.146 143.339 128.769L143.582 127.866C145.282 128.348 147.057 128.51 148.816 128.345C150.601 128.037 152.229 127.134 153.437 125.782C154.238 124.354 154.875 122.84 155.337 121.27L156.238 121.549C156.184 121.694 155.067 125.159 154.184 126.305C152.847 127.84 151.02 128.864 149.014 129.202C148.532 129.314 148.04 129.378 147.546 129.391Z" fill="#263238"/>
<path d="M116.739 120.546C116.071 114.536 117.293 108.467 120.235 103.187C123.177 97.9071 127.692 93.6796 133.149 91.0951C138.606 88.5107 144.733 87.6986 150.673 88.7721C156.614 89.8457 162.071 92.7514 166.282 97.0832C165.261 92.7227 163.247 88.658 160.397 85.2072C157.547 81.7564 153.939 79.0129 149.854 77.1915C145.77 75.3701 141.32 74.5202 136.853 74.7082C132.387 74.8962 128.024 76.1171 124.106 78.2752C120.189 80.4334 116.823 83.4704 114.272 87.1485C111.721 90.8267 110.054 95.0463 109.402 99.4772C108.749 103.908 109.129 108.43 110.511 112.69C111.893 116.949 114.241 120.83 117.369 124.03C117.091 122.882 116.88 121.719 116.739 120.546Z" fill="white"/>
<path d="M118.162 125.537L116.991 124.391C113.821 121.142 111.443 117.202 110.044 112.88C108.645 108.558 108.262 103.97 108.926 99.4755C109.59 94.9807 111.282 90.7004 113.87 86.9692C116.459 83.238 119.873 80.1568 123.847 77.9663C127.82 75.7759 132.246 74.5355 136.777 74.3421C141.309 74.1488 145.823 75.0076 149.969 76.8515C154.114 78.6955 157.777 81.4746 160.673 84.9718C163.569 88.469 165.618 92.5896 166.661 97.0116L167.03 98.5908L165.94 97.4267C161.794 93.1747 156.427 90.3242 150.588 89.2721C144.748 88.2201 138.726 89.0189 133.361 91.5574C127.996 94.0959 123.554 98.2475 120.656 103.434C117.757 108.621 116.545 114.584 117.189 120.493C117.318 121.659 117.519 122.817 117.793 123.958L118.162 125.537ZM138.079 75.1909C137.044 75.1942 136.009 75.2515 134.98 75.3623C127.462 76.1911 120.579 79.9731 115.84 85.879C111.102 91.7849 108.895 99.3324 109.704 106.866C110.317 112.689 112.718 118.179 116.577 122.577C116.46 121.91 116.361 121.251 116.298 120.592C115.652 114.637 116.832 108.626 119.682 103.36C122.532 98.0943 126.916 93.8234 132.25 91.1163C137.584 88.4093 143.614 87.3947 149.538 88.2077C155.462 89.0206 160.998 91.6226 165.409 95.667C163.662 89.7602 160.059 84.5764 155.134 80.8869C150.21 77.1974 144.228 75.1996 138.079 75.1909Z" fill="#263238"/>
<path d="M185.875 137.649C193.037 136.869 198.13 129.666 197.251 121.56C196.372 113.454 189.853 107.514 182.692 108.294C175.53 109.073 170.437 116.276 171.316 124.382C172.195 132.489 178.713 138.428 185.875 137.649Z" fill="#D65A31"/>
<path d="M184.614 138.171C177.74 138.171 171.714 132.278 170.867 124.427C170.401 120.515 171.378 116.567 173.615 113.327C174.627 111.803 175.961 110.52 177.523 109.569C179.085 108.619 180.836 108.024 182.653 107.827C184.47 107.629 186.308 107.835 188.037 108.428C189.766 109.022 191.343 109.989 192.658 111.261C195.505 113.971 197.298 117.607 197.717 121.52C198.136 125.433 197.154 129.367 194.946 132.621C193.812 134.327 192.276 135.726 190.474 136.696C188.672 137.666 186.659 138.175 184.614 138.18V138.171ZM183.965 108.671C183.556 108.669 183.147 108.69 182.74 108.734C181.058 108.936 179.439 109.498 177.992 110.381C176.546 111.263 175.305 112.447 174.353 113.851C172.237 116.907 171.314 120.635 171.759 124.328C172.606 132.179 178.966 137.955 185.83 137.206C187.511 137.002 189.129 136.44 190.576 135.557C192.023 134.675 193.264 133.492 194.216 132.089C196.286 129.009 197.202 125.295 196.801 121.603C196.401 117.912 194.709 114.482 192.027 111.919C189.842 109.862 186.964 108.702 183.965 108.671Z" fill="#263238"/>
<path d="M214.277 111.296C208.246 109.922 202.085 109.205 195.901 109.158C184.514 108.887 177.822 109.988 175.66 115.664C173.498 121.34 173.993 130.509 181.01 133.541C184.929 135.229 190.676 134.254 194.865 133.298C199.053 132.341 209.277 128.054 212.538 122.902C215.799 117.749 215.826 113.67 214.277 111.296Z" fill="white"/>
<path d="M186.353 134.877C184.476 134.928 182.608 134.603 180.859 133.921C173.463 130.726 173.157 121.025 175.274 115.466C177.571 109.42 184.597 108.4 195.992 108.671C202.222 108.739 208.427 109.472 214.503 110.855L214.665 110.909L214.764 111.053C216.62 113.941 215.98 118.336 212.963 123.11C209.594 128.524 198.901 132.802 195.01 133.695C192.177 134.408 189.274 134.805 186.353 134.877ZM192.83 109.537C183.696 109.537 178.021 110.783 176.111 115.791C174.121 121.016 174.364 130.131 181.21 133.091C185.074 134.751 190.812 133.731 194.794 132.82C198.577 131.917 208.954 127.784 212.188 122.622C214.891 118.318 215.575 114.248 214.053 111.685C208.096 110.362 202.02 109.654 195.92 109.573C194.821 109.555 193.794 109.537 192.803 109.537H192.83Z" fill="#263238"/>
<path d="M226.23 119.986C226.23 119.986 222.465 113.191 215.421 111.296C208.377 109.401 201.963 114.003 199.044 118.515C196.126 123.028 197.423 124.508 197.423 124.508C197.423 124.508 207.71 119.346 213.034 118.38C218.357 117.415 226.23 119.986 226.23 119.986Z" fill="#D65A31"/>
<path d="M197.333 125.068L197.108 124.806C196.955 124.626 195.676 122.911 198.694 118.273C201.873 113.373 208.521 108.969 215.565 110.864C222.61 112.759 226.465 119.482 226.627 119.762L227.186 120.772L226.096 120.412C226.015 120.412 218.286 117.903 213.142 118.832C207.999 119.762 197.748 124.86 197.649 124.915L197.333 125.068ZM212.169 111.315C206.765 111.315 201.972 114.925 199.45 118.76C197.514 121.729 197.523 123.272 197.649 123.895C199.675 122.902 208.188 118.796 212.962 117.939C217.16 117.181 222.772 118.525 225.177 119.202C223.844 117.28 220.457 113.12 215.313 111.73C214.288 111.454 213.231 111.315 212.169 111.315Z" fill="#263238"/>
<path d="M197.161 129.085C197.161 129.085 195.504 124.338 202.161 118.174C208.817 112.011 221.077 114.231 225.014 118.346C228.95 122.461 228.527 129.716 225.365 133.227C223.645 135.227 221.487 136.802 219.06 137.829C219.06 137.829 212.889 127.253 197.161 129.085Z" fill="white"/>
<path d="M218.88 138.379L218.691 138.055C218.637 137.955 212.44 127.758 197.243 129.536H196.883L196.757 129.193C196.694 128.985 195.09 124.085 201.882 117.804C208.674 111.523 221.051 113.517 225.366 117.984C229.546 122.307 228.969 129.86 225.736 133.479C223.965 135.541 221.738 137.16 219.232 138.208L218.88 138.379ZM200.729 128.453C212.494 128.453 218.124 135.672 219.259 137.296C221.474 136.267 223.45 134.786 225.06 132.947C228.06 129.617 228.564 122.659 224.727 118.688C221.123 114.943 209.224 112.299 202.495 118.535C197.171 123.462 197.342 127.46 197.532 128.624C198.605 128.501 199.685 128.435 200.765 128.426L200.729 128.453Z" fill="#263238"/>
<path d="M191.641 138.414C191.641 138.414 194.19 131.718 197.162 129.083C200.135 126.448 209.125 125.383 215.809 127.693C222.493 130.004 221.313 137.71 220.061 140.12C218.809 142.529 214.98 144.47 214.98 144.47L191.641 138.414Z" fill="white"/>
<path d="M215.061 144.949L191.037 138.722L191.217 138.253C191.325 137.973 193.838 131.395 196.892 128.751C199.945 126.107 208.98 124.843 215.98 127.262C217.077 127.599 218.084 128.18 218.926 128.962C219.768 129.743 220.424 130.704 220.844 131.774C221.845 134.566 221.715 137.64 220.484 140.338C219.186 142.856 215.367 144.796 215.214 144.85L215.061 144.949ZM192.244 138.109L214.953 143.993C215.655 143.614 218.655 141.908 219.691 139.914C220.788 137.445 220.901 134.648 220.006 132.099C219.632 131.153 219.049 130.304 218.302 129.615C217.555 128.926 216.663 128.415 215.691 128.119C209.071 125.836 200.315 126.973 197.477 129.427C195.054 131.539 192.883 136.548 192.244 138.109Z" fill="#263238"/>
<path d="M192.397 137.322C191.357 137.621 190.421 138.206 189.695 139.01C188.443 140.496 186.913 141.722 185.191 142.62C182.488 144.181 179.561 144.244 180.633 147.132C181.705 150.02 185.704 149.613 187.668 149.144C189.632 148.675 190.442 147.953 191.956 146.78C193.469 145.607 194.613 137.521 194.658 137.124C194.703 136.727 192.397 137.322 192.397 137.322Z" fill="white"/>
<path d="M184.911 150.001C183.064 150.001 180.956 149.487 180.182 147.357C179.227 144.785 181.019 144.027 182.884 143.224C183.575 142.946 184.249 142.627 184.902 142.267C186.379 141.52 187.699 140.497 188.793 139.253L189.334 138.694C190.126 137.826 191.147 137.2 192.279 136.889C194.513 136.402 194.792 136.681 194.928 136.817L195.099 136.988V137.304C195.099 137.304 195.099 137.475 195.036 137.683C194.135 143.323 193.189 146.446 192.198 147.222L191.856 147.483C190.688 148.545 189.272 149.296 187.739 149.667C186.812 149.884 185.863 149.996 184.911 150.001ZM192.486 137.764C191.531 138.043 190.671 138.58 190 139.316L189.478 139.876C188.318 141.178 186.928 142.254 185.379 143.053C184.693 143.426 183.986 143.76 183.262 144.054C181.209 144.957 180.398 145.345 181.019 147.041C182.055 149.839 186.262 149.081 187.532 148.774C188.941 148.436 190.24 147.743 191.306 146.761L191.64 146.5C192.009 146.211 192.973 144.776 194.144 137.53C193.586 137.582 193.033 137.669 192.486 137.791V137.764Z" fill="#263238"/>
<path d="M199.558 134.642C199.558 134.642 195.54 133.739 193.567 135.291C191.595 136.844 191.766 143.079 191.919 146.852C192.072 150.624 193.414 153.647 194.856 154.071C195.423 154.297 196.038 154.381 196.646 154.315C197.253 154.249 197.835 154.035 198.342 153.692C198.918 153.123 198.342 147.628 198.72 143.161C199.098 138.694 199.558 134.642 199.558 134.642Z" fill="white"/>
<path d="M196.361 154.809C195.801 154.811 195.244 154.723 194.712 154.548C192.992 153.979 191.632 150.749 191.469 146.868C191.253 141.625 191.325 136.544 193.271 134.947C195.388 133.214 199.468 134.162 199.64 134.207L200.027 134.297L199.982 134.694C199.982 134.694 199.541 138.828 199.144 143.24C198.964 145.334 199 147.689 199.027 149.557C199.027 152.599 199.027 153.618 198.649 154.024C198.011 154.563 197.194 154.843 196.361 154.809ZM196.955 134.812C195.859 134.741 194.771 135.033 193.856 135.642C191.965 137.176 192.253 143.944 192.37 146.832C192.523 150.586 193.856 153.311 194.991 153.69C195.484 153.885 196.014 153.962 196.541 153.915C197.068 153.868 197.577 153.699 198.027 153.42C198.185 152.154 198.224 150.876 198.144 149.602C198.144 147.689 198.081 145.298 198.27 143.168C198.595 139.558 198.946 136.156 199.063 135.046C198.368 134.912 197.663 134.834 196.955 134.812Z" fill="#263238"/>
<path d="M199.558 134.642C198.432 137.49 197.652 140.462 197.234 143.495C196.711 148.007 199.134 154.036 200.071 154.559C201.008 155.082 203.674 154.929 204.26 153.602C204.845 152.276 204.422 147.746 204.494 145.093C204.566 142.439 205.836 136.745 205.647 134.994C205.458 133.244 201.53 133.036 199.558 134.642Z" fill="white"/>
<path d="M201.485 155.298C200.922 155.319 200.362 155.201 199.855 154.955C198.621 154.261 196.252 147.817 196.783 143.44C197.207 140.367 197.996 137.356 199.134 134.47L199.179 134.362L199.269 134.29C200.048 133.705 200.955 133.318 201.915 133.161C202.875 133.004 203.859 133.082 204.782 133.387C205.12 133.493 205.422 133.691 205.654 133.959C205.886 134.226 206.04 134.553 206.097 134.903C206.076 136.676 205.892 138.444 205.548 140.183C205.263 141.802 205.062 143.434 204.944 145.074C204.944 145.913 204.944 146.942 204.989 148.034C205.061 150.461 205.124 152.753 204.674 153.755C204.506 154.067 204.274 154.34 203.995 154.557C203.716 154.775 203.395 154.932 203.053 155.019C202.548 155.193 202.019 155.287 201.485 155.298ZM199.927 134.921C198.847 137.7 198.094 140.595 197.684 143.549C197.161 148.061 199.63 153.782 200.296 154.17C201.097 154.458 201.973 154.458 202.773 154.17C202.997 154.118 203.207 154.022 203.393 153.887C203.579 153.752 203.735 153.582 203.854 153.385C204.224 152.582 204.152 150.182 204.088 148.07C204.088 146.969 204.025 145.922 204.043 145.056C204.158 143.379 204.362 141.711 204.656 140.056C204.981 138.393 205.165 136.706 205.205 135.012C205.16 134.606 204.764 134.362 204.44 134.227C203.684 133.992 202.885 133.933 202.103 134.053C201.321 134.173 200.577 134.47 199.927 134.921Z" fill="#263238"/>
<path d="M205.648 134.994C205.648 134.994 208.053 133.848 209.791 134.795C211.53 135.743 211.944 138.351 211.71 139.641C211.476 140.932 210.656 148.602 210.098 150.47C209.539 152.338 208.125 153.178 206.981 153.087C205.837 152.997 205.044 151.526 204.864 149.902C204.684 148.277 204.495 145.128 204.495 145.128L205.648 134.994Z" fill="white"/>
<path d="M207.187 153.512H206.925C205.439 153.35 204.601 151.59 204.421 149.903C204.241 148.215 204.043 145.138 204.043 145.102L205.268 134.697L205.493 134.588C205.601 134.534 208.124 133.352 210.042 134.399C211.961 135.446 212.429 138.406 212.186 139.723C212.114 140.129 211.97 141.257 211.808 142.557C211.529 145.247 211.114 147.922 210.565 150.57C210.391 151.359 209.969 152.071 209.361 152.6C208.753 153.13 207.99 153.45 207.187 153.512ZM204.944 145.147C204.944 145.147 205.142 148.242 205.313 149.821C205.484 151.401 206.214 152.529 207.025 152.601C207.835 152.673 209.168 151.933 209.673 150.309C210.033 149.108 210.574 145.102 210.871 142.448C211.051 141.077 211.186 139.994 211.267 139.561C211.456 138.505 211.159 136.05 209.574 135.193C208.349 134.525 206.664 135.067 206.07 135.31L204.944 145.147Z" fill="#263238"/>
<path d="M211.7 137.24C213.145 137.566 214.55 138.05 215.889 138.684C216.844 139.334 217.204 141.446 216.546 144.676C215.889 147.907 214.952 149.784 213.457 149.946C211.961 150.109 210.754 148.214 210.754 147.077C210.754 145.94 211.979 139.839 211.7 137.24Z" fill="white"/>
<path d="M213.269 150.407C212.635 150.389 212.031 150.134 211.575 149.694C210.825 149.021 210.367 148.083 210.296 147.077C210.296 146.671 210.431 145.787 210.611 144.559C210.935 142.339 211.44 138.991 211.251 137.34L211.179 136.699L211.809 136.853C213.309 137.184 214.766 137.687 216.151 138.351C217.349 139.181 217.655 141.536 216.989 144.812C216.232 148.521 215.187 150.227 213.503 150.443L213.269 150.407ZM212.188 137.836C212.129 140.136 211.901 142.429 211.503 144.695C211.341 145.787 211.197 146.734 211.197 147.077C211.265 147.826 211.617 148.519 212.179 149.017C212.338 149.178 212.53 149.303 212.741 149.386C212.952 149.468 213.177 149.505 213.404 149.496C214.575 149.369 215.457 147.763 216.106 144.586C216.791 141.211 216.286 139.497 215.638 139.055C214.54 138.513 213.382 138.104 212.188 137.836Z" fill="#263238"/>
<path d="M168.949 139.687C170.976 142.963 170.255 147.087 167.346 148.892C164.436 150.697 160.427 149.506 158.401 146.185C156.374 142.864 157.085 138.785 160.004 136.98C162.923 135.175 166.913 136.402 168.949 139.687Z" fill="#D65A31"/>
<path d="M164.365 150.182C163.079 150.149 161.822 149.791 160.712 149.141C159.602 148.491 158.673 147.57 158.014 146.464C156.988 144.835 156.594 142.886 156.906 140.986C157.045 140.098 157.372 139.249 157.864 138.498C158.356 137.746 159.003 137.108 159.762 136.627C162.887 134.696 167.175 135.959 169.328 139.443C170.352 141.072 170.749 143.019 170.445 144.921C170.305 145.81 169.977 146.658 169.483 147.41C168.989 148.162 168.34 148.799 167.58 149.279C166.614 149.875 165.5 150.188 164.365 150.182ZM162.986 136.645C162.017 136.639 161.065 136.905 160.239 137.412C159.588 137.825 159.032 138.373 158.609 139.019C158.187 139.665 157.907 140.394 157.789 141.157C157.517 142.841 157.873 144.566 158.789 146.003C160.68 149.072 164.41 150.2 167.103 148.53C167.754 148.117 168.31 147.569 168.733 146.923C169.155 146.277 169.435 145.548 169.553 144.785C169.827 143.103 169.474 141.378 168.562 139.939C167.988 138.96 167.176 138.142 166.201 137.563C165.225 136.984 164.12 136.662 162.986 136.627V136.645Z" fill="#263238"/>
<path d="M153.023 150.732C154.446 153.033 153.924 155.921 151.906 157.184C149.888 158.448 147.06 157.617 145.6 155.316C144.141 153.015 144.7 150.127 146.717 148.855C148.735 147.582 151.564 148.431 153.023 150.732Z" fill="#263238"/>
<path d="M166.049 156.23C167.472 158.531 166.95 161.419 164.932 162.682C162.914 163.946 160.086 163.115 158.626 160.814C157.167 158.513 157.726 155.625 159.743 154.353C161.761 153.08 164.635 153.929 166.049 156.23Z" fill="#ABABAB"/>
<path d="M162.831 163.725C162.359 163.722 161.889 163.652 161.435 163.518C160.123 163.099 159.003 162.224 158.277 161.051C157.552 159.878 157.27 158.483 157.481 157.119C157.581 156.479 157.818 155.867 158.175 155.326C158.532 154.785 159.002 154.328 159.552 153.986C160.101 153.643 160.718 153.423 161.36 153.341C162.003 153.259 162.655 153.316 163.273 153.51C164.594 153.917 165.719 154.797 166.435 155.982C167.984 158.491 167.417 161.659 165.165 163.057C164.464 163.493 163.656 163.724 162.831 163.725ZM161.877 154.214C161.221 154.207 160.577 154.389 160.021 154.737C159.578 155.014 159.2 155.384 158.914 155.822C158.628 156.26 158.44 156.755 158.364 157.273C158.181 158.424 158.416 159.603 159.025 160.596C159.635 161.589 160.579 162.331 161.687 162.687C162.184 162.847 162.708 162.898 163.225 162.837C163.743 162.776 164.241 162.605 164.687 162.335C166.489 161.198 166.957 158.581 165.669 156.497C165.07 155.503 164.127 154.765 163.021 154.421C162.652 154.295 162.266 154.225 161.877 154.214Z" fill="#263238"/>
</svg>
