<svg width="360" height="435" viewBox="0 0 360 435" fill="none" xmlns="http://www.w3.org/2000/svg">
<path d="M73.7311 379.612C74.6873 379.695 75.5294 378.987 75.6121 378.031C75.6948 377.075 74.9868 376.232 74.0306 376.15C73.0744 376.067 72.2323 376.775 72.1496 377.731C72.0669 378.687 72.775 379.53 73.7311 379.612Z" fill="#D65A31"/>
<path d="M97 434.076V403.309H108.13V405.547H99.9229V417.085H106.615V419.216H99.9229V431.9H108.207V434.069L97 434.076Z" fill="#B2B2B2"/>
<path d="M112.161 434.076V403.308H119.084C120.651 403.227 122.213 403.548 123.622 404.239C124.701 404.837 125.539 405.791 125.991 406.939C126.504 408.278 126.749 409.705 126.714 411.138C126.722 412.224 126.595 413.307 126.337 414.361C126.116 415.313 125.673 416.198 125.045 416.946C124.367 417.693 123.456 418.189 122.461 418.354L127.176 434.084H124.361L119.868 418.923H115.046V434.076H112.161ZM115.046 416.823H118.961C120.001 416.881 121.037 416.658 121.961 416.177C122.682 415.746 123.228 415.072 123.499 414.277C123.835 413.263 123.991 412.198 123.961 411.131C124.065 409.643 123.719 408.158 122.968 406.869C122.315 405.939 121.007 405.47 119.061 405.47H115.069L115.046 416.823Z" fill="#B2B2B2"/>
<path d="M131.606 434.075V403.307H138.529C140.099 403.229 141.663 403.549 143.075 404.238C144.154 404.836 144.992 405.79 145.444 406.938C145.957 408.277 146.202 409.704 146.167 411.138C146.175 412.224 146.048 413.306 145.79 414.361C145.569 415.312 145.126 416.197 144.498 416.945C143.82 417.692 142.909 418.188 141.914 418.353L146.621 434.083H143.814L139.321 418.922H134.499V434.075H131.606ZM134.499 416.822H138.414C139.454 416.879 140.49 416.656 141.414 416.176C142.135 415.745 142.681 415.072 142.952 414.276C143.288 413.262 143.444 412.198 143.414 411.13C143.518 409.642 143.172 408.157 142.421 406.869C141.76 405.938 140.46 405.469 138.506 405.469H134.522L134.499 416.822Z" fill="#B2B2B2"/>
<path d="M158.321 434.453C156.647 434.545 154.985 434.13 153.551 433.261C152.39 432.448 151.534 431.27 151.121 429.915C150.626 428.321 150.387 426.66 150.413 424.992V412.231C150.385 410.57 150.645 408.918 151.182 407.346C151.626 406.032 152.495 404.904 153.651 404.139C155.108 403.39 156.722 403 158.359 403C159.996 403 161.61 403.39 163.066 404.139C164.222 404.901 165.086 406.032 165.52 407.346C166.033 408.922 166.278 410.574 166.243 412.231V425.03C166.269 426.69 166.033 428.344 165.543 429.93C165.128 431.276 164.279 432.447 163.128 433.261C161.684 434.138 160.007 434.554 158.321 434.453ZM158.321 432.145C159.42 432.22 160.514 431.934 161.436 431.33C162.167 430.746 162.682 429.933 162.897 429.022C163.178 427.911 163.313 426.768 163.297 425.622V411.7C163.313 410.559 163.179 409.421 162.897 408.315C162.679 407.429 162.163 406.645 161.436 406.093C160.479 405.582 159.412 405.315 158.328 405.315C157.244 405.315 156.177 405.582 155.221 406.093C154.482 406.638 153.957 407.424 153.736 408.315C153.457 409.422 153.325 410.559 153.344 411.7V425.638C153.326 426.783 153.458 427.926 153.736 429.038C153.954 429.954 154.477 430.768 155.221 431.345C156.141 431.938 157.229 432.216 158.321 432.138V432.145Z" fill="#B2B2B2"/>
<path d="M171.004 434.076V403.308H177.927C179.494 403.227 181.056 403.548 182.465 404.239C183.544 404.84 184.383 405.793 184.842 406.939C185.351 408.279 185.596 409.705 185.565 411.138C185.569 412.224 185.443 413.306 185.188 414.361C184.964 415.311 184.521 416.196 183.896 416.946C183.217 417.692 182.307 418.187 181.312 418.354L186.019 434.084H183.212L178.719 418.923H173.897V434.076H171.004ZM173.897 416.823H177.804C178.844 416.881 179.88 416.658 180.804 416.177C181.525 415.745 182.07 415.072 182.342 414.277C182.674 413.262 182.828 412.198 182.796 411.131C182.902 409.644 182.559 408.159 181.812 406.869C181.15 405.939 179.85 405.47 177.896 405.47H173.912L173.897 416.823Z" fill="#B2B2B2"/>
<path d="M198.211 434.076V403.308H205.58C207.096 403.228 208.604 403.583 209.926 404.331C210.973 405.008 211.767 406.011 212.187 407.185C212.669 408.563 212.901 410.017 212.872 411.477C212.887 412.844 212.649 414.203 212.172 415.484C211.727 416.682 210.921 417.712 209.864 418.43C208.597 419.215 207.123 419.599 205.634 419.53H201.103V434.076H198.211ZM201.103 417.384H204.788C205.824 417.423 206.856 417.234 207.811 416.831C208.588 416.452 209.193 415.792 209.503 414.984C209.9 413.865 210.08 412.679 210.033 411.492C210.078 410.252 209.922 409.014 209.572 407.823C209.451 407.426 209.248 407.059 208.976 406.745C208.705 406.431 208.371 406.177 207.995 406C206.985 405.616 205.906 405.443 204.826 405.493H201.103V417.384Z" fill="#B2B2B2"/>
<path d="M213.326 434.076L219.825 403.309H222.902L229.44 434.076H226.587L225.048 425.831H217.71L216.172 434.076H213.326ZM218.118 423.738H224.648L221.341 407.139L218.118 423.738Z" fill="#B2B2B2"/>
<path d="M240.001 434.491C238.395 434.58 236.802 434.154 235.455 433.276C234.329 432.414 233.518 431.206 233.147 429.838C232.663 428.166 232.432 426.432 232.463 424.692V412.685C232.432 410.951 232.655 409.223 233.124 407.554C233.51 406.201 234.339 405.017 235.478 404.193C236.882 403.439 238.445 403.031 240.038 403.002C241.631 402.972 243.208 403.322 244.639 404.023C245.722 404.737 246.535 405.793 246.947 407.023C247.461 408.578 247.703 410.209 247.662 411.846V412.915H244.947V411.846C244.972 410.619 244.838 409.393 244.547 408.2C244.347 407.342 243.858 406.579 243.162 406.039C242.285 405.497 241.26 405.244 240.232 405.316C239.106 405.234 237.988 405.555 237.078 406.223C236.345 406.877 235.857 407.762 235.693 408.731C235.466 409.933 235.358 411.154 235.37 412.377V425.03C235.346 426.324 235.48 427.615 235.77 428.876C235.972 429.833 236.496 430.691 237.255 431.307C238.157 431.924 239.241 432.22 240.332 432.145C241.349 432.255 242.369 431.974 243.187 431.36C244.005 430.746 244.56 429.845 244.739 428.838C245.037 427.578 245.177 426.286 245.155 424.992V421.384H240.601V419.223H247.816V434.076H245.955L245.616 430.576C245.285 431.693 244.629 432.686 243.732 433.43C242.649 434.206 241.33 434.582 240.001 434.491Z" fill="#B2B2B2"/>
<path d="M252.762 434.076V403.309H263.892V405.547H255.716V417.085H262.408V419.216H255.716V431.9H264V434.069L252.762 434.076Z" fill="#B2B2B2"/>
<path d="M283.322 44.4424C285.709 44.4424 287.643 42.5079 287.643 40.1216C287.643 37.7353 285.709 35.8008 283.322 35.8008C280.936 35.8008 279.001 37.7353 279.001 40.1216C279.001 42.5079 280.936 44.4424 283.322 44.4424Z" fill="#FF9C91"/>
<path d="M355.679 117.564C358.066 117.564 360 115.63 360 113.244C360 110.857 358.066 108.923 355.679 108.923C353.293 108.923 351.358 110.857 351.358 113.244C351.358 115.63 353.293 117.564 355.679 117.564Z" fill="#B2B2B2"/>
<path d="M56.9253 322.421C59.3116 322.421 61.2461 320.486 61.2461 318.1C61.2461 315.714 59.3116 313.779 56.9253 313.779C54.539 313.779 52.6045 315.714 52.6045 318.1C52.6045 320.486 54.539 322.421 56.9253 322.421Z" fill="#FF9C91"/>
<path d="M320.127 318.672C322.514 318.672 324.448 316.737 324.448 314.351C324.448 311.965 322.514 310.03 320.127 310.03C317.741 310.03 315.807 311.965 315.807 314.351C315.807 316.737 317.741 318.672 320.127 318.672Z" fill="#B2B2B2"/>
<path d="M178.259 2.46904C178.259 2.95736 178.115 3.43473 177.843 3.84076C177.572 4.24679 177.186 4.56325 176.735 4.75013C176.284 4.937 175.788 4.9859 175.309 4.89063C174.83 4.79536 174.39 4.56021 174.044 4.21491C173.699 3.86961 173.464 3.42967 173.369 2.95072C173.273 2.47177 173.322 1.97533 173.509 1.52418C173.696 1.07302 174.013 0.687407 174.419 0.416106C174.825 0.144805 175.302 0 175.79 0C176.445 0 177.073 0.26013 177.536 0.723164C177.999 1.1862 178.259 1.81421 178.259 2.46904Z" fill="#B2B2B2"/>
<path d="M6.44825 155.88C8.83457 155.88 10.7691 153.945 10.7691 151.559C10.7691 149.173 8.83457 147.238 6.44825 147.238C4.06193 147.238 2.12744 149.173 2.12744 151.559C2.12744 153.945 4.06193 155.88 6.44825 155.88Z" fill="#FF9C91"/>
<path d="M318.063 45.4934C319.248 45.4934 320.209 44.5323 320.209 43.3468C320.209 42.1613 319.248 41.2002 318.063 41.2002C316.877 41.2002 315.916 42.1613 315.916 43.3468C315.916 44.5323 316.877 45.4934 318.063 45.4934Z" fill="#B2B2B2"/>
<path d="M29.4264 291.373C30.6119 291.373 31.573 290.412 31.573 289.227C31.573 288.041 30.6119 287.08 29.4264 287.08C28.2408 287.08 27.2798 288.041 27.2798 289.227C27.2798 290.412 28.2408 291.373 29.4264 291.373Z" fill="#F1C9C9"/>
<path d="M346.042 273.704C347.228 273.704 348.189 272.743 348.189 271.558C348.189 270.372 347.228 269.411 346.042 269.411C344.857 269.411 343.896 270.372 343.896 271.558C343.896 272.743 344.857 273.704 346.042 273.704Z" fill="#CD3F3E"/>
<path d="M148.557 330.74C148.559 331.165 148.435 331.581 148.2 331.935C147.965 332.289 147.631 332.566 147.239 332.73C146.847 332.894 146.415 332.937 145.998 332.856C145.581 332.774 145.197 332.57 144.896 332.27C144.595 331.97 144.39 331.588 144.306 331.171C144.223 330.755 144.264 330.323 144.427 329.93C144.589 329.537 144.864 329.201 145.217 328.965C145.57 328.729 145.986 328.603 146.411 328.603C146.978 328.603 147.523 328.827 147.925 329.228C148.328 329.629 148.555 330.172 148.557 330.74Z" fill="#CD3F3E"/>
<path d="M38.6945 255.058C38.6945 255.482 38.5686 255.897 38.3328 256.25C38.0969 256.603 37.7617 256.878 37.3694 257.041C36.9772 257.203 36.5456 257.246 36.1292 257.163C35.7128 257.08 35.3303 256.876 35.0301 256.576C34.7299 256.275 34.5254 255.893 34.4426 255.477C34.3598 255.06 34.4023 254.628 34.5648 254.236C34.7272 253.844 35.0024 253.509 35.3554 253.273C35.7084 253.037 36.1234 252.911 36.5479 252.911C37.1165 252.914 37.6611 253.141 38.0631 253.543C38.4652 253.945 38.6921 254.489 38.6945 255.058Z" fill="#B2B2B2"/>
<path d="M127.469 357.882C127.469 358.306 127.344 358.722 127.108 359.075C126.872 359.428 126.537 359.703 126.144 359.865C125.752 360.028 125.32 360.07 124.904 359.987C124.488 359.904 124.105 359.7 123.805 359.4C123.505 359.1 123.3 358.717 123.218 358.301C123.135 357.884 123.177 357.453 123.34 357.06C123.502 356.668 123.777 356.333 124.13 356.097C124.483 355.861 124.898 355.735 125.323 355.735C125.605 355.734 125.885 355.789 126.146 355.896C126.407 356.004 126.644 356.162 126.843 356.361C127.043 356.561 127.201 356.798 127.309 357.059C127.416 357.32 127.471 357.6 127.469 357.882Z" fill="#B2B2B2"/>
<path d="M250.967 12.3087C250.967 12.7333 250.841 13.1483 250.605 13.5013C250.369 13.8543 250.034 14.1294 249.641 14.2919C249.249 14.4544 248.818 14.4969 248.401 14.414C247.985 14.3312 247.602 14.1268 247.302 13.8266C247.002 13.5264 246.797 13.1439 246.715 12.7275C246.632 12.3111 246.674 11.8795 246.837 11.4872C246.999 11.095 247.274 10.7597 247.627 10.5239C247.98 10.288 248.395 10.1621 248.82 10.1621C249.389 10.1621 249.935 10.3883 250.338 10.7908C250.74 11.1934 250.967 11.7394 250.967 12.3087Z" fill="#CD3F3E"/>
<path d="M254.67 246.81C254.67 247.234 254.544 247.649 254.308 248.002C254.072 248.355 253.737 248.63 253.345 248.793C252.953 248.955 252.521 248.998 252.105 248.915C251.688 248.832 251.306 248.628 251.006 248.328C250.705 248.027 250.501 247.645 250.418 247.228C250.335 246.812 250.378 246.38 250.54 245.988C250.703 245.596 250.978 245.261 251.331 245.025C251.684 244.789 252.099 244.663 252.524 244.663C252.806 244.662 253.085 244.717 253.346 244.824C253.607 244.931 253.845 245.09 254.044 245.289C254.244 245.489 254.402 245.726 254.509 245.987C254.617 246.248 254.671 246.527 254.67 246.81Z" fill="#B2B2B2"/>
<path d="M353.145 163.445C353.145 163.87 353.019 164.286 352.782 164.639C352.546 164.992 352.21 165.267 351.817 165.429C351.425 165.592 350.993 165.634 350.576 165.55C350.159 165.466 349.777 165.261 349.477 164.96C349.177 164.659 348.973 164.276 348.892 163.859C348.81 163.442 348.854 163.01 349.018 162.618C349.182 162.225 349.458 161.891 349.812 161.656C350.167 161.421 350.582 161.297 351.007 161.299C351.575 161.301 352.119 161.529 352.519 161.931C352.92 162.333 353.145 162.878 353.145 163.445Z" fill="#B2B2B2"/>
<path d="M2.14659 247.778C3.33211 247.778 4.29317 246.817 4.29317 245.631C4.29317 244.445 3.33211 243.484 2.14659 243.484C0.961061 243.484 0 244.445 0 245.631C0 246.817 0.961061 247.778 2.14659 247.778Z" fill="#CD3F3E"/>
<path d="M193.23 344.991C194.415 344.991 195.376 344.03 195.376 342.845C195.376 341.659 194.415 340.698 193.23 340.698C192.044 340.698 191.083 341.659 191.083 342.845C191.083 344.03 192.044 344.991 193.23 344.991Z" fill="#B2B2B2"/>
<path d="M115.455 261.329C116.64 261.329 117.601 260.368 117.601 259.183C117.601 257.997 116.64 257.036 115.455 257.036C114.269 257.036 113.308 257.997 113.308 259.183C113.308 260.368 114.269 261.329 115.455 261.329Z" fill="#CD3F3E"/>
<path d="M258.41 85.9552C258.41 86.3801 258.284 86.7955 258.048 87.1487C257.812 87.5019 257.476 87.7771 257.083 87.9393C256.69 88.1014 256.258 88.1434 255.842 88.0598C255.425 87.9763 255.042 87.7709 254.743 87.4698C254.443 87.1687 254.239 86.7853 254.157 86.3683C254.076 85.9513 254.119 85.5194 254.283 85.1273C254.447 84.7353 254.724 84.4007 255.078 84.1659C255.432 83.9311 255.848 83.8068 256.273 83.8086C256.554 83.8086 256.833 83.8642 257.093 83.9722C257.353 84.0802 257.589 84.2384 257.788 84.4379C257.986 84.6373 258.143 84.8741 258.25 85.1344C258.357 85.3948 258.412 85.6737 258.41 85.9552Z" fill="#FF9C91"/>
<path d="M67.7414 328.337V284.055H14V257.804L60.8413 148.123H96.5938V259.581H115.024V284.055H96.6118V328.337H67.7414ZM39.7537 259.581H67.7414V181.269L39.7537 259.581ZM178.116 331C167.606 331 158.899 328.777 151.993 324.331C145.104 319.864 139.701 313.442 136.472 305.885C132.995 298.016 131.256 288.968 131.256 278.74V198.848C131.256 188.32 132.923 179.088 136.256 171.153C139.325 163.524 144.674 157.034 151.569 152.572C158.451 148.12 167.297 145.894 178.107 145.894C188.916 145.894 197.762 148.12 204.644 152.572C211.535 157.039 216.883 163.528 219.958 171.153C223.291 179.088 224.957 188.32 224.957 198.848V278.722C224.957 288.949 223.215 297.998 219.732 305.867C216.503 313.434 211.092 319.863 204.194 324.331C197.318 328.783 188.625 331.006 178.116 331ZM178.116 304.531C182.704 304.531 186.109 303.121 188.331 300.299C190.624 297.303 192.149 293.789 192.772 290.065C193.5 286.176 193.871 282.228 193.88 278.271V199.29C193.881 195.155 193.547 191.026 192.88 186.945C192.348 183.182 190.856 179.619 188.547 176.603C186.331 173.788 182.854 172.377 178.116 172.371C173.378 172.365 169.897 173.776 167.676 176.603C165.386 179.626 163.91 183.187 163.388 186.945C162.721 191.026 162.387 195.155 162.388 199.29V278.271C162.397 282.234 162.807 286.186 163.613 290.065C164.3 293.789 165.859 297.296 168.162 300.299C170.384 303.127 173.702 304.537 178.116 304.531ZM298.264 328.337V284.055H244.513V257.804L291.355 148.123H327.107V259.581H345.546V284.055H327.125V328.337H298.264ZM270.276 259.581H298.264V181.269L270.276 259.581Z" fill="#CD3F3E" stroke="#263238" stroke-width="1.01325" stroke-miterlimit="10"/>
<path d="M355.11 246.623C351.864 250.252 347.579 252.796 342.838 253.908C337.641 255.076 332.216 254.696 327.232 252.815C322.253 250.959 318.164 247.614 314.278 244.052C310.57 240.641 306.964 237.032 302.585 234.474C298.177 231.95 293.146 230.723 288.071 230.934C282.746 231.167 277.53 232.518 272.76 234.898C267.836 237.275 263.114 240.266 257.417 239.822C251.719 239.378 246.576 236.259 241.545 233.742C236.962 231.451 231.687 229.312 226.454 230.054C225.276 230.21 224.127 230.532 223.039 231.011C222.928 231.059 223.035 231.351 223.125 231.302C228.485 229.28 234.138 230.834 239.162 233.101C244.186 235.367 249.097 238.633 254.664 239.916C257.253 240.55 259.953 240.585 262.557 240.019C265.194 239.314 267.732 238.281 270.112 236.945C272.556 235.636 275.089 234.498 277.691 233.541C280.363 232.595 283.134 231.96 285.951 231.647C291.413 230.99 296.945 232.023 301.802 234.604C306.184 237.042 309.729 240.621 313.398 244.01C317.066 247.4 320.856 250.711 325.462 252.742C330.196 254.844 335.411 255.624 340.553 254.999C346.953 254.141 352.771 250.834 356.782 245.774C356.972 245.056 357.161 244.338 357.341 243.61C356.683 244.674 355.937 245.682 355.11 246.623Z" fill="#141D27"/>
<path d="M197.729 244.412C215.708 244.645 230.473 230.258 230.706 212.279C230.939 194.299 216.553 179.535 198.573 179.301C180.594 179.068 165.829 193.454 165.596 211.434C165.362 229.414 179.749 244.178 197.729 244.412Z" fill="#141D27"/>
<path opacity="0.6" d="M197.729 244.412C215.708 244.645 230.473 230.258 230.706 212.279C230.939 194.299 216.553 179.535 198.573 179.301C180.594 179.068 165.829 193.454 165.596 211.434C165.362 229.414 179.749 244.178 197.729 244.412Z" fill="#141D27"/>
<path d="M208.645 242.211C211.083 247.096 232.249 262.34 236.417 261.103C244.393 258.745 251.347 254.883 257.365 255.371C261.963 255.771 270.333 258.471 269.909 262.588C269.486 266.706 266.981 267.694 263.335 267.977C258.718 268.327 255.201 267.111 252.997 268.133C250.792 269.155 238.559 276.501 232.141 276.788C225.723 277.075 210.466 272.244 207.353 269.272C204.24 266.299 208.645 242.211 208.645 242.211Z" fill="#141D27"/>
<path d="M126.752 331.756C124.266 328.192 129.36 321.243 131.009 318.263C132.157 316.176 134.228 313.922 134.419 311.543C134.679 308.424 132.751 305.107 131.122 302.614C128.179 298.113 124.757 293.446 125.111 287.787C125.109 287.277 125.228 286.775 125.46 286.321C125.8 285.837 126.26 285.449 126.795 285.197C131.785 282.348 137.531 281.105 143.252 281.638C144.178 281.668 145.085 281.909 145.904 282.343C146.898 282.916 149.468 281.439 150.026 282.397C153.49 288.445 153.882 297.596 155.033 304.475C155.664 308.266 155.72 311.729 153.368 314.85C151.189 317.744 141.513 325.423 141.184 328.421C140.717 331.997 140.951 331.76 143.176 334.561L145.499 337.493C146.66 338.73 147.488 340.242 147.904 341.887C148.034 342.824 147.823 343.776 147.309 344.57C146.796 345.365 146.014 345.948 145.106 346.213C144.779 346.32 144.443 346.396 144.102 346.44C141.587 346.758 139.033 345.374 137.131 343.908C133.624 341.201 129.227 335.31 126.752 331.756Z" fill="#141D27"/>
<path d="M111.889 257.987C98.153 250.804 82.8374 255.118 74.7 250.66C63.4026 244.51 64.9235 232.942 62.7611 229.942C60.5986 226.942 55.7152 233.133 60.396 244.871C63.9041 253.672 70.6998 258.963 79.995 261.335C88.5522 263.508 103.448 263.761 108.909 269.395L111.889 257.987Z" fill="#141D27"/>
<path d="M90.6568 327.325C88.8505 321.548 106.956 311.226 106.684 305.219C101.12 277.479 98.3802 268.818 106.152 255.971C111.796 246.628 120.79 242.922 137.826 242.503C147.205 242.264 173.183 243.702 176.471 229.386C191.516 222.777 212.089 219.701 210.421 231.067C208.96 241.054 212.524 247.875 210.717 259.889C207.435 281.49 183.65 288.446 162.023 287.926C146.468 287.564 137.573 289.049 133.814 291.122C133.624 293.391 130.766 308.513 128.961 311.902C126.909 315.788 124.051 317.082 121.112 319.185C118.172 321.288 106.648 325.712 105.371 328.457C103.858 331.729 104.15 331.573 105.438 334.902L106.763 338.401C107.493 339.932 107.816 341.625 107.7 343.316C107.542 344.249 107.053 345.094 106.323 345.696C105.593 346.298 104.671 346.618 103.725 346.597C103.39 346.611 103.055 346.587 102.726 346.524C100.23 346.071 98.2051 344.024 96.7802 342.014C94.385 338.441 91.944 331.455 90.6568 327.325Z" fill="#141D27"/>
<path d="M208.992 263.219C208.557 263.633 207.979 264.206 207.442 263.909C207.279 263.805 207.138 263.67 207.028 263.51C206.918 263.35 206.842 263.17 206.804 262.98C206.434 261.742 205.761 260.615 204.845 259.703C203.856 258.809 202.367 258.67 201.649 260.011C201.418 260.508 201.298 261.05 201.298 261.598C201.198 265.797 202.45 269.917 204.868 273.352C204.889 273.332 204.906 273.308 204.919 273.282C207.417 270.199 209.2 266.599 210.139 262.743C209.709 262.744 209.297 262.915 208.992 263.219Z" fill="#141D27"/>
<path d="M136.941 289.892C136.699 286.176 135.79 280.621 131.398 276.691C133.915 281.054 134.772 286.178 133.813 291.122C134.809 290.602 135.857 290.189 136.941 289.892Z" fill="#141D27"/>
<path d="M192.467 249.716C192.848 255.815 208.004 280.747 212.83 281.29C222.073 282.33 230.92 281.395 236.883 284.554C241.455 286.965 248.866 293.385 246.662 297.449C244.458 301.513 241.417 301.433 237.542 300.132C232.64 298.478 229.544 295.696 226.821 295.781C224.099 295.865 208.309 298.112 201.578 295.613C194.846 293.114 181.238 281.47 179.334 277.053C177.43 272.635 192.467 249.716 192.467 249.716Z" fill="#141D27"/>
<path d="M176.412 273.974C176.412 273.974 178.772 281.059 183.384 285.721C184.388 285.474 185.322 285.206 186.266 284.918C182.018 280.701 176.412 273.974 176.412 273.974Z" fill="#141D27"/>
<path d="M174.289 234.001C172.234 232.693 169.84 235.224 170.866 237.118C171.892 239.013 176.951 246.253 188.365 248.852C200.337 251.589 209.321 247.854 211.036 246.775C212.973 245.559 212.224 241.607 210.458 242.015C205.672 243.744 198.098 245.236 191.353 243.768C184.608 242.3 178.793 238.472 174.289 234.001Z" fill="#141D27"/>
<path opacity="0.1" d="M174.289 234.001C172.234 232.693 169.84 235.224 170.866 237.118C171.892 239.013 176.951 246.253 188.365 248.852C200.337 251.589 209.321 247.854 211.036 246.775C212.973 245.559 212.224 241.607 210.458 242.015C205.672 243.744 198.098 245.236 191.353 243.768C184.608 242.3 178.793 238.472 174.289 234.001Z" fill="#141D27"/>
<path opacity="0.1" d="M180.558 242.047C185.788 243.846 191.15 245.467 196.67 245.738C201.801 246.123 206.922 244.88 211.306 242.186C211.186 242.096 211.048 242.034 210.901 242.004C210.754 241.974 210.603 241.978 210.457 242.015C205.672 243.744 198.098 245.237 191.353 243.768C184.607 242.3 178.794 238.432 174.289 233.991C172.234 232.683 169.84 235.214 170.866 237.108C171.707 238.65 175.223 243.739 182.656 246.978L182.001 246.519C180.658 245.754 179.508 244.691 178.639 243.413C178.455 243.143 178.378 242.814 178.421 242.49C178.581 241.701 179.761 241.777 180.558 242.047Z" fill="#141D27"/>
<path d="M206.359 194.702C210.584 196.838 214.817 199.085 218.267 202.321C220.437 204.294 222.165 206.704 223.339 209.392C223.931 210.526 224.214 211.796 224.162 213.075C224.041 213.904 224.121 216.176 222.776 215.768C222.462 215.65 222.175 215.469 221.932 215.237C220.22 213.736 218.328 212.454 216.298 211.422C214.239 210.484 211.908 210.434 209.892 209.277C207.876 207.962 206.163 206.235 204.864 204.209C203.371 202.108 200.737 199.152 200.381 196.546C199.915 193.148 204.499 193.778 206.359 194.702Z" fill="#141D27"/>
<path d="M193.239 197.864C199.487 195.233 201.683 196.483 204.731 197.493C207.296 198.417 209.627 199.892 211.56 201.814C213.152 203.286 213.422 207.162 214.217 208.303C215.013 209.444 219.072 211.248 220.658 213.199C222.244 215.151 222.085 217.38 222.363 220.616C222.504 221.453 222.397 222.314 222.057 223.091C221.716 223.869 221.156 224.53 220.445 224.994C219.949 226.971 218.735 228.692 217.04 229.823C214.276 231.568 209.46 231.005 209.46 231.005C209.46 231.005 208.306 233.572 203.652 233.652C196.826 233.783 196.501 234.92 192.762 234.691C186.242 234.307 184.945 231.698 180.972 227.124C176.999 222.549 175.407 217.245 179.687 208.985C183.053 202.505 188.048 200.058 193.239 197.864Z" fill="#141D27"/>
<path d="M208.694 224.52C208.746 224.578 208.774 224.654 208.773 224.731C208.772 224.809 208.742 224.884 208.688 224.941C208.66 224.969 208.626 224.991 208.589 225.006C208.552 225.022 208.512 225.029 208.472 225.029C208.432 225.028 208.392 225.019 208.355 225.003C208.319 224.987 208.286 224.964 208.258 224.935C208.206 224.877 208.178 224.802 208.179 224.724C208.18 224.646 208.21 224.571 208.263 224.515C208.292 224.486 208.326 224.464 208.363 224.449C208.4 224.434 208.44 224.426 208.48 224.427C208.52 224.427 208.559 224.436 208.596 224.452C208.633 224.468 208.666 224.491 208.694 224.52Z" fill="#141D27"/>
<path d="M211.062 223.23C211.102 223.273 211.129 223.327 211.139 223.385C211.15 223.443 211.142 223.503 211.119 223.557C211.095 223.611 211.056 223.657 211.006 223.689C210.957 223.721 210.899 223.738 210.84 223.737C210.781 223.736 210.723 223.718 210.675 223.685C210.626 223.652 210.588 223.605 210.566 223.55C210.543 223.495 210.538 223.435 210.549 223.377C210.561 223.32 210.59 223.267 210.631 223.225C210.691 223.172 210.768 223.143 210.847 223.145C210.927 223.146 211.003 223.176 211.062 223.23Z" fill="#141D27"/>
<path d="M210.934 226.161C211.1 226.163 211.236 226.03 211.238 225.865C211.24 225.699 211.107 225.563 210.942 225.561C210.776 225.558 210.64 225.691 210.638 225.857C210.636 226.023 210.768 226.159 210.934 226.161Z" fill="#141D27"/>
<path d="M216.065 224.817C216.254 224.504 216.479 224.215 216.736 223.955C216.962 223.705 217.166 223.437 217.347 223.153C217.401 223.075 217.474 223.014 217.559 222.975C217.618 222.952 217.681 222.94 217.745 222.941C217.809 222.941 217.871 222.955 217.93 222.98C218.644 223.241 219.315 223.611 219.917 224.077C219.917 224.077 219.917 224.077 219.916 224.137C219.915 224.197 219.916 224.137 219.915 224.197C219.492 224.78 218.936 225.255 218.293 225.58C217.651 225.906 216.939 226.074 216.218 226.07C215.928 226.066 215.398 226.059 215.533 225.671C215.678 225.367 215.856 225.081 216.065 224.817Z" fill="#141D27"/>
<path d="M209.459 231.094C209 232.509 209.175 235.983 209.446 240.52C207.832 241.57 198.454 244.06 190.966 241.971C184.961 240.478 179.422 237.514 174.848 233.347C177.837 228.893 179.012 212.387 179.012 212.387L209.459 231.094Z" fill="#141D27"/>
<path opacity="0.1" d="M200.721 209.738C200.13 209.078 199.367 208.597 198.517 208.348C197.239 208.112 196.037 209.006 195.184 209.976C193.953 211.254 193.221 212.931 193.121 214.702C193.11 214.891 193.153 215.079 193.244 215.244C193.353 215.39 193.506 215.497 193.681 215.55C194.598 215.846 195.591 215.809 196.484 215.446C197.374 215.092 198.291 214.81 199.227 214.601C200.891 214.363 202.484 214.984 204.069 215.415C204.806 215.739 205.612 215.877 206.415 215.815C207.119 215.574 206.947 214.932 206.503 214.476C204.715 212.711 202.57 211.413 200.721 209.738Z" fill="#141D27"/>
<path opacity="0.1" d="M214.218 208.303C213.54 207.293 213.448 205.931 213.082 204.826C212.716 203.72 211.028 203.528 210.027 203.505C209.7 203.46 209.366 203.485 209.049 203.579C208.732 203.673 208.438 203.834 208.189 204.052C207.992 204.33 207.875 204.657 207.849 204.996C207.824 205.336 207.891 205.677 208.044 205.981C208.8 207.872 211.015 208.381 212.791 208.744L213.789 208.928L215.217 209.196C214.822 208.976 214.481 208.671 214.218 208.303Z" fill="#141D27"/>
<path d="M197.543 209.317C197.411 209.193 197.254 209.098 197.082 209.038C196.911 208.979 196.728 208.957 196.547 208.974C195.486 209.147 194.535 209.728 193.898 210.593C193.26 211.458 192.986 212.538 193.135 213.603C193.349 214.826 194.531 214.762 195.533 214.634C196.232 214.566 196.889 214.268 197.402 213.788C197.915 213.308 198.255 212.672 198.37 211.98C198.428 211.503 198.384 211.019 198.242 210.56C198.099 210.101 197.861 209.677 197.543 209.317Z" fill="#141D27"/>
<path d="M197.295 210.755C197.293 210.905 197.247 211.052 197.161 211.175C197.076 211.299 196.956 211.395 196.817 211.451C196.677 211.507 196.524 211.52 196.377 211.489C196.23 211.457 196.095 211.383 195.99 211.276C195.885 211.168 195.814 211.031 195.787 210.884C195.76 210.736 195.777 210.583 195.836 210.445C195.895 210.307 195.994 210.189 196.12 210.107C196.247 210.025 196.394 209.983 196.545 209.984C196.746 209.987 196.939 210.07 197.079 210.214C197.22 210.359 197.298 210.553 197.295 210.755Z" fill="#141D27"/>
<path d="M208.086 204.25C208.136 204.067 208.224 203.898 208.345 203.752C208.466 203.607 208.617 203.49 208.788 203.408C209.346 203.131 209.977 203.035 210.592 203.133C211.208 203.23 211.778 203.517 212.223 203.953C212.529 204.26 212.747 204.644 212.854 205.065C212.962 205.485 212.954 205.926 212.832 206.343C212.458 207.429 210.454 207.603 209.569 207.231C209.017 206.98 208.568 206.546 208.299 206.003C208.029 205.461 207.954 204.841 208.086 204.25Z" fill="#141D27"/>
<path d="M211.835 204.509C211.833 204.659 211.787 204.805 211.701 204.929C211.616 205.053 211.496 205.149 211.357 205.205C211.217 205.261 211.064 205.274 210.917 205.243C210.77 205.211 210.635 205.137 210.53 205.029C210.425 204.922 210.354 204.785 210.327 204.637C210.3 204.49 210.317 204.337 210.376 204.199C210.435 204.06 210.534 203.943 210.66 203.861C210.787 203.779 210.934 203.736 211.085 203.738C211.286 203.741 211.479 203.824 211.619 203.968C211.76 204.112 211.838 204.307 211.835 204.509Z" fill="#141D27"/>
<path d="M210.982 216.335C210.737 216.814 210.607 217.343 210.602 217.881C210.593 218.269 210.664 218.654 210.809 219.014C210.954 219.374 211.17 219.7 211.445 219.973C211.779 220.263 212.173 220.475 212.599 220.595C213.025 220.715 213.472 220.739 213.908 220.666C213.933 220.676 213.962 220.677 213.988 220.667C213.998 220.641 213.998 220.613 213.989 220.587C214.011 220.461 214.003 220.332 213.966 220.21C213.93 220.088 213.865 219.976 213.778 219.884C213.65 219.732 213.461 219.629 213.393 219.438C213.353 219.338 213.354 219.226 213.394 219.126C213.435 219.026 213.512 218.945 213.61 218.901C214.345 218.56 214.602 219.584 214.706 220.036C214.731 220.167 214.792 220.289 214.882 220.388C214.983 220.458 215.099 220.503 215.22 220.523C215.779 220.64 216.328 220.767 216.876 220.904C217.024 220.941 217.178 220.943 217.327 220.91C217.458 220.873 217.579 220.806 217.679 220.715C218.063 220.434 218.367 220.057 218.56 219.623C218.753 219.188 218.83 218.711 218.782 218.237C218.727 217.876 218.571 217.534 218.526 217.163C218.512 217.113 218.509 217.059 218.519 217.008C218.528 216.956 218.549 216.907 218.58 216.864C218.732 216.686 219.081 216.78 219.219 216.932C219.358 217.084 219.47 217.686 219.605 217.277C219.67 216.883 219.645 216.479 219.53 216.096C219.249 214.661 218.187 213.197 216.565 213.256C215.979 213.294 215.402 213.428 214.859 213.654C214.089 213.944 213.345 214.3 212.634 214.715C212.179 214.956 211.763 215.264 211.401 215.63C211.232 215.846 211.091 216.083 210.982 216.335Z" fill="#141D27"/>
<path d="M217.492 221.964C217.335 221.762 216.914 221.806 217.04 222.118C217.263 222.671 216.766 223.205 216.421 223.581C215.06 225.084 214.375 226.996 212.54 228.023C211.351 228.623 209.989 228.786 208.692 228.484C207.584 228.289 206.616 227.336 205.441 227.641C204.798 227.813 206.006 228.079 206.145 228.151C206.635 228.349 207.11 228.583 207.567 228.849C208.107 229.213 208.723 229.447 209.369 229.533C210.131 229.674 210.913 229.663 211.67 229.501C212.428 229.339 213.146 229.03 213.784 228.59C214.488 227.921 215.082 227.145 215.545 226.291C215.892 225.735 216.269 225.2 216.666 224.685C217.052 224.302 217.393 223.877 217.683 223.417C217.795 223.182 217.836 222.92 217.802 222.662C217.768 222.404 217.661 222.162 217.492 221.964Z" fill="#141D27"/>
<path d="M221.144 224.412C220.79 223.966 220.33 223.616 219.806 223.394C219.418 223.248 219.022 223.126 218.62 223.028C218.467 222.989 218.32 222.93 218.182 222.853C217.963 222.699 217.789 222.489 217.679 222.246C217.681 222.156 217.443 221.982 217.37 222.162C217.364 222.195 217.364 222.228 217.369 222.262C217.348 222.35 217.347 222.443 217.365 222.532C217.415 222.715 217.502 222.886 217.619 223.035C218.01 223.454 218.513 223.753 219.069 223.895C219.434 223.997 219.772 224.175 220.063 224.418C220.235 224.572 220.382 224.753 220.496 224.954C220.745 224.817 220.965 224.633 221.144 224.412Z" fill="#141D27"/>
<path d="M184.344 202.522C182.478 201.317 179.946 202.915 176.867 207.278C173.789 211.641 169.955 217.115 169.936 218.626C169.916 220.136 174.675 231.255 181.419 234.354C188.163 237.454 189.807 235.674 188.445 232.684C187.083 229.695 184.543 224.949 183.719 219.045C182.895 213.14 182.514 205.47 184.022 204.98C185.529 204.489 185.838 203.822 184.344 202.522Z" fill="#141D27"/>
<path d="M195.207 212.018C195.188 212.145 195.124 212.26 195.026 212.343C194.929 212.426 194.804 212.47 194.676 212.469C194.548 212.467 194.425 212.419 194.33 212.334C194.234 212.248 194.173 212.131 194.157 212.004C194.147 211.929 194.154 211.853 194.177 211.78C194.199 211.708 194.237 211.641 194.288 211.585C194.338 211.529 194.4 211.484 194.47 211.453C194.539 211.423 194.614 211.407 194.69 211.408C194.766 211.409 194.84 211.426 194.909 211.459C194.977 211.491 195.038 211.538 195.087 211.595C195.136 211.653 195.172 211.721 195.193 211.794C195.214 211.867 195.219 211.943 195.207 212.018Z" fill="#141D27"/>
<path d="M195.438 213.472C195.437 213.546 195.407 213.617 195.354 213.669C195.301 213.721 195.229 213.75 195.155 213.749C195.081 213.745 195.012 213.714 194.96 213.661C194.909 213.609 194.88 213.538 194.878 213.465C194.879 213.391 194.91 213.32 194.963 213.268C195.016 213.216 195.088 213.187 195.162 213.188C195.199 213.187 195.236 213.194 195.271 213.208C195.305 213.222 195.336 213.243 195.362 213.27C195.388 213.297 195.408 213.328 195.421 213.363C195.435 213.398 195.44 213.435 195.438 213.472Z" fill="#141D27"/>
<path d="M209.807 205.042C209.805 205.183 209.748 205.317 209.647 205.415C209.546 205.513 209.411 205.567 209.27 205.565C209.129 205.564 208.995 205.506 208.897 205.405C208.799 205.305 208.745 205.169 208.747 205.028C208.748 204.888 208.806 204.754 208.907 204.655C209.007 204.557 209.143 204.503 209.284 204.505C209.353 204.506 209.422 204.52 209.486 204.548C209.55 204.575 209.608 204.615 209.657 204.665C209.705 204.715 209.743 204.774 209.769 204.839C209.795 204.903 209.808 204.972 209.807 205.042Z" fill="#141D27"/>
<path d="M210.459 206.421C210.614 206.423 210.741 206.3 210.743 206.145C210.745 205.99 210.621 205.863 210.467 205.861C210.312 205.859 210.185 205.983 210.183 206.138C210.181 206.292 210.305 206.419 210.459 206.421Z" fill="#141D27"/>
<path d="M203.966 231.034C202.443 230.725 200.881 230.651 199.336 230.813C197.81 230.929 196.278 230.929 194.753 230.814C193.406 230.698 192.101 230.292 190.926 229.624C190.419 229.345 189.949 229.002 189.528 228.605C189.051 228.069 188.623 227.491 188.25 226.877C188.161 226.756 187.753 226.581 187.77 226.871C187.881 227.499 188.118 228.099 188.467 228.633C188.816 229.167 189.27 229.625 189.801 229.979C190.953 230.846 192.305 231.407 193.732 231.611C195.279 231.831 196.847 231.872 198.403 231.732C199.275 231.673 200.156 231.584 201.038 231.516C201.919 231.447 203.04 231.472 204.042 231.355C204.152 231.326 204.086 231.065 203.966 231.034Z" fill="#141D27"/>
<path d="M192.039 206.324C191.001 207.333 190.338 208.666 190.159 210.102C190.153 210.512 190.144 211.243 190.673 211.31C191.203 211.376 191.783 210.583 192.059 210.177C192.63 209.374 193.399 208.663 194.089 207.922C194.402 207.604 194.657 207.235 194.844 206.831C195.538 205.059 193.275 205.149 192.393 205.988C192.252 206.097 192.141 206.205 192.039 206.324Z" fill="#141D27"/>
<path d="M206.723 199.028C208.158 198.841 209.614 199.146 210.854 199.892C211.181 200.137 211.766 200.585 211.49 201.041C211.214 201.498 210.233 201.465 209.744 201.439C208.74 201.438 207.737 201.492 206.74 201.6C206.298 201.65 205.852 201.624 205.42 201.523C203.596 200.969 205.059 199.247 206.272 199.083L206.723 199.028Z" fill="#141D27"/>
<path opacity="0.3" d="M229.12 221.944C227.061 226.244 223.907 229.927 219.976 232.623C215.51 235.544 210.351 237.231 205.023 237.512C200.302 237.846 195.562 237.227 191.085 235.693C186.608 234.158 182.485 231.738 178.962 228.578C175.478 225.372 172.763 221.419 171.02 217.017C169.277 212.614 168.551 207.874 168.895 203.152C169.258 199.283 170.406 195.528 172.271 192.119C169.394 195.886 167.374 200.237 166.352 204.866C165.331 209.495 165.332 214.292 166.356 218.92C167.381 223.549 169.403 227.898 172.282 231.664C175.161 235.43 178.828 238.523 183.026 240.725C187.224 242.927 191.853 244.186 196.588 244.414C201.323 244.642 206.051 243.834 210.441 242.045C214.831 240.257 218.778 237.532 222.006 234.06C225.234 230.588 227.665 226.453 229.13 221.945L229.12 221.944Z" fill="#141D27"/>
<path d="M197.723 244.861C191.193 244.777 184.835 242.758 179.453 239.059C174.071 235.361 169.906 230.15 167.485 224.085C165.065 218.02 164.497 211.373 165.854 204.985C167.211 198.597 170.432 192.755 175.109 188.198C179.786 183.64 185.71 180.572 192.131 179.381C198.551 178.191 205.181 178.931 211.182 181.508C217.182 184.085 222.283 188.383 225.841 193.86C229.398 199.336 231.252 205.745 231.167 212.274C231.053 221.031 227.466 229.383 221.194 235.494C214.922 241.606 206.479 244.975 197.723 244.861ZM198.568 179.741C192.216 179.659 185.983 181.462 180.656 184.922C175.329 188.382 171.147 193.345 168.64 199.181C166.134 205.018 165.414 211.467 166.572 217.713C167.731 223.959 170.715 229.721 175.148 234.27C179.581 238.82 185.264 241.953 191.477 243.273C197.691 244.593 204.157 244.04 210.056 241.686C215.956 239.331 221.025 235.28 224.623 230.045C228.22 224.809 230.184 218.624 230.266 212.273C230.366 203.758 227.085 195.552 221.143 189.454C215.201 183.355 207.082 179.862 198.568 179.741Z" fill="#141D27"/>
<path opacity="0.3" d="M184.616 186.134C180.705 188.242 177.332 191.221 174.757 194.842C173.115 197.133 171.809 199.646 170.878 202.307C169.739 205.659 169.352 209.22 169.742 212.738C170.002 215.824 173.076 217.175 175.711 215.368C175.945 215.212 176.161 215.034 176.359 214.836C177.737 213.483 178.402 211.59 179.255 209.87C181.656 205.043 185.681 201.216 190.622 199.06C193.058 198.001 195.859 197.227 197.359 195.035C199.134 192.437 198.161 188.732 196.067 186.623C193.133 183.683 187.921 184.376 184.616 186.134ZM210.677 188.094C210.392 186.822 209.679 185.686 208.658 184.875C207.787 184.283 206.78 183.922 205.731 183.824C204.683 183.726 203.626 183.896 202.661 184.317C202.08 184.613 201.611 185.091 201.325 185.678C201.039 186.265 200.953 186.928 201.078 187.569C201.234 188.033 201.48 188.461 201.802 188.829C202.49 189.689 203.354 190.391 204.337 190.887C205.32 191.383 206.398 191.662 207.498 191.705C208.094 191.741 208.69 191.632 209.234 191.387C209.786 191.055 210.221 190.56 210.479 189.97C210.738 189.38 210.807 188.724 210.677 188.094Z" fill="#141D27"/>
<path d="M354.173 241.6C350.926 245.23 346.642 247.773 341.901 248.886C336.704 250.054 331.278 249.674 326.295 247.793C321.316 245.937 317.227 242.592 313.34 239.029C309.632 235.619 306.027 232.01 301.647 229.452C297.24 226.928 292.208 225.7 287.134 225.911C281.809 226.145 276.592 227.495 271.823 229.875C266.899 232.253 262.177 235.243 256.479 234.799C250.781 234.355 245.638 231.237 240.608 228.72C236.025 226.429 230.749 224.289 225.516 225.032C224.339 225.188 223.189 225.51 222.102 225.988C221.991 226.037 222.097 226.328 222.188 226.279C227.547 224.258 233.201 225.812 238.225 228.078C243.249 230.345 248.159 233.611 253.726 234.894C256.315 235.528 259.015 235.563 261.62 234.996C264.257 234.291 266.795 233.259 269.174 231.922C271.619 230.613 274.151 229.476 276.753 228.518C279.425 227.573 282.197 226.937 285.013 226.624C290.475 225.968 296.007 227 300.865 229.582C305.246 232.02 308.792 235.598 312.46 238.988C316.129 242.378 319.918 245.689 324.525 247.72C329.259 249.822 334.473 250.602 339.615 249.977C346.015 249.118 351.833 245.811 355.845 240.751C356.034 240.033 356.224 239.315 356.403 238.587C355.745 239.652 354.999 240.66 354.173 241.6Z" fill="white"/>
<path d="M196.792 239.389C214.771 239.622 229.536 225.236 229.769 207.256C230.002 189.277 215.616 174.512 197.636 174.279C179.657 174.046 164.892 188.432 164.659 206.412C164.425 224.391 178.812 239.156 196.792 239.389Z" fill="#CD3F3E"/>
<path opacity="0.6" d="M196.792 239.389C214.771 239.622 229.536 225.236 229.769 207.256C230.002 189.277 215.616 174.512 197.636 174.279C179.657 174.046 164.892 188.432 164.659 206.412C164.425 224.391 178.812 239.156 196.792 239.389Z" fill="white"/>
<path d="M207.707 237.19C210.145 242.074 231.311 257.319 235.48 256.082C243.455 253.724 250.41 249.861 256.427 250.35C261.025 250.75 269.395 253.45 268.972 257.567C268.548 261.684 266.044 262.672 262.398 262.955C257.78 263.306 254.264 262.089 252.059 263.111C249.855 264.133 237.622 271.479 231.204 271.766C224.786 272.053 209.529 267.222 206.415 264.25C203.302 261.278 207.707 237.19 207.707 237.19Z" fill="#DEDEDE"/>
<path d="M125.814 326.735C123.329 323.17 128.422 316.222 130.072 313.241C131.22 311.155 133.29 308.9 133.481 306.521C133.742 303.403 131.813 300.085 130.185 297.593C127.241 293.092 123.82 288.424 124.173 282.765C124.171 282.256 124.291 281.753 124.522 281.299C124.863 280.815 125.323 280.428 125.858 280.176C130.847 277.326 136.593 276.084 142.314 276.617C143.241 276.647 144.148 276.888 144.967 277.322C145.96 277.895 148.531 276.417 149.089 277.375C152.553 283.424 152.944 292.575 154.096 299.454C154.727 303.245 154.782 306.707 152.43 309.829C150.251 312.723 140.576 320.402 140.246 323.4C139.78 326.976 140.013 326.739 142.238 329.539L144.562 332.471C145.723 333.708 146.55 335.22 146.966 336.865C147.096 337.802 146.885 338.755 146.372 339.549C145.858 340.343 145.076 340.926 144.168 341.192C143.842 341.299 143.506 341.375 143.165 341.419C140.649 341.736 138.095 340.352 136.193 338.887C132.686 336.18 128.29 330.289 125.814 326.735Z" fill="#DEDEDE"/>
<path d="M110.951 252.964C97.2155 245.782 81.8999 250.096 73.7625 245.638C62.4651 239.487 63.986 227.92 61.8236 224.92C59.6611 221.92 54.7777 228.11 59.4585 239.848C62.9666 248.649 69.7623 253.941 79.0575 256.313C87.6147 258.485 102.511 258.739 107.971 264.373L110.951 252.964Z" fill="#DEDEDE"/>
<path d="M89.7193 322.304C87.913 316.527 106.018 306.205 105.746 300.198C100.182 272.458 97.4427 263.797 105.214 250.949C110.859 241.607 119.853 237.901 136.889 237.482C146.268 237.243 172.246 238.681 175.533 224.364C190.579 217.755 211.152 214.68 209.483 226.045C208.023 236.033 211.587 242.853 209.78 254.868C206.498 276.469 182.712 283.425 161.085 282.904C145.53 282.542 136.635 284.028 132.876 286.1C132.686 288.369 129.829 303.492 128.024 306.881C125.972 310.766 123.113 312.06 120.174 314.163C117.235 316.267 105.71 320.69 104.434 323.435C102.921 326.708 103.213 326.551 104.5 329.88L105.826 333.38C106.555 334.91 106.878 336.603 106.763 338.295C106.604 339.228 106.115 340.072 105.386 340.675C104.656 341.277 103.734 341.597 102.788 341.575C102.453 341.59 102.117 341.565 101.788 341.502C99.2923 341.05 97.2676 339.002 95.8427 336.992C93.4475 333.419 91.0065 326.433 89.7193 322.304Z" fill="white"/>
<path d="M208.055 258.197C207.619 258.612 207.041 259.185 206.505 258.887C206.341 258.784 206.2 258.648 206.09 258.489C205.981 258.329 205.904 258.149 205.866 257.959C205.497 256.72 204.823 255.594 203.908 254.681C202.919 253.788 201.43 253.648 200.712 254.99C200.48 255.487 200.361 256.028 200.361 256.576C200.261 260.776 201.512 264.896 203.931 268.33C203.952 268.31 203.969 268.287 203.982 268.261C206.48 265.177 208.263 261.578 209.202 257.722C208.772 257.723 208.359 257.894 208.055 258.197Z" fill="#FAFAFA"/>
<path d="M136.003 284.87C135.761 281.155 134.853 275.599 130.461 271.67C132.977 276.032 133.834 281.156 132.875 286.1C133.871 285.58 134.92 285.168 136.003 284.87Z" fill="#DEDEDE"/>
<path d="M191.529 244.694C191.911 250.793 207.067 275.726 211.893 276.268C221.135 277.309 229.983 276.373 235.946 279.532C240.517 281.943 247.929 288.363 245.725 292.427C243.521 296.491 240.48 296.412 236.604 295.111C231.703 293.456 228.607 290.674 225.884 290.759C223.161 290.844 207.372 293.091 200.64 290.592C193.908 288.093 180.301 276.449 178.397 272.031C176.493 267.614 191.529 244.694 191.529 244.694Z" fill="white"/>
<path d="M175.475 268.952C175.475 268.952 177.834 276.037 182.447 280.7C183.451 280.453 184.385 280.185 185.329 279.897C181.081 275.679 175.475 268.952 175.475 268.952Z" fill="#DEDEDE"/>
<path d="M173.352 228.978C171.297 227.671 168.903 230.201 169.929 232.096C170.955 233.99 176.014 241.23 187.428 243.83C199.4 246.567 208.384 242.831 210.099 241.753C212.036 240.537 211.287 236.585 209.521 236.992C204.735 238.721 197.161 240.214 190.416 238.746C183.67 237.277 177.856 233.449 173.352 228.978Z" fill="#CD3F3E"/>
<path opacity="0.1" d="M173.352 228.978C171.297 227.671 168.903 230.201 169.929 232.096C170.955 233.99 176.014 241.23 187.428 243.83C199.4 246.567 208.384 242.831 210.099 241.753C212.036 240.537 211.287 236.585 209.521 236.992C204.735 238.721 197.161 240.214 190.416 238.746C183.67 237.277 177.856 233.449 173.352 228.978Z" fill="#421F19"/>
<path opacity="0.1" d="M179.622 237.025C184.852 238.824 190.214 240.444 195.734 240.716C200.865 241.1 205.986 239.857 210.369 237.163C210.25 237.073 210.111 237.011 209.965 236.981C209.818 236.952 209.666 236.956 209.521 236.992C204.735 238.721 197.161 240.214 190.416 238.746C183.671 237.277 177.857 233.41 173.352 228.968C171.298 227.661 168.903 230.191 169.929 232.086C170.77 233.628 174.286 238.717 181.719 241.955L181.065 241.496C179.722 240.731 178.572 239.669 177.703 238.391C177.519 238.12 177.441 237.791 177.484 237.467C177.645 236.679 178.825 236.754 179.622 237.025Z" fill="#421F19"/>
<path d="M205.421 189.68C209.646 191.816 213.88 194.062 217.33 197.299C219.5 199.272 221.228 201.681 222.401 204.369C222.993 205.504 223.277 206.774 223.224 208.052C223.103 208.881 223.184 211.154 221.838 210.746C221.524 210.627 221.237 210.447 220.995 210.215C219.283 208.713 217.39 207.432 215.361 206.399C213.301 205.462 210.971 205.412 208.954 204.255C206.939 202.94 205.225 201.212 203.927 199.186C202.433 197.086 199.8 194.13 199.443 191.523C198.977 188.125 203.562 188.755 205.421 189.68Z" fill="#421F19"/>
<path d="M192.302 192.842C198.55 190.211 200.746 191.46 203.794 192.47C206.359 193.394 208.69 194.869 210.623 196.792C212.215 198.263 212.485 202.139 213.28 203.28C214.076 204.421 218.135 206.225 219.721 208.177C221.307 210.129 221.148 212.358 221.426 215.594C221.567 216.431 221.46 217.291 221.12 218.069C220.779 218.846 220.219 219.508 219.508 219.972C219.012 221.948 217.798 223.67 216.103 224.8C213.339 226.546 208.523 225.983 208.523 225.983C208.523 225.983 207.369 228.55 202.715 228.629C195.889 228.761 195.564 229.897 191.825 229.669C185.305 229.284 184.008 226.676 180.035 222.101C176.062 217.527 174.47 212.223 178.75 203.963C182.116 197.483 187.111 195.036 192.302 192.842Z" fill="white"/>
<path d="M207.757 219.499C207.809 219.557 207.837 219.632 207.836 219.71C207.835 219.788 207.805 219.862 207.751 219.919C207.723 219.947 207.689 219.97 207.652 219.985C207.615 220 207.575 220.008 207.535 220.007C207.495 220.007 207.455 219.998 207.418 219.982C207.382 219.966 207.349 219.943 207.321 219.913C207.269 219.855 207.241 219.78 207.242 219.702C207.243 219.624 207.273 219.55 207.326 219.493C207.355 219.465 207.389 219.442 207.426 219.427C207.463 219.412 207.503 219.405 207.543 219.405C207.583 219.406 207.622 219.414 207.659 219.43C207.696 219.446 207.729 219.47 207.757 219.499Z" fill="#DEDEDE"/>
<path d="M210.124 218.208C210.165 218.251 210.192 218.305 210.202 218.363C210.213 218.421 210.205 218.481 210.182 218.535C210.158 218.589 210.119 218.635 210.069 218.667C210.02 218.699 209.962 218.715 209.903 218.715C209.844 218.714 209.786 218.696 209.738 218.662C209.689 218.629 209.651 218.582 209.629 218.528C209.606 218.473 209.601 218.413 209.612 218.355C209.624 218.297 209.653 218.244 209.694 218.202C209.754 218.15 209.831 218.121 209.91 218.122C209.99 218.123 210.066 218.154 210.124 218.208Z" fill="#DEDEDE"/>
<path d="M209.996 221.138C210.162 221.141 210.298 221.008 210.3 220.842C210.303 220.676 210.17 220.54 210.004 220.538C209.838 220.536 209.702 220.669 209.7 220.834C209.698 221 209.831 221.136 209.996 221.138Z" fill="#DEDEDE"/>
<path d="M215.127 219.795C215.316 219.482 215.542 219.193 215.799 218.933C216.024 218.683 216.229 218.414 216.41 218.13C216.463 218.053 216.536 217.992 216.622 217.953C216.681 217.929 216.744 217.917 216.808 217.918C216.871 217.919 216.934 217.932 216.992 217.958C217.707 218.219 218.377 218.589 218.979 219.054C218.979 219.054 218.979 219.054 218.978 219.114C218.978 219.174 218.978 219.114 218.978 219.174C218.555 219.758 217.999 220.232 217.356 220.558C216.713 220.884 216.002 221.052 215.281 221.047C214.991 221.044 214.461 221.037 214.596 220.648C214.74 220.345 214.919 220.058 215.127 219.795Z" fill="#421F19"/>
<path d="M208.522 226.073C208.063 227.487 208.238 230.962 208.509 235.498C206.895 236.548 197.517 239.038 190.029 236.95C184.024 235.456 178.485 232.492 173.911 228.325C176.9 223.871 178.075 207.366 178.075 207.366L208.522 226.073Z" fill="white"/>
<path opacity="0.1" d="M199.783 204.716C199.192 204.057 198.429 203.576 197.58 203.327C196.302 203.09 195.1 203.985 194.246 204.955C193.016 206.232 192.284 207.909 192.184 209.681C192.173 209.869 192.216 210.057 192.307 210.223C192.416 210.369 192.569 210.476 192.743 210.529C193.661 210.824 194.653 210.788 195.546 210.425C196.437 210.071 197.354 209.788 198.289 209.58C199.953 209.341 201.546 209.962 203.132 210.393C203.869 210.718 204.675 210.855 205.478 210.794C206.181 210.553 206.01 209.91 205.565 209.454C203.777 207.69 201.633 206.391 199.783 204.716Z" fill="#421F19"/>
<path opacity="0.1" d="M213.28 203.28C212.603 202.271 212.51 200.909 212.145 199.803C211.779 198.698 210.09 198.506 209.09 198.483C208.762 198.437 208.428 198.462 208.111 198.556C207.794 198.651 207.501 198.812 207.252 199.029C207.055 199.308 206.937 199.634 206.912 199.974C206.886 200.314 206.954 200.654 207.106 200.959C207.862 202.85 210.077 203.359 211.854 203.722L212.852 203.905L214.279 204.174C213.884 203.953 213.543 203.648 213.28 203.28Z" fill="#421F19"/>
<path d="M196.606 204.295C196.474 204.17 196.317 204.075 196.145 204.016C195.973 203.957 195.791 203.935 195.61 203.952C194.549 204.124 193.598 204.705 192.96 205.57C192.322 206.435 192.049 207.516 192.198 208.58C192.412 209.804 193.593 209.739 194.596 209.612C195.295 209.543 195.952 209.246 196.464 208.766C196.977 208.286 197.317 207.65 197.432 206.957C197.49 206.48 197.447 205.996 197.304 205.537C197.162 205.079 196.924 204.655 196.606 204.295Z" fill="#421F19"/>
<path d="M196.358 205.732C196.356 205.883 196.309 206.029 196.224 206.153C196.139 206.277 196.019 206.373 195.879 206.429C195.739 206.484 195.586 206.497 195.439 206.466C195.292 206.435 195.158 206.361 195.053 206.253C194.948 206.145 194.877 206.009 194.85 205.861C194.822 205.713 194.839 205.56 194.898 205.422C194.958 205.284 195.057 205.167 195.183 205.085C195.309 205.003 195.457 204.96 195.607 204.962C195.809 204.965 196.001 205.047 196.142 205.192C196.283 205.336 196.36 205.531 196.358 205.732Z" fill="#E0E0E0"/>
<path d="M207.149 199.228C207.198 199.046 207.286 198.876 207.407 198.731C207.528 198.586 207.679 198.468 207.85 198.387C208.408 198.11 209.039 198.013 209.655 198.111C210.27 198.209 210.84 198.496 211.285 198.932C211.591 199.239 211.81 199.623 211.917 200.043C212.024 200.463 212.016 200.905 211.895 201.321C211.52 202.407 209.517 202.581 208.631 202.209C208.079 201.958 207.631 201.525 207.361 200.982C207.091 200.439 207.016 199.82 207.149 199.228Z" fill="#421F19"/>
<path d="M210.898 199.486C210.896 199.637 210.849 199.783 210.764 199.907C210.679 200.031 210.559 200.127 210.419 200.183C210.279 200.238 210.126 200.251 209.979 200.22C209.832 200.189 209.698 200.115 209.593 200.007C209.488 199.899 209.417 199.763 209.39 199.615C209.362 199.467 209.379 199.314 209.439 199.176C209.498 199.038 209.597 198.921 209.723 198.839C209.849 198.757 209.997 198.714 210.147 198.716C210.349 198.719 210.541 198.801 210.682 198.946C210.823 199.09 210.9 199.284 210.898 199.486Z" fill="#E0E0E0"/>
<path d="M210.044 211.313C209.799 211.791 209.669 212.321 209.664 212.859C209.656 213.246 209.726 213.632 209.871 213.991C210.016 214.351 210.233 214.678 210.508 214.951C210.842 215.241 211.236 215.453 211.661 215.573C212.087 215.692 212.534 215.716 212.97 215.643C212.996 215.654 213.024 215.654 213.05 215.644C213.061 215.619 213.061 215.59 213.051 215.564C213.073 215.439 213.065 215.31 213.029 215.188C212.992 215.066 212.928 214.954 212.84 214.861C212.712 214.709 212.523 214.607 212.456 214.416C212.416 214.316 212.416 214.204 212.457 214.104C212.497 214.004 212.575 213.923 212.673 213.878C213.408 213.538 213.665 214.562 213.769 215.013C213.794 215.145 213.855 215.267 213.944 215.366C214.046 215.435 214.161 215.481 214.283 215.5C214.842 215.618 215.39 215.745 215.939 215.882C216.087 215.918 216.241 215.92 216.389 215.888C216.52 215.851 216.641 215.784 216.742 215.692C217.126 215.411 217.429 215.035 217.622 214.6C217.816 214.166 217.893 213.688 217.845 213.215C217.789 212.854 217.634 212.512 217.589 212.141C217.574 212.09 217.572 212.037 217.581 211.985C217.591 211.933 217.611 211.884 217.642 211.841C217.795 211.663 218.144 211.758 218.282 211.91C218.42 212.062 218.532 212.664 218.668 212.255C218.733 211.861 218.707 211.456 218.593 211.073C218.311 209.639 217.25 208.174 215.628 208.233C215.041 208.272 214.465 208.406 213.922 208.631C213.151 208.922 212.407 209.277 211.697 209.693C211.242 209.933 210.826 210.242 210.464 210.608C210.294 210.823 210.153 211.06 210.044 211.313Z" fill="#421F19"/>
<path d="M216.555 216.941C216.398 216.739 215.977 216.784 216.103 217.095C216.326 217.649 215.829 218.183 215.484 218.558C214.123 220.062 213.438 221.974 211.603 223.001C210.414 223.601 209.052 223.764 207.755 223.461C206.647 223.267 205.679 222.314 204.504 222.619C203.861 222.79 205.069 223.056 205.208 223.128C205.698 223.327 206.173 223.56 206.63 223.827C207.17 224.191 207.786 224.425 208.432 224.511C209.194 224.651 209.976 224.64 210.733 224.479C211.491 224.317 212.209 224.007 212.847 223.567C213.551 222.898 214.145 222.123 214.608 221.269C214.955 220.713 215.332 220.177 215.729 219.662C216.115 219.279 216.456 218.854 216.746 218.395C216.858 218.16 216.899 217.898 216.865 217.64C216.831 217.382 216.724 217.139 216.555 216.941Z" fill="#263238"/>
<path d="M220.206 219.39C219.853 218.943 219.393 218.593 218.868 218.372C218.481 218.225 218.085 218.103 217.682 218.006C217.529 217.967 217.382 217.907 217.244 217.83C217.025 217.677 216.852 217.467 216.742 217.223C216.743 217.133 216.505 216.96 216.433 217.139C216.427 217.172 216.426 217.206 216.432 217.239C216.411 217.328 216.409 217.42 216.428 217.509C216.478 217.693 216.564 217.864 216.682 218.013C217.073 218.432 217.576 218.73 218.131 218.872C218.496 218.974 218.835 219.153 219.125 219.396C219.298 219.55 219.444 219.731 219.559 219.931C219.807 219.794 220.027 219.61 220.206 219.39Z" fill="#263238"/>
<path d="M183.406 197.5C181.541 196.295 179.008 197.893 175.93 202.256C172.851 206.619 169.018 212.092 168.998 213.603C168.979 215.114 173.738 226.233 180.482 229.332C187.226 232.431 188.87 230.652 187.508 227.662C186.146 224.672 183.605 219.926 182.782 214.022C181.958 208.118 181.577 200.448 183.084 199.957C184.591 199.466 184.9 198.8 183.406 197.5Z" fill="#421F19"/>
<path d="M194.27 206.996C194.251 207.123 194.187 207.238 194.089 207.321C193.992 207.404 193.867 207.449 193.739 207.447C193.611 207.446 193.488 207.398 193.393 207.312C193.297 207.227 193.236 207.11 193.22 206.983C193.21 206.908 193.217 206.831 193.24 206.759C193.262 206.687 193.3 206.62 193.351 206.564C193.401 206.507 193.463 206.462 193.533 206.432C193.602 206.401 193.677 206.386 193.753 206.387C193.829 206.388 193.903 206.405 193.972 206.437C194.04 206.47 194.101 206.516 194.15 206.574C194.199 206.632 194.235 206.699 194.256 206.772C194.277 206.845 194.282 206.922 194.27 206.996Z" fill="white"/>
<path d="M194.501 208.45C194.5 208.524 194.47 208.595 194.416 208.647C194.363 208.699 194.291 208.727 194.217 208.726C194.144 208.723 194.074 208.692 194.023 208.639C193.972 208.586 193.942 208.516 193.941 208.442C193.942 208.368 193.972 208.297 194.025 208.245C194.079 208.194 194.15 208.165 194.224 208.166C194.262 208.165 194.299 208.172 194.333 208.186C194.368 208.2 194.399 208.221 194.425 208.247C194.451 208.274 194.471 208.306 194.484 208.341C194.497 208.375 194.503 208.413 194.501 208.45Z" fill="white"/>
<path d="M208.87 200.021C208.868 200.161 208.81 200.295 208.709 200.393C208.609 200.492 208.473 200.546 208.332 200.544C208.192 200.542 208.058 200.484 207.959 200.384C207.861 200.283 207.807 200.147 207.809 200.007C207.811 199.866 207.868 199.732 207.969 199.634C208.07 199.536 208.206 199.482 208.346 199.483C208.416 199.484 208.485 199.499 208.549 199.526C208.613 199.554 208.67 199.594 208.719 199.644C208.768 199.693 208.806 199.752 208.832 199.817C208.858 199.882 208.87 199.951 208.87 200.021Z" fill="white"/>
<path d="M209.522 201.399C209.677 201.401 209.804 201.277 209.806 201.122C209.808 200.968 209.684 200.841 209.529 200.839C209.374 200.837 209.247 200.96 209.245 201.115C209.243 201.27 209.367 201.397 209.522 201.399Z" fill="white"/>
<path d="M203.028 226.011C201.505 225.703 199.944 225.629 198.398 225.791C196.873 225.906 195.341 225.906 193.815 225.791C192.469 225.675 191.163 225.269 189.988 224.601C189.481 224.322 189.011 223.98 188.591 223.582C188.113 223.046 187.685 222.468 187.312 221.855C187.224 221.733 186.816 221.558 186.832 221.848C186.943 222.477 187.18 223.076 187.529 223.611C187.878 224.145 188.332 224.603 188.863 224.957C190.015 225.823 191.367 226.385 192.794 226.589C194.342 226.809 195.909 226.849 197.466 226.709C198.337 226.651 199.219 226.562 200.1 226.493C200.982 226.425 202.102 226.449 203.104 226.332C203.215 226.304 203.148 226.043 203.028 226.011Z" fill="#263238"/>
<path d="M191.101 201.302C190.064 202.311 189.401 203.643 189.221 205.08C189.216 205.49 189.206 206.22 189.736 206.287C190.265 206.354 190.846 205.561 191.121 205.154C191.692 204.351 192.462 203.641 193.152 202.899C193.464 202.582 193.72 202.213 193.907 201.808C194.6 200.036 192.337 200.127 191.456 200.966C191.314 201.074 191.203 201.183 191.101 201.302Z" fill="#DEDEDE"/>
<path d="M205.785 194.006C207.221 193.819 208.677 194.123 209.917 194.87C210.244 195.114 210.828 195.562 210.552 196.019C210.276 196.476 209.296 196.443 208.806 196.417C207.802 196.415 206.8 196.469 205.802 196.578C205.361 196.627 204.914 196.601 204.482 196.501C202.658 195.947 204.121 194.224 205.334 194.06L205.785 194.006Z" fill="#DEDEDE"/>
<path opacity="0.3" d="M228.182 216.922C226.123 221.222 222.97 224.904 219.038 227.6C214.573 230.522 209.414 232.209 204.085 232.49C199.364 232.824 194.624 232.205 190.147 230.67C185.67 229.135 181.548 226.716 178.025 223.556C174.541 220.349 171.826 216.397 170.083 211.994C168.34 207.591 167.613 202.852 167.958 198.129C168.32 194.26 169.469 190.506 171.333 187.096C168.456 190.864 166.436 195.214 165.415 199.844C164.393 204.473 164.395 209.269 165.419 213.898C166.443 218.527 168.465 222.876 171.345 226.642C174.224 230.408 177.891 233.5 182.089 235.702C186.287 237.904 190.915 239.163 195.65 239.392C200.385 239.62 205.113 238.811 209.504 237.023C213.894 235.235 217.841 232.509 221.069 229.037C224.297 225.566 226.728 221.431 228.192 216.922L228.182 216.922Z" fill="#CD3F3E"/>
<path d="M196.786 239.839C190.256 239.754 183.898 237.735 178.516 234.037C173.134 230.339 168.969 225.127 166.548 219.062C164.128 212.997 163.56 206.35 164.917 199.963C166.274 193.575 169.495 187.733 174.172 183.175C178.849 178.618 184.773 175.55 191.194 174.359C197.614 173.168 204.244 173.908 210.245 176.485C216.245 179.062 221.346 183.361 224.904 188.837C228.461 194.314 230.315 200.722 230.23 207.252C230.116 216.008 226.529 224.361 220.257 230.472C213.985 236.583 205.542 239.953 196.786 239.839ZM197.631 174.719C191.279 174.636 185.046 176.439 179.719 179.9C174.392 183.36 170.21 188.322 167.703 194.159C165.197 199.996 164.477 206.445 165.635 212.69C166.794 218.936 169.778 224.698 174.211 229.248C178.644 233.797 184.327 236.93 190.54 238.25C196.754 239.57 203.22 239.018 209.119 236.663C215.019 234.309 220.088 230.258 223.686 225.022C227.283 219.787 229.247 213.602 229.329 207.25C229.429 198.736 226.148 190.53 220.206 184.431C214.264 178.333 206.145 174.84 197.631 174.719Z" fill="#CD3F3E"/>
<path opacity="0.3" d="M183.679 181.112C179.768 183.219 176.395 186.199 173.82 189.82C172.178 192.11 170.872 194.624 169.941 197.284C168.802 200.636 168.415 204.197 168.805 207.716C169.065 210.801 172.139 212.152 174.774 210.345C175.008 210.19 175.224 210.012 175.422 209.813C176.8 208.46 177.465 206.568 178.318 204.848C180.719 200.021 184.744 196.194 189.685 194.038C192.121 192.979 194.922 192.205 196.422 190.013C198.197 187.414 197.224 183.709 195.13 181.601C192.196 178.661 186.984 179.354 183.679 181.112ZM209.74 183.071C209.455 181.799 208.742 180.663 207.721 179.853C206.85 179.261 205.843 178.899 204.794 178.802C203.746 178.704 202.689 178.874 201.724 179.295C201.143 179.591 200.674 180.069 200.388 180.655C200.102 181.242 200.016 181.906 200.141 182.546C200.297 183.01 200.543 183.438 200.865 183.806C201.553 184.666 202.417 185.368 203.4 185.864C204.383 186.361 205.461 186.64 206.561 186.682C207.157 186.719 207.753 186.61 208.297 186.364C208.848 186.032 209.284 185.537 209.542 184.947C209.801 184.358 209.87 183.702 209.74 183.071Z" fill="white"/>
</svg>
