<svg width="79" height="79" viewBox="0 0 79 79" fill="none" xmlns="http://www.w3.org/2000/svg">
<path d="M74.9596 46.6725C74.2258 45.1015 73.5288 43.0904 72.8389 40.9442C75.2576 39.3066 76.4482 33.9465 76.307 28.4786C76.1589 22.7767 74.1583 5.64707 71.018 2.85132C65.4247 -2.13177 57.1208 5.96355 49.4787 18.9824C49.4787 18.9824 43.7907 18.0417 39.5458 18.0417C35.3 18.0417 29.6129 18.9824 29.6129 18.9824C21.9709 5.96355 13.8826 -2.13177 8.28841 2.85132C5.14812 5.64707 3.14752 22.7767 2.99936 28.4786C2.85822 33.9465 3.9909 39.1076 6.29044 40.8285C5.58734 43.0176 4.87898 45.0734 4.13117 46.6725C1.95347 51.3356 -2.15468 60.4891 7.16363 69.4418C15.9875 77.922 39.5458 77.7449 39.5458 77.7449C39.5458 77.7449 63.1033 77.922 71.928 69.4418C81.2454 60.4891 77.1381 51.3356 74.9596 46.6725Z" fill="#FFFAF8"/>
<path d="M74.9594 46.6725C74.2256 45.1015 73.5286 43.0904 72.8387 40.9442C75.2575 39.3066 76.448 33.9465 76.3069 28.4786C76.1587 22.7767 74.1581 5.64707 71.0178 2.85132C65.4245 -2.13177 57.1206 5.96355 49.4785 18.9824C49.4785 18.9824 43.7905 18.0417 39.5456 18.0417C35.2998 18.0417 29.6128 18.9824 29.6128 18.9824C21.9707 5.96355 13.8824 -2.13177 8.28823 2.85132C5.14793 5.64707 3.14734 22.7767 2.99918 28.4786C2.85803 33.9465 3.99071 39.1076 6.29026 40.8285C5.58716 43.0176 4.87879 45.0734 4.13098 46.6725C2.43196 50.3108 -0.441821 56.6825 2.80192 63.5592C2.908 54.9046 8.91243 50.2625 14.0647 47.8701C17.1226 46.4498 20.4347 45.6827 23.7986 45.475C27.3518 45.254 30.0502 44.479 31.9018 43.399C37.7204 40.0062 33.7095 25.1218 39.4211 25.1218C45.1327 25.1218 41.121 40.0062 46.9396 43.399C48.792 44.4782 51.4896 45.254 55.0437 45.4741C58.4067 45.6827 61.7197 46.449 64.7775 47.8701C69.929 50.2625 75.9334 54.9046 76.0395 63.5592C76.0412 63.7267 76.0474 63.8836 76.057 64.0309C79.6646 56.9736 76.6979 50.394 74.9594 46.6725Z" fill="#C49A6A"/>
<path d="M55.7178 20.4759C55.7178 20.4759 62.1246 6.65233 66.8508 7.64474C69.6001 8.2216 71.0501 22.1241 71.1404 25.6124C71.2053 28.1206 70.8319 30.5228 70.0472 32.0114C70.0472 32.0114 66.0899 21.0975 55.7178 20.4759Z" fill="#FFFAF8"/>
<path d="M23.5879 20.4759C23.5879 20.4759 17.1819 6.65233 12.4548 7.64474C9.70555 8.2216 8.25551 22.1241 8.16609 25.6124C8.10033 28.1206 8.4738 30.5228 9.25844 32.0114C9.25844 32.0114 13.2158 21.0975 23.5879 20.4759Z" fill="#FFFAF8"/>
<mask id="mask0_855_785" style="mask-type:luminance" maskUnits="userSpaceOnUse" x="0" y="0" width="79" height="79">
<path d="M0 0H79V78.9895H0V0Z" fill="white"/>
</mask>
<g mask="url(#mask0_855_785)">
<path d="M71.108 68.5907C62.7339 76.6378 39.7858 76.5668 39.5543 76.5633C39.5482 76.5633 39.5421 76.5633 39.5368 76.5633C39.3071 76.5677 16.3572 76.6378 7.9822 68.5907C4.15459 64.913 2.36702 60.9539 2.51781 56.4889C2.64756 52.642 4.24664 49.2186 5.20223 47.1724C6.25075 44.9289 7.18442 41.9491 8.17244 38.7939C9.23937 35.388 10.3431 31.8654 11.538 29.5913C12.2429 28.2517 13.2292 27.0542 14.4697 26.0337C14.9738 25.619 15.0457 24.8739 14.6301 24.3706C14.2154 23.8683 13.4703 23.7955 12.967 24.2102C11.4819 25.4314 10.2975 26.8727 9.44539 28.4919C8.15053 30.9554 7.01434 34.5814 5.91585 38.089C5.88604 38.1846 5.85624 38.281 5.82555 38.3766C4.72093 36.2559 4.07569 32.5791 4.18089 28.5095C4.36149 21.5389 6.60405 5.93391 9.07455 3.73255C10.1669 2.76031 11.3601 2.39122 12.7216 2.60601C16.9183 3.26528 22.5554 9.29425 28.5931 19.5804C28.8403 20.0021 29.3234 20.2283 29.8064 20.1476C29.8617 20.1389 35.4444 19.2236 39.5456 19.2236C43.6423 19.2236 49.2286 20.1389 49.2847 20.1476C49.7677 20.2283 50.2499 20.0021 50.4971 19.5804C56.4367 9.46345 62.2833 3.27755 66.5387 2.60776C67.9283 2.38947 69.1355 2.7568 70.2313 3.73255C72.7019 5.93391 74.9453 21.5398 75.125 28.5095C75.2328 32.6711 74.5166 36.4917 73.3322 38.5922C73.2805 38.4239 73.227 38.2565 73.1753 38.089C72.0759 34.5814 70.9406 30.9554 69.6448 28.4928C68.7927 26.8727 67.6083 25.4314 66.1241 24.2102C65.6208 23.7955 64.8757 23.8683 64.461 24.3706C64.0454 24.8739 64.1173 25.619 64.6214 26.0337C65.8611 27.0542 66.8473 28.2517 67.5522 29.5913C68.748 31.8654 69.8517 35.388 70.9187 38.7939C71.9067 41.9491 72.8404 44.9289 73.8889 47.1724C74.8436 49.2186 76.4436 52.642 76.5733 56.4889C76.7232 60.9539 74.9365 64.913 71.108 68.5907ZM78.936 56.4092C78.7904 52.0801 77.0625 48.3822 76.0306 46.1738C75.4117 44.8483 74.8041 43.1493 74.2089 41.3372C76.7898 38.8088 77.6104 33.1603 77.4886 28.4481C77.4114 25.491 76.8591 19.7084 75.95 14.3773C75.516 11.8349 74.1975 4.10076 71.805 1.96953C70.17 0.513357 68.2746 -0.0573662 66.1705 0.274021C59.9154 1.25854 53.3814 10.1306 48.8682 17.692C47.1315 17.4317 42.9331 16.8609 39.5456 16.8609C36.1572 16.8609 31.9596 17.4317 30.2229 17.692C25.7027 10.1166 19.195 1.23224 13.0898 0.272268C11.0129 -0.0538595 9.13329 0.516864 7.50178 1.96953C5.10842 4.10076 3.78989 11.8349 3.3568 14.3773C2.44768 19.7084 1.89449 25.491 1.81734 28.4481C1.74282 31.3377 2.00758 34.0694 2.58357 36.3488C3.12886 38.5081 3.91701 40.1308 4.92958 41.1907C4.31853 43.0572 3.69608 44.8132 3.05961 46.1738C2.02775 48.3822 0.300673 52.0801 0.154266 56.4092C-0.0166876 61.5106 2.06457 66.1825 6.34368 70.2941C15.3858 78.9821 38.4401 78.9356 39.5456 78.926C39.5833 78.9268 39.6473 78.9268 39.7358 78.9268C42.223 78.9268 64.0165 78.6823 72.7474 70.2941C77.0257 66.1825 79.1078 61.5106 78.936 56.4092Z" fill="#421F19"/>
</g>
<path d="M24.5946 21.0917C24.8024 20.7621 24.8234 20.3298 24.6604 19.9783C24.5937 19.8336 22.9964 16.404 20.7819 13.0384C17.5338 8.10269 14.7301 5.95919 12.2123 6.48871C11.5732 6.62285 11.1638 7.24792 11.2979 7.88703C11.4329 8.52526 12.0589 8.93467 12.698 8.80054C14.0516 8.51474 16.3301 10.5785 18.7936 14.3175C19.4572 15.3248 20.0683 16.3497 20.5961 17.2834C19.487 16.76 18.2246 16.2971 16.942 16.0972C16.2977 15.9964 15.6927 16.4374 15.5919 17.0826C15.4911 17.727 15.9321 18.331 16.5773 18.4318C17.866 18.6326 19.1706 19.1823 20.2541 19.7547C19.0531 20.0931 18.2939 20.4973 18.2395 20.5271C17.667 20.8366 17.4549 21.5502 17.7635 22.1227C17.9765 22.5198 18.3842 22.7451 18.8059 22.7451C18.9935 22.7451 19.1846 22.7004 19.3617 22.6057C19.3801 22.5961 21.1747 21.6554 23.5145 21.6554C23.9441 21.6782 24.3737 21.4616 24.5946 21.0917Z" fill="#421F19"/>
<path d="M39.7447 43.7305C29.6865 43.7305 23.718 50.758 23.469 51.0569C23.0517 51.5584 23.1201 52.3027 23.6216 52.7209C24.123 53.1373 24.8682 53.0698 25.2864 52.5683C25.3399 52.5035 30.7824 46.0931 39.7447 46.0931C48.6641 46.0931 54.1496 52.5052 54.2039 52.5701C54.438 52.8489 54.7729 52.9935 55.1122 52.9935C55.3778 52.9935 55.6461 52.9041 55.867 52.7209C56.3693 52.3027 56.4377 51.5584 56.0195 51.0569C55.7706 50.758 49.8021 43.7305 39.7447 43.7305Z" fill="#421F19"/>
<path d="M62.5466 16.0972C61.264 16.2971 60.0016 16.76 58.8935 17.2834C59.4203 16.3497 60.0305 15.3248 60.695 14.3175C63.1585 10.5785 65.437 8.51474 66.7906 8.80054C67.4298 8.93467 68.0557 8.52526 68.1898 7.88703C68.324 7.24792 67.9154 6.62285 67.2763 6.48871C64.7576 5.95919 61.9548 8.10269 58.7067 13.0384C56.4913 16.404 54.8949 19.8336 54.8283 19.9783C54.6643 20.3298 54.6862 20.7621 54.8931 21.0917C55.1141 21.4616 55.5445 21.6782 55.9741 21.6554C58.314 21.6554 60.1085 22.5961 60.127 22.6057C60.304 22.7004 60.4943 22.7451 60.6819 22.7451C61.1036 22.7451 61.513 22.5198 61.726 22.1227C62.0337 21.5502 61.8216 20.8366 61.2491 20.5271C61.1948 20.4973 60.4355 20.0931 59.2345 19.7547C60.3181 19.1823 61.6226 18.6326 62.9113 18.4318C63.5557 18.331 63.9975 17.727 63.8967 17.0826C63.7959 16.4374 63.191 15.9964 62.5466 16.0972Z" fill="#421F19"/>
<path d="M43.3415 64.7905C43.3415 67.1277 41.7714 69.0214 39.8348 69.0214C37.8982 69.0214 36.3271 67.1277 36.3271 64.7905C36.3271 62.4541 37.8982 60.5596 39.8348 60.5596C41.7714 60.5596 43.3415 62.4541 43.3415 64.7905Z" fill="#F35C76"/>
<path d="M21.498 75.8189C23.2505 76.2046 25.0057 76.5124 26.6986 76.7596V39.4609H21.498V75.8189Z" fill="#76C4EE"/>
<path d="M57.9902 75.8189V39.4609H52.7905V76.7596C54.4825 76.5124 56.2385 76.2046 57.9902 75.8189Z" fill="#76C4EE"/>
<path d="M56.8081 74.8617C55.8937 75.0484 54.9451 75.2229 53.9728 75.3816V40.6411H56.8081V74.8617ZM25.5165 75.3816C24.5433 75.2229 23.5956 75.0484 22.6804 74.8617V40.6411H25.5165V75.3816ZM60.1333 38.2793H50.6467C49.9944 38.2793 49.4649 38.8079 49.4649 39.4602C49.4649 40.1124 49.9944 40.6411 50.6467 40.6411H51.6084V47.3258C48.7513 45.4664 44.7448 43.7305 39.7451 43.7305C34.7436 43.7305 30.738 45.4664 27.8809 47.3258V40.6411H28.8417C29.4949 40.6411 30.0235 40.1124 30.0235 39.4602C30.0235 38.8079 29.4949 38.2793 28.8417 38.2793H19.356C18.702 38.2793 18.1733 38.8079 18.1733 39.4602C18.1733 40.1124 18.702 40.6411 19.356 40.6411H20.3168V75.8181C20.3168 76.3722 20.7026 76.8518 21.2453 76.9719C22.9048 77.3366 24.6819 77.6583 26.5273 77.9275C26.5852 77.9353 26.6421 77.9397 26.6991 77.9397C26.9805 77.9397 27.2558 77.8389 27.4724 77.6522C27.731 77.4277 27.8809 77.1016 27.8809 76.7588V50.2128C30.4575 48.256 34.4946 46.0932 39.7451 46.0932C44.9947 46.0932 49.0318 48.256 51.6084 50.2128V76.7588C51.6084 77.1016 51.7575 77.4277 52.0178 77.6522C52.2335 77.8389 52.5079 77.9397 52.7911 77.9397C52.8472 77.9397 52.9042 77.9353 52.9612 77.9275C54.8075 77.6583 56.5845 77.3366 58.2449 76.9719C58.7867 76.8518 59.1725 76.3722 59.1725 75.8181V40.6411H60.1333C60.7865 40.6411 61.3151 40.1124 61.3151 39.4602C61.3151 38.8079 60.7865 38.2793 60.1333 38.2793Z" fill="#421F19"/>
<path d="M42.1588 64.7909C42.1588 66.4733 41.1165 67.8409 39.8347 67.8409C38.5522 67.8409 37.5098 66.4733 37.5098 64.7909C37.5098 63.1094 38.5522 61.7409 39.8347 61.7409C41.1165 61.7409 42.1588 63.1094 42.1588 64.7909ZM39.7445 48.5459C36.0878 48.5459 32.1523 49.6496 32.1523 52.0746C32.1523 54.0927 35.0814 55.9469 38.5618 56.2993V59.5834C36.5936 60.2251 35.1454 62.316 35.1454 64.7909C35.1454 67.7751 37.2485 70.2036 39.8347 70.2036C42.4192 70.2036 44.5233 67.7751 44.5233 64.7909C44.5233 62.2415 42.9864 60.098 40.9262 59.529V56.2993C44.4067 55.9469 47.3357 54.0927 47.3357 52.0746C47.3357 49.6496 43.4002 48.5459 39.7445 48.5459Z" fill="#421F19"/>
</svg>
