<svg width="413" height="300" viewBox="0 0 413 300" fill="none" xmlns="http://www.w3.org/2000/svg">
<path d="M121.313 71.5244C134.474 66.7029 148.083 62.0281 162.141 57.5001C167.46 55.8064 172.738 54.155 177.978 52.5459C182.384 51.8402 186.847 51.5567 191.308 51.699C213.326 52.7661 239.664 113.241 288.808 135.057C303.756 141.696 311.454 140.604 318.805 149.911C329.602 163.588 325.088 183.786 318.805 211.809C314.597 230.507 308.531 248.738 300.698 266.229L119.645 265.459C112.091 260.378 76.8185 235.352 68.8325 189.528C61.109 145.457 81.6711 99.4628 121.313 71.5244Z" fill="white"/>
<path d="M127.021 70.2793C131.535 70.889 135.066 74.8609 141.053 86.7849C150.522 105.636 155.256 115.062 153.435 122.277C150.276 134.76 138.132 134.667 136.099 148.683C135.515 152.739 135.769 158.041 136.099 165.189C136.565 174.945 137.463 176.715 136.099 180.043C133.889 185.471 128.571 187.944 120.424 191.603C105.578 198.259 102.546 194.905 97.3124 199.851C89.428 207.304 93.4252 217.636 85.761 221.311C83.9093 222.109 81.8925 222.448 79.8817 222.301C77.8708 222.153 75.9252 221.523 74.2096 220.464C68.959 217.195 67.9935 210.132 67.604 207.261C58.1783 138.597 51.869 119.33 65.9102 106.576C74.2096 99.0561 79.2231 103.189 93.1457 91.7222C100.481 85.4676 108.199 79.6778 116.257 74.3866C120.949 71.3548 123.684 69.8474 127.021 70.2793Z" fill="#C49A6A"/>
<path d="M181.153 50.8945C170.593 59.7612 174.929 80.6367 177.842 94.6356C179.191 101.126 181.133 107.479 183.643 113.614C185.199 114.309 186.815 114.862 188.47 115.265C190.637 115.763 192.846 116.046 195.068 116.112C198.226 116.341 200.538 117.408 205.798 120.237C223.302 129.654 232.051 134.362 235.514 138.394C237.378 140.544 239.652 142.301 242.205 143.56C242.707 143.804 243.228 144.008 243.763 144.169C243.763 144.169 249.691 146.024 263.241 142.476C264.935 142.035 265.689 141.781 265.689 141.781C266.786 141.359 267.92 141.039 269.076 140.824C272.548 140.181 277.426 139.893 287.318 142.476C294.186 144.281 300.856 146.769 307.228 149.903C307.75 146.304 309.178 142.898 311.377 140.003C313.586 137.182 316.425 134.919 319.668 133.397C322.438 132.101 323.158 132.465 323.818 131.746C326.359 128.985 320.998 117.865 304.738 98.7175C285.802 76.4447 276.435 65.2151 263.241 58.2792C241.019 46.5669 218.763 46.9311 206.009 48.3793C189.8 44.1195 182.636 49.658 181.153 50.8945Z" fill="#C49A6A"/>
<path d="M402.255 245.583C404.666 251.402 406.331 257.502 407.21 263.74C397.674 264.713 305.187 264.078 303.366 264.586C303.322 264.603 303.274 264.603 303.23 264.586C302.51 264.29 306.423 258.159 306.525 251.384C306.525 249.377 306 247.268 304.873 243.127C303.746 238.924 302.369 234.792 300.749 230.754C294.584 215.764 291.239 207.617 289.198 199.419C287.497 192.959 286.665 186.3 286.725 179.619C286.843 171.896 287.046 165.477 291.67 161.462C295.481 158.143 300.546 157.999 303.23 158.16L307.355 159.007C306.193 153.386 307.069 147.535 309.827 142.501C310.996 140.46 315.239 132.974 323.86 131.771C331.211 130.746 336.741 134.981 337.893 135.904C339.045 134.972 347.115 128.688 356.871 130.95C366.797 133.245 374.393 143.449 374.198 155.704C381.278 154.942 385.284 156.788 387.41 158.185C400.113 166.535 397.394 192.738 395.658 209.353C395.489 210.979 393.795 215.188 394.007 220.905C394.193 225.579 395.582 229.323 397.31 234.107C399.3 239.714 400.562 241.568 402.255 245.583Z" fill="white"/>
<path d="M244.881 49.6497C240.368 42.6395 236.55 35.2053 233.482 27.4531C235.838 25.3992 238.657 23.9463 241.697 23.2187C247.709 21.8806 253.129 24.0656 267.281 21.525C270.665 21.0693 273.988 20.24 277.189 19.0521C284.582 16.1642 285.455 13.2595 293.695 9.15213C298.776 6.6115 302.553 4.79071 307.727 5.01937C311.905 5.23911 315.921 6.70181 319.262 9.21986C323.869 12.6836 325.868 17.6886 327.51 24.0741C333.21 46.0928 330.729 71.0502 329.992 78.5451C329.67 81.0103 329.67 83.5069 329.992 85.9722C331.144 94.5002 335.776 98.218 334.116 101.648C333.557 102.825 332.067 104.358 327.51 104.951C310.66 101.948 294.615 95.4831 280.39 85.9646C266.164 76.4461 254.068 64.0807 244.864 49.6497H244.881Z" fill="#C49A6A"/>
<path d="M278.425 167.264C282.982 179.882 280.737 191.425 279.272 198.598C277.985 204.848 275.885 215.12 268.551 225.833C256.322 243.736 238.233 250.198 231.407 252.239C230.587 259.862 228.047 267.2 223.98 273.699C213.191 290.704 191.062 301.764 173.641 296.81C170.762 295.963 164.165 294.007 159.609 287.732C154.663 280.906 155.281 273.335 155.484 271.226C156.048 265.699 158.359 260.495 162.082 256.372C156.204 253.739 150.663 250.412 145.576 246.463C145.576 246.463 133.669 237.198 124.946 220.058C123.803 217.822 122.329 214.57 123.295 210.979C123.998 208.653 125.447 206.623 127.419 205.204C130.741 204.664 134.145 204.955 137.327 206.05C142.146 207.744 143.433 210.513 147.227 211.826C150.098 212.817 154.527 213.029 161.26 209.353L180.239 187.072C181.333 186.198 182.494 185.41 183.711 184.718C184.21 186.056 184.702 187.385 185.193 188.723L191.79 186.242C191.299 184.938 190.799 183.625 190.299 182.321C190.791 182.236 191.282 182.169 191.79 182.118C193.001 181.998 194.221 181.998 195.432 182.118C205.315 183.092 212.877 185.505 220.677 186.208C235.557 187.58 243.619 182.101 245.44 180.432C246.185 179.738 246.871 178.982 247.489 178.171C249.538 175.08 248.937 171.93 254.518 164.748C258.524 159.591 263.402 153.324 268.551 154.027C273.928 154.789 276.833 162.851 278.425 167.264Z" fill="#421F19"/>
<path d="M230.967 128.468C238.941 128.468 245.406 122.003 245.406 114.029C245.406 106.054 238.941 99.5896 230.967 99.5896C222.992 99.5896 216.527 106.054 216.527 114.029C216.527 122.003 222.992 128.468 230.967 128.468Z" fill="#421F19"/>
<path d="M233.482 27.4529C236.55 35.2051 240.368 42.6393 244.881 49.6495C235.607 49.1244 227.435 48.8026 220.228 48.6332V48.0066C224.598 37.2512 229.196 31.0098 233.482 27.4529Z" fill="#C49A6A"/>
<path d="M236.023 138.681C235.929 138.681 227.554 134.244 222.71 131.06C218.539 128.37 214.135 126.063 209.549 124.166C204.151 121.749 198.518 119.896 192.739 118.636C191.15 117.593 189.445 116.74 187.658 116.095C180.984 113.665 172.981 114.19 165.486 116.697L165.436 116.527C168.127 115.658 170.874 114.973 173.659 114.478C189.614 111.463 202.063 116.612 211.15 120.406C220.77 124.369 236.023 138.631 236.023 138.681Z" fill="#421F19"/>
<path d="M198.37 123.522C206.068 132.33 205.264 143.517 204.976 147.455C204.637 152.155 203.799 163.656 194.246 171.388C192.234 173.013 189.997 174.339 187.606 175.326L185.167 168.915L179.392 173.039L180.916 177.189C177.404 177.744 173.826 177.744 170.313 177.189C151.58 174.284 143.789 155.814 143.112 154.061C141.867 151.346 141.025 148.465 140.613 145.507C141.884 141.779 143.702 138.259 146.008 135.065C155.628 122.074 169.763 119.398 174.446 118.551C180.509 117.413 186.734 117.456 192.781 118.678C194.853 120.035 196.733 121.665 198.37 123.522Z" fill="#421F19"/>
<path d="M190.274 182.321C190.774 183.625 191.274 184.938 191.765 186.242L185.168 188.723C184.676 187.385 184.185 186.056 183.686 184.717C185.728 183.546 187.957 182.735 190.274 182.321Z" fill="#421F19"/>
<path d="M187.607 175.292C188.504 177.63 189.385 179.959 190.274 182.287C187.957 182.702 185.728 183.513 183.686 184.684L180.917 177.155C183.211 176.795 185.456 176.169 187.607 175.292Z" fill="#421F19"/>
<path d="M187.64 116.096C189.428 116.741 191.133 117.593 192.722 118.636C186.692 117.436 180.487 117.407 174.446 118.551C169.805 119.398 155.671 122.091 146.016 135.082C143.694 138.268 141.859 141.782 140.571 145.507C140.431 144.235 140.431 142.952 140.571 141.68C141.824 130.67 152.927 120.906 165.444 116.697C172.964 114.19 180.967 113.665 187.64 116.096Z" fill="#421F19"/>
<path d="M185.168 168.915L187.607 175.326C185.456 176.203 183.211 176.828 180.916 177.189L179.392 173.039L185.168 168.915Z" fill="#421F19"/>
<path d="M165.418 116.527L165.469 116.697C152.952 120.931 141.85 130.687 140.597 141.68C140.457 142.952 140.457 144.235 140.597 145.507C139.81 147.742 139.157 150.021 138.64 152.333H138.513C138.814 151.154 138.965 149.942 138.962 148.726C138.968 146.625 138.511 144.549 137.624 142.645C138.758 139.055 140.475 135.676 142.705 132.643C148.417 125.041 156.356 119.407 165.418 116.527Z" fill="#421F19"/>
<path d="M138.945 148.692C138.956 152.218 137.669 155.624 135.329 158.261C135.24 152.956 136.009 147.671 137.607 142.611C138.494 144.515 138.951 146.591 138.945 148.692Z" fill="#421F19"/>
<path d="M138.496 152.299H138.623C136.93 159.633 136.845 165.561 136.472 165.578C136.1 165.595 135.388 162.631 135.329 158.227C136.835 156.527 137.92 154.496 138.496 152.299Z" fill="#421F19"/>
<path d="M137.607 142.611C136.01 147.671 135.241 152.956 135.329 158.261C133.269 160.591 130.513 162.193 127.469 162.829C124.426 163.466 121.258 163.103 118.437 161.795C115.616 160.486 113.293 158.302 111.814 155.567C110.334 152.833 109.776 149.693 110.224 146.616C110.672 143.539 112.101 140.689 114.299 138.489C116.497 136.29 119.347 134.859 122.423 134.409C125.5 133.959 128.64 134.514 131.376 135.992C134.111 137.47 136.297 139.791 137.607 142.611Z" fill="#421F19"/>
<path d="M73.9051 220.126C76.3247 220.077 78.7452 220.167 81.1544 220.397C96.3981 221.862 111.566 229.052 120.382 241.95C126.166 250.418 133.932 268.855 125.336 279.094C120.966 284.26 114.013 285.437 109.652 285.691C108.805 286.902 102.801 294.913 92.3162 295.599C87.6827 295.857 83.0798 294.705 79.1134 292.296C74.3679 295.102 68.7273 295.98 63.3533 294.752C57.9793 293.523 53.2812 290.28 50.2265 285.691C46.8531 287.196 43.0644 287.495 39.4966 286.538C33.7124 284.793 30.9093 279.763 29.5966 277.459C23.5076 266.585 26.0905 250.596 33.7209 239.494C38.05 233.309 43.9814 228.42 50.8786 225.351C58.1391 222.124 65.9627 220.354 73.9051 220.143V220.126Z" fill="white"/>
<path d="M110.931 78.9515L110.126 78.5535L110.228 78.4773L110.931 78.9515Z" fill="#C49A6A"/>
<path d="M110.185 78.477L110.084 78.5532L90.7749 68.8904C95.7461 70.0845 102.064 72.93 110.185 78.477Z" fill="#C49A6A"/>
<path d="M90.7747 68.8906L110.083 78.5534C104.57 82.4744 98.2865 87.2169 91.105 92.9503C91.0552 84.8034 90.5122 76.667 89.479 68.5857L90.7747 68.8906Z" fill="#C49A6A"/>
<path d="M91.1051 92.9589C91.2575 127.503 81.3914 147.675 75.8105 156.949C64.8943 175.08 48.5835 187.631 46.1021 186.657C45.462 186.398 44.8468 186.08 44.2644 185.709C43.0335 184.857 41.9759 183.78 41.1479 182.533C39.1577 179.416 40.8684 175.555 40.301 170.973C39.8355 167.611 38.4026 164.457 36.1767 161.895C21.8561 144.381 13.6583 129.247 8.94123 118.983C6.22276 113.055 3.80917 106.915 5.63842 99.9964C7.71327 92.1882 14.6492 85.5318 22.144 83.4908C27.3269 82.085 28.5549 84.0413 38.6496 83.4908C43.9471 83.192 49.2013 82.3635 54.3337 81.0179C57.3469 80.213 60.2807 79.1359 63.0989 77.7998C72.0165 73.4808 76.0984 70.8131 79.0879 69.4666C81.5777 68.3318 84.8975 67.7728 89.4537 68.6197C90.4943 76.6921 91.0458 84.8199 91.1051 92.9589Z" fill="#C49A6A"/>
<path d="M89.4282 68.2217L90.7748 68.8907L89.4791 68.6112L89.4282 68.2217Z" fill="#C49A6A"/>
<path d="M110.185 78.4773C128.156 65.7064 137.861 61.8362 143.484 61.2095C153.27 60.2271 162.788 57.4298 171.55 52.9609C177.258 50.09 190.596 47.9644 220.228 48.6334C227.435 48.7943 235.607 49.1246 244.881 49.6497" stroke="#421F19" stroke-width="8.56254" stroke-miterlimit="10"/>
<path d="M91.105 92.9586C98.2865 87.2168 104.57 82.4743 110.083 78.5618" stroke="#421F19" stroke-width="8.56254" stroke-miterlimit="10"/>
<path d="M110.931 78.9513L110.228 78.4771C102.106 72.9301 95.7884 70.0846 90.8172 68.8905L89.5215 68.611C84.9653 67.7641 81.6456 68.3315 79.1558 69.4579C76.1663 70.8044 72.0844 73.4721 63.1668 77.7911C60.3486 79.1272 57.4148 80.2043 54.4016 81.0093C49.2692 82.3549 44.015 83.1833 38.7175 83.4821C28.6227 84.0326 27.3948 82.0763 22.2119 83.4821C14.717 85.5231 7.81501 92.1795 5.70629 99.9877C3.87704 106.907 6.29063 113.072 9.0091 118.975C13.7262 129.239 21.924 144.381 36.2446 161.886C38.4704 164.448 39.9033 167.602 40.3689 170.964C40.9109 175.546 39.2002 179.433 41.2158 182.524C42.0437 183.771 43.1014 184.849 44.3323 185.7C44.9147 186.071 45.5298 186.389 46.17 186.648C48.6513 187.622 64.9621 175.072 75.8784 156.94C81.4593 147.667 91.3254 127.494 91.1729 92.9502C91.1007 84.8019 90.535 76.6655 89.4792 68.5856L89.4284 68.196" stroke="#421F19" stroke-width="8.56254" stroke-miterlimit="10"/>
<path d="M233.482 27.4531C235.838 25.3992 238.657 23.9463 241.697 23.2187C247.709 21.8806 253.129 24.0656 267.281 21.525C270.665 21.0693 273.988 20.24 277.189 19.0521C284.582 16.1642 285.455 13.2595 293.695 9.15213C298.776 6.6115 302.553 4.79071 307.727 5.01937C311.905 5.23911 315.921 6.70181 319.262 9.21986C323.869 12.6836 325.868 17.6886 327.51 24.0741C333.21 46.0928 330.729 71.0502 329.992 78.5451C329.67 81.0103 329.67 83.5069 329.992 85.9722C331.144 94.5002 335.776 98.218 334.116 101.648C333.557 102.825 332.067 104.358 327.51 104.951C310.66 101.948 294.615 95.4831 280.39 85.9646C266.164 76.4461 254.068 64.0807 244.864 49.6497C240.357 42.6388 236.545 35.2047 233.482 27.4531Z" stroke="#421F19" stroke-width="8.56254" stroke-miterlimit="10"/>
<path d="M233.448 27.3767V27.4529C229.163 31.0098 224.564 37.2343 220.211 48.0066" stroke="#421F19" stroke-width="8.56254" stroke-miterlimit="10"/>
<path d="M63.4378 173.454C61.0338 189.77 64.7632 206.399 73.9052 220.125C73.9983 220.244 74.083 220.371 74.1592 220.49" stroke="#421F19" stroke-width="8.56254" stroke-miterlimit="10"/>
<path d="M125.327 279.093C120.957 284.259 114.004 285.436 109.643 285.69C108.796 286.901 102.792 294.913 92.3074 295.599C87.6739 295.857 83.071 294.705 79.1046 292.296C74.3591 295.101 68.7185 295.98 63.3445 294.751C57.9705 293.522 53.2723 290.279 50.2177 285.69C46.8443 287.196 43.0556 287.495 39.4878 286.537C33.7036 284.793 30.9005 279.762 29.5878 277.459C23.4988 266.585 26.0818 250.596 33.7121 239.493C38.0412 233.309 43.9725 228.42 50.8698 225.351C58.1303 222.124 65.9538 220.354 73.8963 220.142C76.3159 220.093 78.7364 220.184 81.1456 220.413C96.3893 221.878 111.557 229.068 120.373 241.966C126.174 250.418 133.974 268.855 125.327 279.093Z" stroke="#421F19" stroke-width="8.56254" stroke-miterlimit="10"/>
<path d="M307.313 159.007C306.151 153.386 307.027 147.535 309.785 142.501C310.954 140.46 315.197 132.974 323.818 131.771C331.169 130.746 336.699 134.981 337.851 135.904C339.003 134.972 347.073 128.688 356.829 130.95C366.755 133.245 374.351 143.449 374.156 155.704C381.236 154.942 385.242 156.788 387.368 158.185C400.071 166.535 397.352 192.738 395.616 209.353C395.447 210.979 393.753 215.188 393.965 220.905C394.151 225.579 395.54 229.323 397.268 234.107C399.3 239.714 400.52 241.568 402.213 245.616C404.624 251.436 406.289 257.536 407.168 263.773C397.632 264.747 305.145 264.112 303.324 264.62C303.28 264.637 303.232 264.637 303.188 264.62C302.468 264.324 306.381 258.193 306.483 251.418C306.483 249.41 305.958 247.302 304.831 243.161C303.704 238.958 302.327 234.826 300.707 230.788C294.542 215.798 291.197 207.651 289.156 199.453C287.455 192.993 286.623 186.334 286.683 179.653C286.801 171.93 287.004 165.511 291.628 161.496C295.439 158.177 300.504 158.033 303.188 158.194L307.313 159.007Z" stroke="#421F19" stroke-width="8.56254" stroke-miterlimit="10"/>
<path d="M308.134 99.5896C315.796 108.949 321.167 119.969 323.818 131.771Z" fill="#C49A6A"/>
<path d="M308.134 99.5896C315.796 108.949 321.167 119.969 323.818 131.771" stroke="#421F19" stroke-width="8.56254" stroke-miterlimit="10"/>
<path d="M129.045 146.625C131.323 146.625 133.169 144.779 133.169 142.501C133.169 140.223 131.323 138.377 129.045 138.377C126.767 138.377 124.921 140.223 124.921 142.501C124.921 144.779 126.767 146.625 129.045 146.625Z" fill="white"/>
<path d="M235.099 111.971C237.152 111.971 238.817 110.307 238.817 108.253C238.817 106.2 237.152 104.536 235.099 104.536C233.046 104.536 231.381 106.2 231.381 108.253C231.381 110.307 233.046 111.971 235.099 111.971Z" fill="white"/>
<path d="M198.37 215.095C201.199 217.094 197.346 223.437 194.246 240.679C191.951 253.467 192.671 257.778 188.47 261.309C186.218 263.206 182.364 265.027 181.865 268.736C181.789 269.278 181.611 271.201 182.712 272.039C184.541 273.47 188.708 270.777 189.309 270.388C192.925 268.05 195.076 264.299 198.387 253.061C201.123 243.745 202.486 239.155 203.342 232.431C204.188 225.41 203.807 222.548 205.814 216.747C207.313 212.436 208.668 208.684 212.42 206.017C217.256 202.578 222.87 203.222 225.623 203.544C229.01 203.933 233.694 204.475 235.531 207.668C237.276 210.725 235.387 214.443 233.05 220.049C227.969 232.278 226.004 238.681 225.623 241.509C224.835 247.437 225.835 249.825 223.971 256.363C223.137 259.212 222.031 261.974 220.669 264.612C217.624 271.081 213.105 276.745 207.474 281.151C201.917 285.412 195.401 288.247 188.496 289.408C183.228 290.205 174.539 291.517 168.687 286.106C166.773 284.29 165.354 282.017 164.563 279.5C162.988 275.858 161.565 270.803 162.912 265.476C164.766 258.133 170.169 257.786 174.463 248.14C174.836 247.293 176.36 242.365 179.417 232.465C180.599 228.283 182.558 224.361 185.193 220.905C186.125 219.647 187.238 218.534 188.496 217.602C191.138 215.696 196.135 213.554 198.37 215.095Z" fill="#F58C8F"/>
<path d="M338.257 167.67C333.108 167.67 329.636 172.032 329.179 172.624C326.3 176.385 328.019 178.553 325.055 182.533C322.37 186.132 320.219 185.353 318.457 188.309C316.078 192.272 317.035 198.564 320.1 202.341C321.87 204.501 324.14 205.61 338.257 207.287C356.753 209.489 360.225 208.464 363.02 206.44C364.358 205.475 368.626 202.079 368.796 197.362C368.991 191.882 363.571 187.292 358.896 183.329C354.407 179.526 352.722 179.662 349.817 175.902C348.064 173.641 347.361 171.905 344.863 170.126C342.973 168.635 340.662 167.776 338.257 167.67Z" fill="#F58C8F"/>
<path d="M304.424 185.006C308.984 185.006 312.681 181.309 312.681 176.748C312.681 172.188 308.984 168.491 304.424 168.491C299.864 168.491 296.167 172.188 296.167 176.748C296.167 181.309 299.864 185.006 304.424 185.006Z" fill="#F58C8F"/>
<path d="M325.469 161.488C330.03 161.488 333.726 157.791 333.726 153.231C333.726 148.671 330.03 144.974 325.469 144.974C320.909 144.974 317.212 148.671 317.212 153.231C317.212 157.791 320.909 161.488 325.469 161.488Z" fill="#F58C8F"/>
<path d="M351.054 157.364C355.614 157.364 359.311 153.667 359.311 149.107C359.311 144.546 355.614 140.85 351.054 140.85C346.494 140.85 342.797 144.546 342.797 149.107C342.797 153.667 346.494 157.364 351.054 157.364Z" fill="#F58C8F"/>
<path d="M379.111 185.421C383.671 185.421 387.368 181.724 387.368 177.164C387.368 172.604 383.671 168.907 379.111 168.907C374.55 168.907 370.854 172.604 370.854 177.164C370.854 181.724 374.55 185.421 379.111 185.421Z" fill="#F58C8F"/>
</svg>
