<svg width="70" height="80" viewBox="0 0 70 80" xmlns="http://www.w3.org/2000/svg">
<path fill-rule="evenodd" clip-rule="evenodd" d="M40 0H10C4.47715 0 0 4.47715 0 10V70C0 75.5229 4.47715 80 10 80H60C65.5229 80 70 75.5229 70 70V36H44C41.7909 36 40 34.2091 40 32V0Z" fill="#FF6362"/>
<rect x="12" y="40" width="26" height="8" rx="4" fill="#F4F6F6"/>
<rect x="12" y="54" width="36" height="8" rx="4" fill="#F4F6F6"/>
<path d="M44.7608 26.7836C43.2226 24.4879 44.1795 8.29017 44.5 0L70.0002 31.5664C70.0002 31.5664 56.1597 32.542 50.5292 31.5664C46.5794 30.8821 45.395 27.7301 44.7608 26.7836Z" fill="#FF6362"/>
<path fill-rule="evenodd" clip-rule="evenodd" d="M0 56.0001V70.0001C0 75.523 4.47715 80.0001 10 80.0001H60C65.5229 80.0001 70 75.523 70 70.0001V36.0005H58V56.0001C58 61.523 53.5228 66.0001 48 66.0001H10C4.47715 66.0001 0 61.523 0 56.0001Z" fill="#b73b3b"/>
</svg>
