<svg width="35" height="40" viewBox="0 0 35 40" fill="none" xmlns="http://www.w3.org/2000/svg">
<path fill-rule="evenodd" clip-rule="evenodd" d="M20 0H10C4.47715 0 0 4.47715 0 10V30C0 35.5228 4.47715 40 10 40H25C30.5228 40 35 35.5228 35 30V18H24C21.7909 18 20 16.2091 20 14V0Z" fill="#FF6362"/>
<rect x="6" y="20" width="13" height="4" rx="2" fill="#F4F6F6"/>
<rect x="6" y="27" width="18" height="4" rx="2" fill="#F4F6F6"/>
<path d="M22.3803 13.3918C21.6112 12.2439 22.2201 4.14509 22.3803 0L35 15.7832C35 15.7832 28.0797 16.271 25.2645 15.7832C23.2896 15.441 22.6974 13.8651 22.3803 13.3918Z" fill="#FF6362"/>
<path fill-rule="evenodd" clip-rule="evenodd" d="M0 23V30C0 35.5228 4.47715 40 10 40H25C30.5228 40 35 35.5228 35 30V18.0002H29V23C29 28.5228 24.5228 33 19 33H10C4.47715 33 0 28.5228 0 23Z" fill="#CD3F3E"/>
</svg>
