<svg width="22" height="21" viewBox="0 0 22 21" fill="none" xmlns="http://www.w3.org/2000/svg">
<path d="M10.9986 0C4.92525 0 6.34765e-06 4.82009 6.34765e-06 10.7661C-0.002475 13.0227 0.722588 15.2231 2.07272 17.0561C3.42286 18.8892 5.32979 20.2623 7.524 20.9813C8.074 21.0805 8.27475 20.7481 8.27475 20.4626C8.27475 20.2066 8.26513 19.5297 8.25963 18.6316C5.20025 19.2817 4.554 17.188 4.554 17.188C4.05488 15.9441 3.333 15.613 3.333 15.613C2.33338 14.9455 3.40725 14.9589 3.40725 14.9589C4.51138 15.0353 5.09163 16.0688 5.09163 16.0688C6.07338 17.7134 7.667 17.2389 8.294 16.9628C8.393 16.2671 8.67763 15.7926 8.9925 15.5232C6.5505 15.2511 3.982 14.3276 3.982 10.2031C3.982 9.02761 4.411 8.06654 5.115 7.31324C5.00088 7.04114 4.62413 5.94603 5.22225 4.46488C5.22225 4.46488 6.14625 4.17535 8.24725 5.56803C9.14478 5.32892 10.0709 5.20722 11.0014 5.20613C11.9319 5.20793 12.858 5.33008 13.7555 5.56937C15.8551 4.1767 16.7777 4.46622 16.7777 4.46622C17.3772 5.94871 17.0005 7.04248 16.8877 7.31458C17.5931 8.06789 18.018 9.02895 18.018 10.2045C18.018 14.3396 15.4467 15.2498 12.9965 15.5165C13.3911 15.8489 13.7431 16.5057 13.7431 17.5097C13.7431 18.9493 13.7294 20.1101 13.7294 20.4626C13.7294 20.7508 13.9274 21.0859 14.4856 20.98C16.6777 20.2592 18.5823 18.8856 19.9305 17.053C21.2788 15.2204 22.0027 13.0213 22 10.7661C22 4.82009 17.0747 0 10.9986 0Z" fill="black"/>
</svg>
