<svg width="22" height="22" viewBox="0 0 22 22" fill="none" xmlns="http://www.w3.org/2000/svg">
<path d="M5.42427 13.4795L4.69149 16.2151L2.01321 16.2717C1.2128 14.7872 0.758789 13.0886 0.758789 11.2836C0.758789 9.53815 1.18327 7.89218 1.9357 6.44287H1.93628L4.3207 6.88002L5.36522 9.25013C5.14661 9.88748 5.02745 10.5717 5.02745 11.2836C5.02753 12.0562 5.16749 12.7965 5.42427 13.4795Z" fill="#FBBB00"/>
<path d="M21.6266 9.31836C21.7475 9.95509 21.8105 10.6127 21.8105 11.2847C21.8105 12.0383 21.7313 12.7734 21.5803 13.4824C21.0679 15.8953 19.7291 18.0021 17.8744 19.4931L17.8738 19.4925L14.8705 19.3393L14.4454 16.6858C15.6761 15.9641 16.6379 14.8346 17.1445 13.4824H11.5161V9.31836H21.6266Z" fill="#518EF8"/>
<path d="M17.8751 19.4923L17.8756 19.4929C16.0718 20.9428 13.7804 21.8103 11.286 21.8103C7.27755 21.8103 3.79248 19.5698 2.01465 16.2727L5.42571 13.4805C6.3146 15.8528 8.6031 17.5416 11.286 17.5416C12.4392 17.5416 13.5196 17.2298 14.4466 16.6856L17.8751 19.4923Z" fill="#28B446"/>
<path d="M18.003 3.18203L14.5931 5.97366C13.6337 5.37394 12.4995 5.02749 11.2844 5.02749C8.54077 5.02749 6.20947 6.79373 5.36511 9.25113L1.93612 6.44387H1.93555C3.68735 3.06637 7.21637 0.758789 11.2844 0.758789C13.8384 0.758789 16.1801 1.66853 18.003 3.18203Z" fill="#F14336"/>
</svg>
