<svg width="12" height="15" viewBox="0 0 12 15" fill="none" xmlns="http://www.w3.org/2000/svg">
<path d="M5.52 0.719999C6.86667 0.719999 7.92 1.00667 8.68 1.58C9.44 2.14 9.94 2.93333 10.18 3.96H11.24V5.34H10.36C10.3733 5.42 10.38 5.5 10.38 5.58C10.38 5.64667 10.38 5.71333 10.38 5.78C10.38 5.91333 10.3733 6.04667 10.36 6.18C10.36 6.3 10.3533 6.41333 10.34 6.52H11.24V7.9H10.06C9.86 8.52667 9.54 9.08667 9.1 9.58C8.66 10.0733 8.08 10.46 7.36 10.74C6.64 11.02 5.75333 11.16 4.7 11.16H4.32V15H1.34V7.9H0.2V6.52H1.34V5.34H0.2V3.96H1.34V0.719999H5.52ZM6.94 7.9H4.32V8.76H4.64C5.18667 8.76 5.65333 8.69333 6.04 8.56C6.42667 8.42667 6.72667 8.20667 6.94 7.9ZM7.38 5.34H4.32V6.52H7.38C7.39333 6.41333 7.4 6.31333 7.4 6.22C7.4 6.11333 7.4 6 7.4 5.88C7.4 5.78667 7.4 5.7 7.4 5.62C7.4 5.52667 7.39333 5.43333 7.38 5.34ZM5.38 3.12H4.32V3.96H7.06C6.91333 3.69333 6.7 3.48667 6.42 3.34C6.15333 3.19333 5.80667 3.12 5.38 3.12Z" fill="#6F6F6F"/>
</svg>
